<?xml version="1.0" encoding="utf-8"?>
<!-- Generator: Adobe Illustrator 17.0.0, SVG Export Plug-In . SVG Version: 6.00 Build 0)  -->
<!DOCTYPE svg PUBLIC "-//W3C//DTD SVG 1.1//EN" "http://www.w3.org/Graphics/SVG/1.1/DTD/svg11.dtd">
<svg version="1.1" id="Layer_1" xmlns="http://www.w3.org/2000/svg" xmlns:xlink="http://www.w3.org/1999/xlink" x="0px" y="0px"
	 width="50px" height="50px" viewBox="0 0 50 50" enable-background="new 0 0 50 50" xml:space="preserve">
<g>
	<path fill="#FFFFFF" d="M41.137,18.58c0.034-0.474-0.131-0.948-0.454-1.295c-0.326-0.35-0.783-0.549-1.261-0.549H10.578
		c-0.477,0-0.935,0.2-1.261,0.549c-0.323,0.347-0.488,0.821-0.454,1.295c0.361,4.84,2.985,9.14,6.746,11.89L9.65,43.832
		c-0.186,0.433-0.189,0.91-0.01,1.346c0.175,0.436,0.508,0.776,0.942,0.958c0.216,0.092,0.446,0.141,0.683,0.141
		c0.711,0,1.346-0.419,1.618-1.058l2.717-6.09c2.153,0.618,4.647,1.003,7.292,1.123v4.97c0,0.968,0.786,1.759,1.759,1.759
		c0.968,0,1.759-0.791,1.759-1.759V40.25c2.627-0.12,5.121-0.506,7.288-1.127l2.714,6.086c0.278,0.649,0.914,1.068,1.62,1.068
		c0.237,0,0.468-0.045,0.688-0.137c0.893-0.382,1.308-1.416,0.923-2.319l-5.788-12.973C37.904,28.125,40.759,23.647,41.137,18.58
		L41.137,18.58z M16.176,37.835l2.494-5.591c1.332,0.594,2.751,1.003,4.221,1.209v5.393C20.459,38.732,18.165,38.388,16.176,37.835
		L16.176,37.835z M33.116,37.829c-1.999,0.553-4.289,0.9-6.707,1.013v-5.296c1.501-0.138,2.957-0.499,4.334-1.045L33.116,37.829z
		 M33.116,37.829"/>
	<path fill="#FFFFFF" d="M12.308,11.955c0.138,0.137,0.32,0.206,0.498,0.206c0.182,0,0.361-0.068,0.498-0.206
		c0.275-0.272,0.275-0.718,0-0.993c-0.364-0.364-0.346-0.975,0.038-1.36c0.457-0.454,0.701-1,0.711-1.569
		c0.01-0.573-0.23-1.133-0.677-1.58c-0.274-0.274-0.721-0.274-0.996,0c-0.274,0.278-0.274,0.721,0,0.996
		c0.124,0.123,0.272,0.319,0.265,0.563c-0.004,0.196-0.106,0.405-0.299,0.598C11.416,9.54,11.398,11.045,12.308,11.955
		L12.308,11.955z M12.308,11.955"/>
	<path fill="#FFFFFF" d="M37.328,11.955c0.137,0.137,0.316,0.206,0.494,0.206c0.182,0,0.361-0.068,0.498-0.206
		c0.275-0.275,0.275-0.718,0-0.993c-0.364-0.364-0.346-0.975,0.038-1.36c0.457-0.454,0.701-1,0.711-1.569
		c0.01-0.573-0.23-1.133-0.677-1.58c-0.274-0.274-0.721-0.274-0.995,0c-0.275,0.278-0.275,0.721,0,0.996
		c0.123,0.123,0.267,0.319,0.264,0.563c-0.003,0.196-0.106,0.405-0.298,0.598C36.431,9.54,36.413,11.045,37.328,11.955
		L37.328,11.955z M37.328,11.955"/>
	<path fill="#FFFFFF" d="M18.103,11.955c0.137,0.137,0.317,0.206,0.499,0.206c0.179,0,0.361-0.068,0.498-0.206
		c0.275-0.275,0.275-0.718,0-0.993c-0.636-0.636-0.611-1.694,0.052-2.357c0.594-0.594,0.913-1.294,0.923-2.029
		c0.014-0.746-0.288-1.45-0.876-2.034c-0.274-0.274-0.717-0.274-0.993,0c-0.274,0.275-0.274,0.718,0,0.993
		c0.309,0.313,0.468,0.663,0.464,1.016c-0.007,0.36-0.186,0.728-0.512,1.058C16.942,8.822,16.918,10.773,18.103,11.955
		L18.103,11.955z M18.103,11.955"/>
	<path fill="#FFFFFF" d="M30.798,11.955c0.137,0.137,0.319,0.206,0.498,0.206s0.361-0.068,0.499-0.206
		c0.274-0.275,0.274-0.718,0-0.993c-0.636-0.636-0.612-1.694,0.051-2.357c0.594-0.594,0.913-1.298,0.924-2.033
		c0.014-0.746-0.288-1.446-0.876-2.03c-0.275-0.274-0.718-0.274-0.993,0c-0.275,0.275-0.275,0.718,0,0.993
		c0.309,0.31,0.467,0.66,0.463,1.016c-0.007,0.36-0.185,0.728-0.512,1.058C29.64,8.822,29.616,10.773,30.798,11.955L30.798,11.955z
		 M30.798,11.955"/>
	<path fill="#FFFFFF" d="M24.066,11.955c0.137,0.137,0.319,0.206,0.498,0.206c0.182,0,0.361-0.068,0.498-0.206
		c0.275-0.275,0.275-0.718,0-0.993c-0.405-0.409-0.631-0.948-0.631-1.522c0-0.573,0.226-1.116,0.631-1.525
		c1.381-1.38,1.381-3.311,0-4.692c-0.274-0.274-0.717-0.274-0.995,0c-0.275,0.275-0.275,0.721,0,0.996
		c0.848,0.845,0.848,1.854,0,2.703C22.678,8.31,22.678,10.567,24.066,11.955L24.066,11.955z M24.066,11.955"/>
	<path fill="#FFFFFF" d="M43.64,11.986c-1.109,0-2.04,0.746-2.346,1.759H8.706C8.4,12.731,7.469,11.986,6.36,11.986
		c-1.357,0-2.463,1.106-2.463,2.463c0,1.357,1.106,2.463,2.463,2.463c1.109,0,2.04-0.746,2.346-1.759h32.588
		c0.306,1.013,1.237,1.759,2.346,1.759c1.357,0,2.463-1.106,2.463-2.463C46.103,13.092,44.997,11.986,43.64,11.986L43.64,11.986z
		 M43.64,11.986"/>
</g>
</svg>
