<?xml version="1.0" encoding="utf-8"?>
<!-- Generator: Adobe Illustrator 17.0.0, SVG Export Plug-In . SVG Version: 6.00 Build 0)  -->
<!DOCTYPE svg PUBLIC "-//W3C//DTD SVG 1.1//EN" "http://www.w3.org/Graphics/SVG/1.1/DTD/svg11.dtd">
<svg version="1.1" id="Layer_1" xmlns="http://www.w3.org/2000/svg" xmlns:xlink="http://www.w3.org/1999/xlink" x="0px" y="0px"
	 width="50px" height="50px" viewBox="0 0 50 50" enable-background="new 0 0 50 50" xml:space="preserve">
<g>
	<path fill="#FFFFFF" d="M8.694,44.97h5.962c0.081,0.522,0.515,0.926,1.055,0.926h13.534c0.54,0,0.974-0.404,1.055-0.926h5.962
		c1.004,0,1.814-0.82,1.814-1.824H6.88C6.88,44.15,7.69,44.97,8.694,44.97L8.694,44.97z M8.694,44.97"/>
	<path fill="#FFFFFF" d="M45.25,26.233c-1.517-1.231-3.656-1.251-5.054-1.095c0.038-0.974,0.058-1.981,0.058-3.025H3.135
		c0,10.035,1.519,17.269,11.127,19.969h14.864c3.805-1.065,6.328-2.859,8.003-5.243c3.646-0.068,9.51-1.509,9.727-6.545
		C46.956,28.095,46.04,26.873,45.25,26.233L45.25,26.233z M38.657,33.959c0.699-1.794,1.115-3.813,1.34-6.03
		c0.987-0.169,2.682-0.267,3.54,0.434c0.156,0.126,0.651,0.532,0.59,1.812C44.019,32.788,40.776,33.663,38.657,33.959L38.657,33.959
		z M38.657,33.959"/>
	<path fill="#FFFFFF" d="M18.254,20.704c0,0,7.067-0.525,3.825-6.477c-2.594-4.779-2.001-7.59,1.32-10.123
		c0,0-10.89,2.781-4.534,11.365C21.191,19.216,18.254,20.704,18.254,20.704L18.254,20.704z M18.254,20.704"/>
	<path fill="#FFFFFF" d="M23.016,20.23c0,0,5.667-1.194,2.581-5.745c-1.113-1.973,0.424-2.682,0.424-2.682s-3.646,0.119-2.109,3.242
		C25.145,17.568,24.779,18.999,23.016,20.23L23.016,20.23z M23.016,20.23"/>
</g>
</svg>
