<?xml version="1.0" encoding="utf-8"?>
<!-- Generator: Adobe Illustrator 17.0.0, SVG Export Plug-In . SVG Version: 6.00 Build 0)  -->
<!DOCTYPE svg PUBLIC "-//W3C//DTD SVG 1.1//EN" "http://www.w3.org/Graphics/SVG/1.1/DTD/svg11.dtd">
<svg version="1.1" id="Layer_1" xmlns="http://www.w3.org/2000/svg" xmlns:xlink="http://www.w3.org/1999/xlink" x="0px" y="0px"
	 width="50px" height="50px" viewBox="0 0 50 50" enable-background="new 0 0 50 50" xml:space="preserve">
<path fill="#FFFFFF" d="M41.246,20.563c-0.787-1.9-2.393-5.088-4.308-5.088c-0.505,0-1.167,0.421-1.357,0.55
	c-0.226,0.153-0.344,0.446-0.287,0.713c0.007,0.034,0.716,3.389,0.865,4.971c0.442,4.688-0.391,8.121-2.476,10.206
	c-0.417,0.417-1.205,1.102-1.212,1.109c-0.159,0.139-0.235,0.339-0.204,0.54c0.032,0.202,0.166,0.365,0.361,0.448
	c0.076,0.032,1.475,0.614,3.256,0.883c-0.017,0.065-0.026,0.134-0.026,0.205v7.042h-9.341v-8.928
	c2.249-0.36,4.109-1.543,5.231-3.351c2.438-3.931,0.417-15.702-2.869-21.607c-1.247-2.24-2.541-3.373-3.847-3.373h0
	c-1.294,0-2.58,1.138-3.823,3.37c-3.294,5.916-5.327,17.686-2.894,21.609c1.412,2.276,3.612,3.078,5.231,3.345v8.935h-9.341V35.07
	c0-0.077-0.011-0.15-0.031-0.219c1.596-0.275,2.803-0.769,2.873-0.799c0.195-0.083,0.33-0.23,0.362-0.432
	c0.032-0.203-0.045-0.406-0.205-0.545c-0.008-0.007-0.833-0.724-1.268-1.158c-1.928-1.928-2.576-5.364-1.983-10.503
	c0.166-1.441,0.759-4.41,0.766-4.44c0.051-0.254-0.052-0.533-0.256-0.693c-0.242-0.189-1.078-0.811-1.674-0.811
	c-1.652,0-2.983,2.37-3.808,4.362c-1.812,4.375-3.126,11.677-1.151,13.653c0.963,0.963,2.287,1.467,3.937,1.538
	c-0.003,0.026-0.004,0.052-0.004,0.079v7.042H9.141c-0.479,0-0.885,0.383-0.885,0.838v1.259c0,0.466,0.414,0.875,0.885,0.875h31.816
	c0.457,0,0.843-0.401,0.843-0.875v-1.259c0-0.47-0.37-0.838-0.843-0.838h-2.661V35.07c0-0.022-0.001-0.045-0.003-0.066
	c1.499-0.118,2.708-0.617,3.602-1.512C44.06,31.329,43.176,25.224,41.246,20.563L41.246,20.563z M41.246,20.563"/>
</svg>
