<?xml version="1.0" encoding="utf-8"?>
<!-- Generator: Adobe Illustrator 17.0.0, SVG Export Plug-In . SVG Version: 6.00 Build 0)  -->
<!DOCTYPE svg PUBLIC "-//W3C//DTD SVG 1.1//EN" "http://www.w3.org/Graphics/SVG/1.1/DTD/svg11.dtd">
<svg version="1.1" id="Layer_1" xmlns="http://www.w3.org/2000/svg" xmlns:xlink="http://www.w3.org/1999/xlink" x="0px" y="0px"
	 width="50px" height="50px" viewBox="0 0 50 50" enable-background="new 0 0 50 50" xml:space="preserve">
<g>
	<path fill="#FFFFFF" d="M7.655,15.808l10.762,1.383c0.376,0.954,2.268,5.648,2.624,6.488h-0.005
		c-3.118,1.541-6.236,3.078-9.354,4.62c1.082-0.198,2.179-0.296,3.281-0.296c1.443,0,2.856,0.173,4.205,0.514
		c2.723,0.692,5.183,1.798,7.56,2.871c2.12,0.954,4.126,1.858,6.127,2.377c0.281,0.074,0.553,0.139,0.825,0.193
		c-2.372-4.857-8.751-17.946-10.01-20.827c-0.593-1.359-1.408-1.863-2.565-2.011L8.466,9.493c-1.744-0.222-3.34,1.008-3.568,2.752
		C4.681,13.989,5.911,15.585,7.655,15.808L7.655,15.808z M7.655,15.808"/>
	<path fill="#FFFFFF" d="M2.571,39.386c0.351,0.252,0.751,0.371,1.151,0.371c0.089,0,0.173-0.005,0.257-0.02
		c0.524-0.069,1.018-0.346,1.349-0.805c1.28-1.784,3.261-3.187,5.569-3.958c1.324-0.44,2.708-0.662,4.066-0.662
		c4.926,0,9.151,2.945,13.598,4.64c2.382,0.909,4.867,1.581,7.57,1.581c1.136,0,2.313-0.119,3.533-0.39
		c2.871-0.633,5.332-1.996,7.11-3.909c0.425-0.46,0.81-0.944,1.151-1.463c0.603-0.909,0.351-2.135-0.558-2.737
		c-0.336-0.222-0.712-0.326-1.087-0.326c-0.642,0-1.27,0.311-1.65,0.884c-0.153,0.232-0.321,0.455-0.504,0.672
		c-1.235,1.472-3.088,2.53-5.312,3.019c-2.051,0.449-4.314,0.316-6.335-0.208c-2.124-0.554-4.18-1.478-6.364-2.461
		c-2.322-1.043-4.719-2.125-7.318-2.787c-1.235-0.316-2.53-0.469-3.839-0.469c-1.784,0-3.597,0.292-5.322,0.865
		c-1.507,0.504-2.905,1.206-4.16,2.09c-1.324,0.934-2.456,2.046-3.365,3.311c-0.059,0.084-0.109,0.168-0.153,0.257
		C1.528,37.736,1.766,38.808,2.571,39.386L2.571,39.386z M2.571,39.386"/>
	<path fill="#FFFFFF" d="M45.326,22.365c0,3.851-3.121,6.972-6.972,6.972c-3.85,0-6.972-3.121-6.972-6.972
		c0-3.851,3.122-6.972,6.972-6.972C42.205,15.393,45.326,18.514,45.326,22.365L45.326,22.365z M45.326,22.365"/>
</g>
</svg>
