<?xml version="1.0" encoding="utf-8"?>
<!-- Generator: Adobe Illustrator 17.0.0, SVG Export Plug-In . SVG Version: 6.00 Build 0)  -->
<!DOCTYPE svg PUBLIC "-//W3C//DTD SVG 1.1//EN" "http://www.w3.org/Graphics/SVG/1.1/DTD/svg11.dtd">
<svg version="1.1" id="Layer_1" xmlns="http://www.w3.org/2000/svg" xmlns:xlink="http://www.w3.org/1999/xlink" x="0px" y="0px"
	 width="50px" height="50px" viewBox="0 0 50 50" enable-background="new 0 0 50 50" xml:space="preserve">
<path fill="#FFFFFF" d="M39.595,33.049c0,2.195,1.785,3.98,3.98,3.98c2.195,0,4.069-1.786,4.069-3.98
	c0-1.727-1.201-3.186-2.742-3.736V18.366h1.415c0.907,0,1.546-0.89,1.258-1.747c-1.767-5.305-6.8-8.868-12.391-8.868h-4.167
	l-2.705-3.73c-1.48-2.221-5.144-2.221-6.623,0l-2.705,3.73h-4.167c-5.591,0-10.624,3.563-12.391,8.868
	c-0.288,0.856,0.351,1.747,1.258,1.747h1.415v10.947c-1.541,0.55-2.742,2.009-2.742,3.736c0,2.195,1.874,3.98,4.069,3.98
	c2.195,0,3.98-1.786,3.98-3.98c0-1.727-1.113-3.186-2.654-3.736V18.366c4.653,0,3.299,0,7.961,0v10.947
	c-1.541,0.55-2.654,2.009-2.654,3.736c0,2.195,1.786,3.98,3.98,3.98c2.195,0,3.98-1.786,3.98-3.98c0-1.727-1.113-3.186-2.654-3.736
	V18.366h5.307v21.317h-3.98c-3.203,0-5.883,2.283-6.5,5.307h-9.51c-0.733,0-1.327,0.593-1.327,1.327
	c0,0.733,0.593,1.327,1.327,1.327h42.634c0.733,0,1.327-0.594,1.327-1.327c0-0.733-0.593-1.327-1.327-1.327h-9.51
	c-0.617-3.024-3.296-5.307-6.5-5.307h-3.98V18.366h5.307v10.947c-1.541,0.55-2.654,2.009-2.654,3.736c0,2.195,1.785,3.98,3.98,3.98
	c2.195,0,3.98-1.786,3.98-3.98c0-1.727-1.112-3.186-2.653-3.736V18.366c4.661,0,3.308,0,7.961,0v10.947
	C40.707,29.863,39.595,31.322,39.595,33.049z M15.846,15.713c0.617-3.024,3.296-5.307,6.5-5.307h5.307
	c3.204,0,5.884,2.283,6.5,5.307H15.846z"/>
</svg>
