<?xml version="1.0" encoding="utf-8"?>
<!-- Generator: Adobe Illustrator 17.0.0, SVG Export Plug-In . SVG Version: 6.00 Build 0)  -->
<!DOCTYPE svg PUBLIC "-//W3C//DTD SVG 1.1//EN" "http://www.w3.org/Graphics/SVG/1.1/DTD/svg11.dtd">
<svg version="1.1" id="Layer_1" xmlns="http://www.w3.org/2000/svg" xmlns:xlink="http://www.w3.org/1999/xlink" x="0px" y="0px"
	 width="50px" height="50px" viewBox="0 0 50 50" enable-background="new 0 0 50 50" xml:space="preserve">
<g>
	<path fill="#FFFFFF" d="M46.473,29.941c0.784-0.524,0.994-1.585,0.47-2.368l-5.977-8.935c-0.792-1.183-2.002-1.8-3.273-1.8h-2.56
		c-1.474,0-2.649,0.892-3.398,2.049c-0.075,0.117,0.372-0.565-5.839,8.684c-0.526,0.783-0.318,1.843,0.465,2.369
		c0.782,0.525,1.843,0.318,2.369-0.465l2.561-3.814l0.005,17.321c0,1.179,0.956,2.134,2.134,2.134s2.134-0.955,2.134-2.134v-9.604
		h1.708v9.604c0,1.179,0.956,2.134,2.134,2.134c1.179,0,2.134-0.955,2.134-2.134c0-18.408-0.005-17.213-0.005-17.352l2.57,3.841
		C44.629,30.256,45.691,30.465,46.473,29.941L46.473,29.941z M46.473,29.941"/>
	<path fill="#FFFFFF" d="M36.418,15.183c2.259,0,4.092-1.831,4.092-4.092c0-1.473-0.78-2.765-1.95-3.484
		c0.242-0.171,0.523-0.329,0.857-0.464c0.14-0.057,0.233-0.189,0.241-0.34c0.007-0.151-0.074-0.292-0.208-0.361
		c-0.647-0.336-1.436-0.343-2.18-0.2c0.126-0.236,0.285-0.478,0.49-0.723c0.097-0.116,0.117-0.278,0.053-0.414
		c-0.064-0.136-0.203-0.222-0.354-0.221c-1.496,0.017-2.868,1.533-3.413,2.44c-0.128,0.211-0.223,0.434-0.283,0.658
		c-0.877,0.751-1.435,1.865-1.435,3.109C32.327,13.353,34.159,15.183,36.418,15.183L36.418,15.183z M36.418,15.183"/>
	<path fill="#FFFFFF" d="M18.201,18.789c-0.737-1.118-1.91-1.952-3.344-1.952h-2.561c-1.459,0-2.729,0.814-3.379,2.012
		c-0.079,0.114-5.782,8.606-5.858,8.721c-0.526,0.783-0.318,1.844,0.465,2.369c0.782,0.525,1.843,0.318,2.369-0.465l2.56-3.813
		v0.046L6.13,35.184c-0.109,0.442-0.008,0.909,0.273,1.267c0.281,0.358,0.711,0.567,1.166,0.567h0.89v5.963
		c0,1.179,0.956,2.134,2.134,2.134c1.179,0,2.134-0.955,2.134-2.134v-5.963h1.708v5.963c0,1.179,0.955,2.134,2.134,2.134
		c1.179,0,2.134-0.955,2.134-2.134v-5.963h0.88c0.456,0,0.885-0.209,1.166-0.567c0.281-0.358,0.382-0.825,0.273-1.267l-2.324-9.477
		v-0.062l2.571,3.828c0.526,0.783,1.587,0.991,2.369,0.465c0.783-0.526,0.992-1.586,0.465-2.369
		C17.798,18.179,18.275,18.901,18.201,18.789L18.201,18.789z M18.201,18.789"/>
	<path fill="#FFFFFF" d="M5.418,16.436c0.151,0.012,0.294-0.064,0.369-0.195c1.124-1.984,2.887-1.815,3.282-2.548
		c0.055-0.101,0.098-0.206,0.129-0.311c0.121,0.13,0.29,0.206,0.469,0.206c0.07,0,0.142-0.011,0.212-0.036
		c0.119-0.042,0.215-0.116,0.288-0.207c0.732,1.109,1.989,1.84,3.416,1.84c1.427,0,2.684-0.731,3.416-1.84
		c0.072,0.092,0.169,0.165,0.288,0.207c0.07,0.025,0.142,0.036,0.212,0.036c0.179,0,0.348-0.076,0.469-0.206
		c0.031,0.106,0.074,0.21,0.128,0.311c0.395,0.733,2.158,0.564,3.282,2.548c0.074,0.131,0.219,0.207,0.369,0.195
		c0.151-0.013,0.28-0.111,0.331-0.253c0.512-1.405-0.422-3.223-1.078-4.055c-0.564-0.715-1.431-1.102-2.234-0.669
		c-0.028,0.016-0.055,0.033-0.082,0.05l0.007-0.019c0.117-0.333-0.059-0.699-0.392-0.816c-0.227-0.08-0.468-0.023-0.636,0.127
		c-0.15-2.121-1.919-3.798-4.08-3.798c-2.161,0-3.931,1.677-4.08,3.798c-0.169-0.149-0.409-0.207-0.636-0.127
		c-0.333,0.117-0.509,0.483-0.392,0.816l0.007,0.019c-0.027-0.016-0.053-0.035-0.082-0.05c-0.802-0.432-1.67-0.046-2.235,0.669
		c-0.655,0.832-1.589,2.65-1.078,4.055C5.139,16.325,5.268,16.423,5.418,16.436L5.418,16.436z M5.418,16.436"/>
</g>
</svg>
