<?xml version="1.0" encoding="utf-8"?>
<!-- Generator: Adobe Illustrator 17.0.0, SVG Export Plug-In . SVG Version: 6.00 Build 0)  -->
<!DOCTYPE svg PUBLIC "-//W3C//DTD SVG 1.1//EN" "http://www.w3.org/Graphics/SVG/1.1/DTD/svg11.dtd">
<svg version="1.1" id="Layer_1" xmlns="http://www.w3.org/2000/svg" xmlns:xlink="http://www.w3.org/1999/xlink" x="0px" y="0px"
	 width="50px" height="50px" viewBox="0 0 50 50" enable-background="new 0 0 50 50" xml:space="preserve">
<g>
	<path fill="#FFFFFF" d="M41.952,30.543l5.292-15.831c0.264-0.759,0.064-1.217-0.15-1.518c-0.544-0.773-1.675-0.781-1.89-0.781
		l-29.893-0.007l-0.803-3.779c-0.215-0.896-0.85-1.749-2.134-1.749H3.976c-0.872,0-1.345,0.409-1.345,1.224v2.185
		c0,0.786,0.473,0.988,1.375,0.988H11.1l5.427,23.047c-0.867,0.916-1.333,2.249-1.333,3.486c0,2.737,2.177,5.257,4.956,5.257
		c2.627,0,4.595-2.463,4.91-3.924h10.576c0.315,1.461,1.912,3.981,4.912,3.981c2.727,0,4.954-2.37,4.954-5.097
		c0-2.714-1.655-5.119-4.927-5.119c-1.367,0-2.978,0.737-3.73,1.833H23.852c-0.939-1.468-2.227-1.919-3.53-1.97l-0.178-0.959h19.76
		C41.4,31.809,41.688,31.265,41.952,30.543L41.952,30.543z M40.584,36.106c1.025,0,1.862,0.83,1.862,1.86
		c0,1.032-0.838,1.862-1.862,1.862c-1.03,0-1.862-0.83-1.862-1.862C38.722,36.936,39.554,36.106,40.584,36.106L40.584,36.106z
		 M21.99,37.966c0,1.039-0.843,1.884-1.875,1.884c-1.045,0-1.89-0.845-1.89-1.884c0-1.037,0.845-1.882,1.89-1.882
		C21.147,36.083,21.99,36.928,21.99,37.966L21.99,37.966z M21.99,37.966"/>
</g>
</svg>
