<?xml version="1.0" encoding="utf-8"?>
<!-- Generator: Adobe Illustrator 19.1.0, SVG Export Plug-In . SVG Version: 6.00 Build 0)  -->
<svg version="1.1" id="Layer_1" xmlns="http://www.w3.org/2000/svg" xmlns:xlink="http://www.w3.org/1999/xlink" x="0px" y="0px"
	 viewBox="0 0 40 40" style="enable-background:new 0 0 40 40;" xml:space="preserve">
<style type="text/css">
	.st0{fill:#134632;}
</style>
<g>
	<g>
		<g>
			<path class="st0" d="M20,38.8c-10.5,0-18.9-8.4-18.9-18.9C1.2,9.6,9.6,1.2,20,1.2c10.4,0,18.8,8.2,18.9,18.7
				C38.9,30.4,30.6,38.8,20,38.8z M3.7,19.8c0,9.1,7.1,16.4,16.1,16.5c9,0.1,16.7-7.5,16.6-16.4c-0.1-9-7.4-16.1-16.5-16.1
				C11,3.7,3.8,10.9,3.7,19.8z"/>
		</g>
	</g>
	<g>
		<path class="st0" d="M15.3,28.1h3.6v-3.7h2.2v3.7h3.6V11.4h-9.5V28.1z M20.7,13.3h2.2v2.2h-2.2V13.3z M20.7,16.9h2.2V19h-2.2V16.9
			z M20.7,20.4h2.2v2.2h-2.2V20.4z M17.1,13.3h2.2v2.2h-2.2V13.3z M17.1,16.9h2.2V19h-2.2V16.9z M17.1,20.4h2.2v2.2h-2.2V20.4z
			 M17.1,20.4"/>
		<path class="st0" d="M25.6,12.9v11.8H27v3.4h3.3V12.9H25.6z M28.6,23.1h-2v-2h2V23.1z M28.6,19.8h-2v-2h2V19.8z M28.6,16.6h-2v-2
			h2V16.6z M28.6,16.6"/>
		<path class="st0" d="M9.7,28.1H13v-3.4h1.4V12.9H9.7V28.1z M11.4,14.6h2v2h-2V14.6z M11.4,17.9h2v2h-2V17.9z M11.4,21.1h2v2h-2
			V21.1z M11.4,21.1"/>
	</g>
</g>
</svg>
