<?xml version="1.0" encoding="utf-8"?>
<!-- Generator: Adobe Illustrator 19.1.0, SVG Export Plug-In . SVG Version: 6.00 Build 0)  -->
<svg version="1.1" id="Layer_1" xmlns="http://www.w3.org/2000/svg" xmlns:xlink="http://www.w3.org/1999/xlink" x="0px" y="0px"
	 viewBox="0 0 85 85" style="enable-background:new 0 0 85 85;" xml:space="preserve">
<style type="text/css">
	.st0{fill:#FCFCFC;}
</style>
<g>
	<g>
		<path class="st0" d="M42.5,1.3C19.8,1.3,1.3,19.8,1.3,42.5c0,22.7,18.5,41.2,41.2,41.2c22.7,0,41.2-18.5,41.2-41.2
			C83.7,19.8,65.2,1.3,42.5,1.3L42.5,1.3z M52.8,43.9H46v23.9h-9.9V43.9h-4.7v-8.4h4.7V30c0-3.9,1.9-10,10-10l7.4,0v8.2h-5.3
			c-0.9,0-2.1,0.4-2.1,2.3v5h7.6L52.8,43.9z M52.8,43.9"/>
	</g>
</g>
</svg>
