<?xml version="1.0" encoding="utf-8"?>
<!-- Generator: Adobe Illustrator 19.1.0, SVG Export Plug-In . SVG Version: 6.00 Build 0)  -->
<svg version="1.1" id="Layer_1" xmlns="http://www.w3.org/2000/svg" xmlns:xlink="http://www.w3.org/1999/xlink" x="0px" y="0px"
	 viewBox="0 0 210 158" style="enable-background:new 0 0 210 158;" xml:space="preserve">
<style type="text/css">
	.st0{fill:url(#SVGID_1_);}
	.st1{fill:url(#SVGID_2_);}
	.st2{fill:url(#SVGID_3_);}
	.st3{fill:url(#SVGID_4_);}
	.st4{fill:url(#SVGID_5_);}
	.st5{fill:url(#SVGID_6_);}
	.st6{fill:url(#SVGID_7_);}
	.st7{fill:url(#SVGID_8_);}
	.st8{fill:url(#SVGID_9_);}
	.st9{fill:url(#SVGID_10_);}
	.st10{fill:url(#SVGID_11_);}
	.st11{fill:url(#SVGID_12_);}
	.st12{fill:url(#SVGID_13_);}
	.st13{fill:url(#SVGID_14_);}
	.st14{fill:url(#SVGID_15_);}
</style>
<g>
	<g>
		<g>
			<linearGradient id="SVGID_1_" gradientUnits="userSpaceOnUse" x1="1.0527" y1="110.8593" x2="17.072" y2="110.8593">
				<stop  offset="0" style="stop-color:#F8C330"/>
				<stop  offset="4.043353e-002" style="stop-color:#F8C533"/>
				<stop  offset="7.842258e-002" style="stop-color:#F7CA3E"/>
				<stop  offset="0.1153" style="stop-color:#F7D350"/>
				<stop  offset="0.15" style="stop-color:#F7DF6A"/>
				<stop  offset="0.5" style="stop-color:#D28A2A"/>
				<stop  offset="0.5356" style="stop-color:#DF9F2B"/>
				<stop  offset="0.5888" style="stop-color:#EEB72D"/>
				<stop  offset="0.6431" style="stop-color:#F8C62E"/>
				<stop  offset="0.7" style="stop-color:#FBCB2E"/>
				<stop  offset="0.7072" style="stop-color:#FBCC33"/>
				<stop  offset="0.7506" style="stop-color:#F9D54A"/>
				<stop  offset="0.796" style="stop-color:#F8DA5C"/>
				<stop  offset="0.8442" style="stop-color:#F7DE66"/>
				<stop  offset="0.9" style="stop-color:#F7DF6A"/>
			</linearGradient>
			<path class="st0" d="M16.7,117.7c-0.4,0-0.5,0.4-0.5,0.6c-0.2,1.2-0.6,1.8-1.3,2.2c-0.8,0.4-2.1,0.4-2.8,0.4
				c-3.2,0-3.5-0.5-3.6-2.4c0-0.6,0-2.2,0-3.5c0-0.5,0-1,0-1.3v-2.4c0-0.1,0-0.1,0-0.1c0.8,0,3.8,0,4.4,0.1c1.2,0.1,1.5,0.6,1.6,1.1
				c0.1,0.3,0.1,0.6,0.1,0.8c0,0.1,0,0.2,0,0.3c0,0.3,0.2,0.5,0.5,0.5c0.5,0,0.5-0.5,0.5-0.8c0-0.1,0-0.6,0.1-1c0-0.4,0.1-0.8,0.1-1
				c0.1-1,0.2-1.6,0.2-1.9c0-0.2,0-0.3,0-0.3c0-0.3-0.1-0.4-0.4-0.4c-0.2,0-0.4,0.2-0.6,0.4l0,0c-0.2,0.3-0.7,0.3-1.4,0.4
				c-0.5,0-2.2,0.1-5,0.1c0,0,0,0,0,0c0,0,0-0.1,0-0.2v-7.8c0-0.1,0-0.1,0-0.1c0.6,0,3.9,0.1,4.4,0.1c1.5,0.2,1.8,0.5,1.9,1
				c0.1,0.3,0.2,0.8,0.2,1c0,0.4,0.2,0.6,0.5,0.6c0.3,0,0.4-0.2,0.5-0.5c0-0.2,0.1-0.9,0.1-1.4c0-0.3,0-0.5,0-0.6
				c0.1-0.9,0.2-1.4,0.2-1.7c0-0.1,0-0.2,0-0.3c0-0.4-0.2-0.5-0.4-0.5c-0.1,0-0.2,0-0.4,0.1c-0.1,0-0.1,0-0.2,0.1
				c-0.3,0.1-0.9,0.1-1.3,0.2c-0.5,0-5.6,0-7.7,0c-0.4,0-0.9,0-1.6,0l-0.4,0c-0.4,0-0.8,0-1.2,0c-0.4,0-0.9,0-1.3,0
				c-0.3,0-0.9,0-0.9,0.5c0,0.5,0.5,0.5,0.7,0.5c0.5,0,1,0,1.2,0.1c0.9,0.2,1.1,0.5,1.2,1.6c0.1,1,0.1,1.8,0.1,6.5v5.4
				c0,2.8,0,5.3-0.2,6.6c-0.1,1-0.3,1.5-0.8,1.6c-0.4,0.1-1.2,0.1-1.5,0.1c-0.4,0-0.7,0.1-0.7,0.4c0,0.3,0.3,0.5,0.8,0.5
				c0.3,0,0.6,0,1,0c0.4,0,0.8,0,1.1,0c0.7,0,1.9,0,2.2,0c0.9,0,1.8,0,3.2,0.1l0.9,0c1.2,0,2.6,0.1,4.5,0.1c1.2,0,1.6,0,1.8-0.9
				c0.2-0.6,0.4-2.7,0.4-3.5C17.1,118.2,17.1,117.7,16.7,117.7z"/>
			<linearGradient id="SVGID_2_" gradientUnits="userSpaceOnUse" x1="143.5661" y1="110.8593" x2="159.5855" y2="110.8593">
				<stop  offset="0" style="stop-color:#F8C330"/>
				<stop  offset="4.043353e-002" style="stop-color:#F8C533"/>
				<stop  offset="7.842258e-002" style="stop-color:#F7CA3E"/>
				<stop  offset="0.1153" style="stop-color:#F7D350"/>
				<stop  offset="0.15" style="stop-color:#F7DF6A"/>
				<stop  offset="0.5" style="stop-color:#D28A2A"/>
				<stop  offset="0.5356" style="stop-color:#DF9F2B"/>
				<stop  offset="0.5888" style="stop-color:#EEB72D"/>
				<stop  offset="0.6431" style="stop-color:#F8C62E"/>
				<stop  offset="0.7" style="stop-color:#FBCB2E"/>
				<stop  offset="0.7072" style="stop-color:#FBCC33"/>
				<stop  offset="0.7506" style="stop-color:#F9D54A"/>
				<stop  offset="0.796" style="stop-color:#F8DA5C"/>
				<stop  offset="0.8442" style="stop-color:#F7DE66"/>
				<stop  offset="0.9" style="stop-color:#F7DF6A"/>
			</linearGradient>
			<path class="st1" d="M159.2,117.7c-0.4,0-0.5,0.4-0.5,0.6c-0.2,1.2-0.6,1.8-1.3,2.2c-0.8,0.4-2.1,0.4-2.8,0.4
				c-3.2,0-3.5-0.5-3.6-2.4c0-0.6,0-2.2,0-3.5c0-0.5,0-1,0-1.3v-2.4c0-0.1,0-0.1,0-0.1c0.8,0,3.8,0,4.4,0.1c1.2,0.1,1.5,0.6,1.6,1.1
				c0.1,0.3,0.1,0.6,0.1,0.8c0,0.1,0,0.2,0,0.3c0,0.3,0.2,0.5,0.5,0.5c0.5,0,0.5-0.5,0.5-0.8c0-0.1,0-0.6,0.1-1c0-0.4,0.1-0.8,0.1-1
				c0.1-1,0.2-1.6,0.2-1.9c0-0.2,0-0.3,0-0.3c0-0.3-0.1-0.4-0.4-0.4c-0.2,0-0.4,0.2-0.6,0.4l0,0c-0.2,0.3-0.7,0.3-1.4,0.4
				c-0.5,0-2.2,0.1-5,0.1c0,0,0,0,0,0c0,0,0-0.1,0-0.2v-7.8c0-0.1,0-0.1,0-0.1c0.6,0,3.9,0.1,4.4,0.1c1.5,0.2,1.8,0.5,1.9,1
				c0.1,0.3,0.2,0.8,0.2,1c0,0.4,0.2,0.6,0.5,0.6c0.3,0,0.4-0.2,0.5-0.5c0-0.2,0.1-0.9,0.1-1.4c0-0.3,0-0.5,0-0.6
				c0.1-0.9,0.1-1.4,0.2-1.7c0-0.1,0-0.2,0-0.3c0-0.4-0.2-0.5-0.4-0.5c-0.1,0-0.2,0-0.4,0.1c-0.1,0-0.1,0-0.2,0.1
				c-0.3,0.1-0.9,0.1-1.3,0.2c-0.5,0-5.6,0-7.7,0c-0.4,0-0.9,0-1.6,0l-0.4,0c-0.4,0-0.8,0-1.2,0c-0.4,0-0.9,0-1.3,0
				c-0.3,0-0.9,0-0.9,0.5c0,0.5,0.5,0.5,0.7,0.5c0.5,0,1,0,1.2,0.1c0.9,0.2,1.1,0.5,1.2,1.6c0.1,1,0.1,1.8,0.1,6.5v5.4
				c0,2.8,0,5.3-0.2,6.6c-0.1,1-0.3,1.5-0.8,1.6c-0.4,0.1-1.2,0.1-1.5,0.1c-0.4,0-0.7,0.1-0.7,0.4c0,0.3,0.3,0.5,0.8,0.5
				c0.3,0,0.6,0,1,0c0.4,0,0.8,0,1.1,0c0.7,0,1.9,0,2.2,0c0.9,0,1.8,0,3.2,0.1l0.9,0c1.2,0,2.6,0.1,4.5,0.1c1.2,0,1.6,0,1.8-0.9
				c0.2-0.6,0.4-2.7,0.4-3.5C159.6,118.2,159.6,117.7,159.2,117.7z"/>
			<linearGradient id="SVGID_3_" gradientUnits="userSpaceOnUse" x1="164.4024" y1="110.8593" x2="180.4218" y2="110.8593">
				<stop  offset="0" style="stop-color:#F8C330"/>
				<stop  offset="4.043353e-002" style="stop-color:#F8C533"/>
				<stop  offset="7.842258e-002" style="stop-color:#F7CA3E"/>
				<stop  offset="0.1153" style="stop-color:#F7D350"/>
				<stop  offset="0.15" style="stop-color:#F7DF6A"/>
				<stop  offset="0.5" style="stop-color:#D28A2A"/>
				<stop  offset="0.5356" style="stop-color:#DF9F2B"/>
				<stop  offset="0.5888" style="stop-color:#EEB72D"/>
				<stop  offset="0.6431" style="stop-color:#F8C62E"/>
				<stop  offset="0.7" style="stop-color:#FBCB2E"/>
				<stop  offset="0.7072" style="stop-color:#FBCC33"/>
				<stop  offset="0.7506" style="stop-color:#F9D54A"/>
				<stop  offset="0.796" style="stop-color:#F8DA5C"/>
				<stop  offset="0.8442" style="stop-color:#F7DE66"/>
				<stop  offset="0.9" style="stop-color:#F7DF6A"/>
			</linearGradient>
			<path class="st2" d="M180,117.7c-0.4,0-0.5,0.4-0.5,0.6c-0.2,1.2-0.6,1.8-1.3,2.2c-0.8,0.4-2.1,0.4-2.8,0.4
				c-3.2,0-3.5-0.5-3.6-2.4c0-0.6,0-2.2,0-3.5c0-0.5,0-1,0-1.3v-2.4c0-0.1,0-0.1,0-0.1c0.8,0,3.8,0,4.4,0.1c1.2,0.1,1.5,0.6,1.6,1.1
				c0.1,0.3,0.1,0.6,0.1,0.8c0,0.1,0,0.2,0,0.3c0,0.3,0.2,0.5,0.5,0.5c0.5,0,0.5-0.5,0.5-0.8c0-0.1,0-0.6,0.1-1c0-0.4,0-0.8,0.1-1
				c0.1-1,0.2-1.6,0.2-1.9c0-0.2,0-0.3,0-0.3c0-0.3-0.1-0.4-0.4-0.4c-0.2,0-0.4,0.2-0.6,0.4l0,0c-0.2,0.3-0.7,0.3-1.4,0.4
				c-0.5,0-2.2,0.1-5,0.1c0,0,0,0,0,0c0,0,0-0.1,0-0.2v-7.8c0-0.1,0-0.1,0-0.1c0.6,0,3.9,0.1,4.4,0.1c1.5,0.2,1.8,0.5,1.9,1
				c0.1,0.3,0.2,0.8,0.2,1c0,0.4,0.2,0.6,0.5,0.6c0.3,0,0.4-0.2,0.5-0.5c0-0.2,0.1-0.9,0.1-1.4c0-0.3,0-0.5,0-0.6
				c0.1-0.9,0.1-1.4,0.2-1.7c0-0.1,0-0.2,0-0.3c0-0.4-0.2-0.5-0.4-0.5c-0.1,0-0.2,0-0.4,0.1c-0.1,0-0.1,0-0.2,0.1
				c-0.3,0.1-0.9,0.1-1.3,0.2c-0.5,0-5.6,0-7.7,0c-0.4,0-0.9,0-1.6,0l-0.4,0c-0.4,0-0.8,0-1.2,0c-0.4,0-0.9,0-1.3,0
				c-0.3,0-0.9,0-0.9,0.5c0,0.5,0.5,0.5,0.7,0.5c0.5,0,1,0,1.2,0.1c0.9,0.2,1.1,0.5,1.2,1.6c0.1,1,0.1,1.8,0.1,6.5v5.4
				c0,2.8,0,5.3-0.2,6.6c-0.1,1-0.3,1.5-0.8,1.6c-0.4,0.1-1.2,0.1-1.5,0.1c-0.4,0-0.7,0.1-0.7,0.4c0,0.3,0.3,0.5,0.8,0.5
				c0.3,0,0.6,0,1,0c0.4,0,0.8,0,1.1,0c0.7,0,1.9,0,2.2,0c0.9,0,1.8,0,3.2,0.1l0.9,0c1.2,0,2.6,0.1,4.5,0.1c1.2,0,1.6,0,1.8-0.9
				c0.2-0.6,0.4-2.7,0.4-3.5C180.4,118.2,180.4,117.7,180,117.7z"/>
			<linearGradient id="SVGID_4_" gradientUnits="userSpaceOnUse" x1="21.7056" y1="110.9102" x2="43.3954" y2="110.9102">
				<stop  offset="0" style="stop-color:#F8C330"/>
				<stop  offset="4.043353e-002" style="stop-color:#F8C533"/>
				<stop  offset="7.842258e-002" style="stop-color:#F7CA3E"/>
				<stop  offset="0.1153" style="stop-color:#F7D350"/>
				<stop  offset="0.15" style="stop-color:#F7DF6A"/>
				<stop  offset="0.5" style="stop-color:#D28A2A"/>
				<stop  offset="0.5356" style="stop-color:#DF9F2B"/>
				<stop  offset="0.5888" style="stop-color:#EEB72D"/>
				<stop  offset="0.6431" style="stop-color:#F8C62E"/>
				<stop  offset="0.7" style="stop-color:#FBCB2E"/>
				<stop  offset="0.7072" style="stop-color:#FBCC33"/>
				<stop  offset="0.7506" style="stop-color:#F9D54A"/>
				<stop  offset="0.796" style="stop-color:#F8DA5C"/>
				<stop  offset="0.8442" style="stop-color:#F7DE66"/>
				<stop  offset="0.9" style="stop-color:#F7DF6A"/>
			</linearGradient>
			<path class="st3" d="M42.9,116.5c-0.4,0-0.5,0.3-0.6,0.7c-0.1,0.5-0.5,1.4-1,1.9c-1.2,1.4-2.9,1.6-5.5,1.6
				c-6.5,0-9.5-6.3-9.5-10.5c0-3.5,0.9-6,2.8-7.7c1.4-1.2,3.2-1.8,5.7-1.8c2.6,0,5.1,0.7,6.1,1.8c0.7,0.7,1.1,1.7,1.1,2.7
				c0,0.2,0,0.8,0.5,0.8c0.5,0,0.5-0.5,0.5-0.8c0-0.3,0-0.9,0-1.5c0-0.6,0-1.2,0-1.7c0-0.6,0.1-1,0.1-1.3c0-0.2,0-0.3,0-0.4
				c0-0.1-0.1-0.5-0.6-0.5c-0.5,0-1-0.1-1.5-0.2c-0.5-0.1-1-0.2-1.6-0.3c-1.3-0.2-2.5-0.3-4.5-0.3c-4.2,0-7.4,1-9.8,3.2
				c-3.4,3-3.7,7.2-3.7,8.4c0,3.8,1.3,6.8,3.9,9c2.7,2.3,6,3.3,10.6,3.3c1.8,0,4.3-0.2,5.6-0.7c0.6-0.2,0.7-0.4,0.9-1
				c0.3-1,0.7-3.6,0.7-4.1C43.4,116.6,43.1,116.5,42.9,116.5z"/>
			<linearGradient id="SVGID_5_" gradientUnits="userSpaceOnUse" x1="47.5349" y1="110.9102" x2="72.9722" y2="110.9102">
				<stop  offset="0" style="stop-color:#F8C330"/>
				<stop  offset="4.043353e-002" style="stop-color:#F8C533"/>
				<stop  offset="7.842258e-002" style="stop-color:#F7CA3E"/>
				<stop  offset="0.1153" style="stop-color:#F7D350"/>
				<stop  offset="0.15" style="stop-color:#F7DF6A"/>
				<stop  offset="0.5" style="stop-color:#D28A2A"/>
				<stop  offset="0.5356" style="stop-color:#DF9F2B"/>
				<stop  offset="0.5888" style="stop-color:#EEB72D"/>
				<stop  offset="0.6431" style="stop-color:#F8C62E"/>
				<stop  offset="0.7" style="stop-color:#FBCB2E"/>
				<stop  offset="0.7072" style="stop-color:#FBCC33"/>
				<stop  offset="0.7506" style="stop-color:#F9D54A"/>
				<stop  offset="0.796" style="stop-color:#F8DA5C"/>
				<stop  offset="0.8442" style="stop-color:#F7DE66"/>
				<stop  offset="0.9" style="stop-color:#F7DF6A"/>
			</linearGradient>
			<path class="st4" d="M60.4,98.9c-8.8,0-12.9,6.2-12.9,12c0,5.8,3.9,12,12.6,12c7.6,0,12.9-5.1,12.9-12.5
				C73,103.3,68.2,98.9,60.4,98.9z M61.4,121c-5.5,0-9.3-4.5-9.3-11.1c0-8,4.6-9.2,7.4-9.2c5.2,0,8.8,4.4,8.8,10.8
				C68.3,120.1,63.5,121,61.4,121z"/>
			<linearGradient id="SVGID_6_" gradientUnits="userSpaceOnUse" x1="89.1786" y1="110.9102" x2="113.9384" y2="110.9102">
				<stop  offset="0" style="stop-color:#F8C330"/>
				<stop  offset="4.043353e-002" style="stop-color:#F8C533"/>
				<stop  offset="7.842258e-002" style="stop-color:#F7CA3E"/>
				<stop  offset="0.1153" style="stop-color:#F7D350"/>
				<stop  offset="0.15" style="stop-color:#F7DF6A"/>
				<stop  offset="0.5" style="stop-color:#D28A2A"/>
				<stop  offset="0.5356" style="stop-color:#DF9F2B"/>
				<stop  offset="0.5888" style="stop-color:#EEB72D"/>
				<stop  offset="0.6431" style="stop-color:#F8C62E"/>
				<stop  offset="0.7" style="stop-color:#FBCB2E"/>
				<stop  offset="0.7072" style="stop-color:#FBCC33"/>
				<stop  offset="0.7506" style="stop-color:#F9D54A"/>
				<stop  offset="0.796" style="stop-color:#F8DA5C"/>
				<stop  offset="0.8442" style="stop-color:#F7DE66"/>
				<stop  offset="0.9" style="stop-color:#F7DF6A"/>
			</linearGradient>
			<path class="st5" d="M113.2,110.8c-0.5,0-1.2,0-1.9,0c-0.7,0-1.3,0-1.7,0c-0.4,0-1,0-1.6,0c-0.9,0-1.9-0.1-2.8-0.1
				c-0.3,0-0.8,0-0.8,0.5c0,0.2,0.1,0.4,0.6,0.4c0.5,0,1,0,1.2,0.1c0.9,0.2,1.2,0.5,1.2,1.6c0,0.9,0,2.1,0,3.5v2.8
				c0,0.5-0.1,0.8-0.5,1c-0.7,0.3-1.8,0.3-2.5,0.3c-6.2,0-10.5-4.6-10.5-11.1c0-3.3,0.9-5.7,2.8-7.2c2-1.6,4-1.8,6-1.8
				c3.6,0,6,1.5,6.7,2.3c0.8,0.8,0.9,1.8,1,2.4c0,0.1,0.1,0.5,0.5,0.5c0.5,0,0.5-0.5,0.5-0.8c0-2.9,0.1-4,0.2-4.6c0-0.2,0-0.3,0-0.4
				c0-0.3-0.2-0.5-0.6-0.5c-0.8,0-1.9-0.2-2.4-0.3c-0.7-0.1-3.4-0.5-5.5-0.5c-2.4,0-5.3,0.2-8.4,2c-3.4,2-5.4,5.7-5.4,10
				c0,8.8,7.4,12,14.4,12c1.4,0,5.1-0.1,7.5-1.4c0.5-0.3,0.5-0.4,0.5-1.2V117c0-1.5,0-2.7,0-3.6c0-1,0.3-1.4,1-1.6
				c0.4-0.1,0.6-0.1,0.8-0.1c0.5,0,0.6-0.3,0.6-0.4C113.9,110.8,113.4,110.8,113.2,110.8z"/>
			<linearGradient id="SVGID_7_" gradientUnits="userSpaceOnUse" x1="117.853" y1="110.981" x2="142.8652" y2="110.981">
				<stop  offset="0" style="stop-color:#F8C330"/>
				<stop  offset="4.043353e-002" style="stop-color:#F8C533"/>
				<stop  offset="7.842258e-002" style="stop-color:#F7CA3E"/>
				<stop  offset="0.1153" style="stop-color:#F7D350"/>
				<stop  offset="0.15" style="stop-color:#F7DF6A"/>
				<stop  offset="0.5" style="stop-color:#D28A2A"/>
				<stop  offset="0.5356" style="stop-color:#DF9F2B"/>
				<stop  offset="0.5888" style="stop-color:#EEB72D"/>
				<stop  offset="0.6431" style="stop-color:#F8C62E"/>
				<stop  offset="0.7" style="stop-color:#FBCB2E"/>
				<stop  offset="0.7072" style="stop-color:#FBCC33"/>
				<stop  offset="0.7506" style="stop-color:#F9D54A"/>
				<stop  offset="0.796" style="stop-color:#F8DA5C"/>
				<stop  offset="0.8442" style="stop-color:#F7DE66"/>
				<stop  offset="0.9" style="stop-color:#F7DF6A"/>
			</linearGradient>
			<path class="st6" d="M142.3,122c-0.2,0-0.5,0-0.9-0.1c-0.5-0.1-1.7-0.3-3.4-2.1c-1.6-1.7-3.4-3.9-5.7-6.8l-1-1.2
				c2.8-2.3,4.1-4.4,4.1-7c0-2.3-1.4-3.9-2.2-4.4c-1.8-1.2-4-1.4-5.9-1.4c-0.5,0-1.3,0-2.1,0c-0.9,0-1.8,0-2.3,0c-0.3,0-0.7,0-1.2,0
				c-0.9,0-2-0.1-3-0.1c-0.3,0-0.9,0-0.9,0.5s0.5,0.5,0.7,0.5c0.5,0,1,0,1.2,0.1c0.9,0.2,1.1,0.5,1.2,1.6c0.1,1,0.1,1.8,0.1,6.6v5.5
				c0,2.8,0,5.3-0.2,6.6c-0.1,1-0.3,1.5-0.8,1.6c-0.4,0.1-0.7,0.1-1.1,0.1c-0.4,0-0.7,0.1-0.7,0.4c0,0.3,0.3,0.5,0.8,0.5
				c0.7,0,1.7,0,2.5-0.1c0.6,0,1,0,1.3,0c0.2,0,0.5,0,1,0c0.9,0,2.4,0.1,3.6,0.1c0.5,0,0.8-0.2,0.8-0.5c0-0.2-0.1-0.4-0.6-0.4
				c-0.4,0-1.1-0.1-1.5-0.1c-0.8-0.1-1-0.6-1.1-1.6c-0.2-1.3-0.2-3.8-0.2-6.6v-0.4c0,0,0-0.1,0-0.1c0,0,0,0,0.1,0l2.7,0.1
				c0.2,0,0.3,0,0.4,0.2c0.2,0.3,0.8,1.1,1.5,2c0.5,0.7,1.1,1.5,1.6,2.2c1.8,2.5,3,3.9,4.3,4.6c0.9,0.5,1.7,0.6,3.4,0.6h3
				c0.2,0,0.8,0,0.8-0.5C142.9,122.2,142.7,122,142.3,122z M131.4,106.4c0,2.8-1.1,4-1.8,4.5c-0.5,0.4-0.9,0.5-2.1,0.5
				c-0.9,0-1.8-0.1-2.3-0.3c-0.1-0.1-0.2-0.1-0.2-0.4v-9.4c0-0.2,0-0.2,0.2-0.3c0.3-0.1,0.8-0.1,1.6-0.1
				C128.5,100.9,131.4,102.1,131.4,106.4z"/>
			<linearGradient id="SVGID_8_" gradientUnits="userSpaceOnUse" x1="182.7748" y1="110.9338" x2="208.9473" y2="110.9338">
				<stop  offset="0" style="stop-color:#F8C330"/>
				<stop  offset="4.043353e-002" style="stop-color:#F8C533"/>
				<stop  offset="7.842258e-002" style="stop-color:#F7CA3E"/>
				<stop  offset="0.1153" style="stop-color:#F7D350"/>
				<stop  offset="0.15" style="stop-color:#F7DF6A"/>
				<stop  offset="0.5" style="stop-color:#D28A2A"/>
				<stop  offset="0.5356" style="stop-color:#DF9F2B"/>
				<stop  offset="0.5888" style="stop-color:#EEB72D"/>
				<stop  offset="0.6431" style="stop-color:#F8C62E"/>
				<stop  offset="0.7" style="stop-color:#FBCB2E"/>
				<stop  offset="0.7072" style="stop-color:#FBCC33"/>
				<stop  offset="0.7506" style="stop-color:#F9D54A"/>
				<stop  offset="0.796" style="stop-color:#F8DA5C"/>
				<stop  offset="0.8442" style="stop-color:#F7DE66"/>
				<stop  offset="0.9" style="stop-color:#F7DF6A"/>
			</linearGradient>
			<path class="st7" d="M208.1,98.9c-1,0-1.9,0-2.5,0.1c-0.3,0-0.5,0-0.6,0c-0.3,0-0.6,0-1.1,0c-0.7,0-1.7-0.1-2.6-0.1
				c-0.4,0-1,0-1,0.4c0,0.4,0.5,0.4,0.7,0.4c0.4,0,1.1,0,1.6,0.2c0.6,0.3,0.9,0.7,0.9,2.6l0.3,13.7c-0.3-0.3-1.1-1.1-2.1-2.1
				c-1.5-1.5-3.3-3.4-4.5-4.6c-4.5-4.4-9.2-9.3-9.5-9.6c-0.1-0.1-0.2-0.2-0.3-0.3c-0.4-0.4-0.6-0.7-1-0.7c-0.6,0-0.6,0.9-0.6,1.2
				l-0.3,18.2c0,2.5-0.1,3.4-0.8,3.6c-0.4,0.1-1,0.1-1.3,0.1c-0.4,0-0.7,0.1-0.7,0.4c0,0.5,0.5,0.5,0.8,0.5c1.1,0,2.2,0,2.8-0.1
				c0.3,0,0.4,0,0.5,0c0.2,0,0.5,0,0.9,0c0.7,0,1.7,0.1,3,0.1c0.3,0,0.9,0,0.9-0.5c0-0.4-0.5-0.4-0.7-0.4c-0.4,0-1,0-1.5-0.2
				c-0.4-0.1-0.9-0.6-1-3.2l-0.3-12.7c0.1,0.1,0.2,0.2,0.3,0.4c1.2,1.3,4,4.2,6.8,6.9c1.3,1.3,2.7,2.7,4.1,4c2,1.9,3.8,3.8,5,4.8
				c0.4,0.4,0.8,0.7,1.2,0.7c0.6,0,0.6-0.8,0.6-1.1l0.3-19.4c0-1.6,0.3-2.2,1-2.4c0.3-0.1,0.6-0.1,0.9-0.1c0.6,0,0.7-0.2,0.7-0.4
				C208.9,98.9,208.4,98.9,208.1,98.9z"/>
		</g>
	</g>
	<g>
		<linearGradient id="SVGID_9_" gradientUnits="userSpaceOnUse" x1="33.2182" y1="281.5597" x2="183.1641" y2="131.6139">
			<stop  offset="0" style="stop-color:#F8C330"/>
			<stop  offset="4.043353e-002" style="stop-color:#F8C533"/>
			<stop  offset="7.842258e-002" style="stop-color:#F7CA3E"/>
			<stop  offset="0.1153" style="stop-color:#F7D350"/>
			<stop  offset="0.15" style="stop-color:#F7DF6A"/>
			<stop  offset="0.5" style="stop-color:#D28A2A"/>
			<stop  offset="0.5356" style="stop-color:#DF9F2B"/>
			<stop  offset="0.5888" style="stop-color:#EEB72D"/>
			<stop  offset="0.6431" style="stop-color:#F8C62E"/>
			<stop  offset="0.7" style="stop-color:#FBCB2E"/>
			<stop  offset="0.7072" style="stop-color:#FBCC33"/>
			<stop  offset="0.7506" style="stop-color:#F9D54A"/>
			<stop  offset="0.796" style="stop-color:#F8DA5C"/>
			<stop  offset="0.8442" style="stop-color:#F7DE66"/>
			<stop  offset="0.9" style="stop-color:#F7DF6A"/>
		</linearGradient>
		<path class="st8" d="M184.1,130.9c-1,0-1.9,0-2.5,0.1c-0.3,0-0.5,0-0.6,0c-0.2,0-0.6,0-1.1,0c-0.7,0-1.7-0.1-2.6-0.1
			c-0.4,0-1,0-1,0.4c0,0.4,0.5,0.4,0.7,0.4c0.4,0,1.1,0,1.6,0.2c0.6,0.3,0.9,0.7,0.9,2.6l0.3,13.7c-0.3-0.3-1.1-1.1-2.1-2.1
			c-1.5-1.5-3.3-3.4-4.5-4.6c-4.5-4.4-9.2-9.3-9.5-9.6c-0.1-0.1-0.2-0.2-0.3-0.3c-0.4-0.4-0.6-0.7-1-0.7c-0.6,0-0.6,0.9-0.6,1.2
			l-0.3,18.2c0,2.5-0.1,3.4-0.8,3.6c-0.4,0.1-1,0.1-1.3,0.1c-0.4,0-0.7,0.1-0.7,0.4c0,0.5,0.5,0.5,0.8,0.5c1.1,0,2.2,0,2.8-0.1
			c0.3,0,0.4,0,0.5,0c0.2,0,0.5,0,0.8,0c0.7,0,1.7,0.1,3,0.1c0.3,0,0.9,0,0.9-0.5c0-0.4-0.5-0.4-0.7-0.4c-0.4,0-1,0-1.5-0.2
			c-0.4-0.1-0.9-0.6-1-3.2l-0.3-12.7c0.1,0.1,0.2,0.2,0.3,0.3c1.2,1.3,4,4.2,6.8,6.9c1.3,1.3,2.7,2.7,4.1,4c2,1.9,3.8,3.8,5,4.8
			c0.4,0.4,0.8,0.7,1.2,0.7c0.6,0,0.6-0.8,0.6-1.1l0.3-19.4c0-1.6,0.3-2.2,1-2.4c0.4-0.1,0.6-0.1,0.9-0.1c0.6,0,0.7-0.2,0.7-0.4
			C185,130.9,184.4,130.9,184.1,130.9z"/>
		<linearGradient id="SVGID_10_" gradientUnits="userSpaceOnUse" x1="24.3615" y1="151.6935" x2="208.2497" y2="-32.1946">
			<stop  offset="0" style="stop-color:#F8C330"/>
			<stop  offset="4.043353e-002" style="stop-color:#F8C533"/>
			<stop  offset="7.842258e-002" style="stop-color:#F7CA3E"/>
			<stop  offset="0.1153" style="stop-color:#F7D350"/>
			<stop  offset="0.15" style="stop-color:#F7DF6A"/>
			<stop  offset="0.5" style="stop-color:#D28A2A"/>
			<stop  offset="0.5356" style="stop-color:#DF9F2B"/>
			<stop  offset="0.5888" style="stop-color:#EEB72D"/>
			<stop  offset="0.6431" style="stop-color:#F8C62E"/>
			<stop  offset="0.7" style="stop-color:#FBCB2E"/>
			<stop  offset="0.7072" style="stop-color:#FBCC33"/>
			<stop  offset="0.7506" style="stop-color:#F9D54A"/>
			<stop  offset="0.796" style="stop-color:#F8DA5C"/>
			<stop  offset="0.8442" style="stop-color:#F7DE66"/>
			<stop  offset="0.9" style="stop-color:#F7DF6A"/>
		</linearGradient>
		<path class="st9" d="M34.8,140.4l-1-0.6c-2.9-1.8-3.8-2.8-3.8-4.2c0-1.8,1.6-2.9,4.2-2.9c2.2,0,3.3,0.8,3.9,1.4
			c0.8,0.8,0.9,1.7,0.9,1.9c0,0.6,0.3,0.7,0.6,0.7c0.6,0,0.6-0.7,0.6-1.1c0-1.7,0.1-2.6,0.1-3.1c0-0.2,0-0.4,0-0.5
			c0-0.4-0.5-0.5-0.7-0.5c-1.1-0.2-2.7-0.5-5-0.5c-5.2,0-8.7,2.4-8.7,5.9c0,2.6,1.7,4.8,5.6,7.3l1.7,1.1c3,1.9,3.5,3.2,3.5,4.7
			c0,1.6-1.7,3.3-4.7,3.3c-1.5,0-4.2-0.4-5.1-2.9c-0.2-0.5-0.3-1.1-0.3-1.5c0-0.5-0.2-0.7-0.6-0.7c-0.6,0-0.6,0.7-0.6,0.9l0,0.1
			c0,0.6-0.2,2.3-0.2,3.9c0,0.7,0.2,0.9,0.8,1.2c1.6,0.6,3.2,0.8,5.5,0.8c2.4,0,4.4-0.4,6-1.3c3.1-1.6,3.6-4.1,3.6-5.4
			C40.9,145.3,39.2,143.2,34.8,140.4z"/>
		<linearGradient id="SVGID_11_" gradientUnits="userSpaceOnUse" x1="-8.5061" y1="232.8692" x2="245.4743" y2="-21.1112">
			<stop  offset="0" style="stop-color:#F8C330"/>
			<stop  offset="4.043353e-002" style="stop-color:#F8C533"/>
			<stop  offset="7.842258e-002" style="stop-color:#F7CA3E"/>
			<stop  offset="0.1153" style="stop-color:#F7D350"/>
			<stop  offset="0.15" style="stop-color:#F7DF6A"/>
			<stop  offset="0.5" style="stop-color:#D28A2A"/>
			<stop  offset="0.5356" style="stop-color:#DF9F2B"/>
			<stop  offset="0.5888" style="stop-color:#EEB72D"/>
			<stop  offset="0.6431" style="stop-color:#F8C62E"/>
			<stop  offset="0.7" style="stop-color:#FBCB2E"/>
			<stop  offset="0.7072" style="stop-color:#FBCC33"/>
			<stop  offset="0.7506" style="stop-color:#F9D54A"/>
			<stop  offset="0.796" style="stop-color:#F8DA5C"/>
			<stop  offset="0.8442" style="stop-color:#F7DE66"/>
			<stop  offset="0.9" style="stop-color:#F7DF6A"/>
		</linearGradient>
		<path class="st10" d="M86,154c-0.5,0-1.1-0.1-1.5-0.1c-0.8-0.1-1-0.6-1.1-1.4c-0.1-1.3-0.1-3.8-0.1-6.9v-5.5c0-4.8,0-5.7,0.1-6.7
			c0.1-1.1,0.3-1.5,1-1.6c0.4-0.1,0.6-0.1,0.9-0.1c0.2,0,0.7,0,0.7-0.5c0-0.4-0.6-0.4-0.8-0.4c-0.6,0-1.5,0-2.2,0.1
			c-0.6,0-1.2,0-1.5,0c-0.4,0-1.1,0-1.7,0c-0.8,0-1.6-0.1-2.3-0.1c-0.3,0-0.9,0-0.9,0.4c0,0.5,0.5,0.5,0.7,0.5c0.4,0,0.8,0,1.1,0.1
			c0.6,0.1,0.9,0.6,0.9,1.6c0.1,1,0.1,1.9,0.1,6.7v5.5c0,3.1,0,5.5-0.2,6.8c-0.1,1-0.3,1.3-0.8,1.4c-0.4,0.1-0.7,0.1-1.1,0.1
			c-0.4,0-0.7,0.1-0.7,0.4c0,0.3,0.3,0.5,0.8,0.5c0.7,0,1.6,0,2.4-0.1c0.6,0,1.1,0,1.4,0c0.3,0,0.8,0,1.4,0c1,0,2.1,0.1,3.4,0.1
			c0.7,0,0.8-0.3,0.8-0.5C86.6,154.3,86.5,154,86,154z"/>
		<linearGradient id="SVGID_12_" gradientUnits="userSpaceOnUse" x1="46.4587" y1="207.2828" x2="168.1282" y2="85.6133">
			<stop  offset="0" style="stop-color:#F8C330"/>
			<stop  offset="4.043353e-002" style="stop-color:#F8C533"/>
			<stop  offset="7.842258e-002" style="stop-color:#F7CA3E"/>
			<stop  offset="0.1153" style="stop-color:#F7D350"/>
			<stop  offset="0.15" style="stop-color:#F7DF6A"/>
			<stop  offset="0.5" style="stop-color:#D28A2A"/>
			<stop  offset="0.5356" style="stop-color:#DF9F2B"/>
			<stop  offset="0.5888" style="stop-color:#EEB72D"/>
			<stop  offset="0.6431" style="stop-color:#F8C62E"/>
			<stop  offset="0.7" style="stop-color:#FBCB2E"/>
			<stop  offset="0.7072" style="stop-color:#FBCC33"/>
			<stop  offset="0.7506" style="stop-color:#F9D54A"/>
			<stop  offset="0.796" style="stop-color:#F8DA5C"/>
			<stop  offset="0.8442" style="stop-color:#F7DE66"/>
			<stop  offset="0.9" style="stop-color:#F7DF6A"/>
		</linearGradient>
		<path class="st11" d="M121.1,142.8c-0.5,0-1.2,0-1.9,0c-0.7,0-1.3,0-1.7,0c-0.4,0-1,0-1.6,0c-0.9,0-1.9-0.1-2.8-0.1
			c-0.3,0-0.8,0-0.8,0.5c0,0.2,0.1,0.4,0.6,0.4c0.5,0,1,0,1.2,0.1c0.9,0.2,1.2,0.5,1.2,1.6c0,0.9,0,2.1,0,3.5v2.8
			c0,0.5-0.1,0.8-0.5,1c-0.7,0.3-1.8,0.3-2.5,0.3c-6.2,0-10.5-4.6-10.5-11.1c0-3.3,0.9-5.7,2.8-7.2c2-1.6,4-1.8,6-1.8
			c3.6,0,6,1.5,6.7,2.3c0.8,0.8,0.9,1.8,1,2.4c0,0.1,0.1,0.5,0.5,0.5c0.5,0,0.5-0.5,0.5-0.8c0-2.9,0.1-4,0.2-4.6c0-0.2,0-0.3,0-0.4
			c0-0.3-0.2-0.5-0.6-0.5c-0.8,0-1.9-0.2-2.4-0.3c-0.7-0.1-3.4-0.5-5.5-0.5c-2.4,0-5.3,0.2-8.3,2c-3.4,2-5.4,5.7-5.4,10
			c0,8.8,7.4,12,14.4,12c1.4,0,5.1-0.1,7.5-1.4c0.5-0.3,0.5-0.4,0.5-1.2v-3.3c0-1.5,0-2.7,0-3.6c0-1,0.3-1.4,1-1.6
			c0.4-0.1,0.6-0.1,0.8-0.1c0.5,0,0.6-0.3,0.6-0.4C121.9,142.8,121.3,142.8,121.1,142.8z"/>
		<linearGradient id="SVGID_13_" gradientUnits="userSpaceOnUse" x1="58.9286" y1="224.2044" x2="171.2126" y2="111.9204">
			<stop  offset="0" style="stop-color:#F8C330"/>
			<stop  offset="4.043353e-002" style="stop-color:#F8C533"/>
			<stop  offset="7.842258e-002" style="stop-color:#F7CA3E"/>
			<stop  offset="0.1153" style="stop-color:#F7D350"/>
			<stop  offset="0.15" style="stop-color:#F7DF6A"/>
			<stop  offset="0.5" style="stop-color:#D28A2A"/>
			<stop  offset="0.5356" style="stop-color:#DF9F2B"/>
			<stop  offset="0.5888" style="stop-color:#EEB72D"/>
			<stop  offset="0.6431" style="stop-color:#F8C62E"/>
			<stop  offset="0.7" style="stop-color:#FBCB2E"/>
			<stop  offset="0.7072" style="stop-color:#FBCC33"/>
			<stop  offset="0.7506" style="stop-color:#F9D54A"/>
			<stop  offset="0.796" style="stop-color:#F8DA5C"/>
			<stop  offset="0.8442" style="stop-color:#F7DE66"/>
			<stop  offset="0.9" style="stop-color:#F7DF6A"/>
		</linearGradient>
		<path class="st12" d="M140.5,130.9c-8.8,0-12.9,6.2-12.9,12c0,5.8,3.9,12,12.5,12c7.6,0,12.9-5.1,12.9-12.5
			C153,135.3,148.2,130.9,140.5,130.9z M141.4,153c-5.5,0-9.3-4.5-9.3-11.1c0-8,4.6-9.2,7.4-9.2c5.2,0,8.8,4.4,8.8,10.8
			C148.4,152.1,143.5,153,141.4,153z"/>
		<linearGradient id="SVGID_14_" gradientUnits="userSpaceOnUse" x1="34.8174" y1="172.1165" x2="147.4494" y2="59.4846">
			<stop  offset="0" style="stop-color:#F8C330"/>
			<stop  offset="4.043353e-002" style="stop-color:#F8C533"/>
			<stop  offset="7.842258e-002" style="stop-color:#F7CA3E"/>
			<stop  offset="0.1153" style="stop-color:#F7D350"/>
			<stop  offset="0.15" style="stop-color:#F7DF6A"/>
			<stop  offset="0.5" style="stop-color:#D28A2A"/>
			<stop  offset="0.5356" style="stop-color:#DF9F2B"/>
			<stop  offset="0.5888" style="stop-color:#EEB72D"/>
			<stop  offset="0.6431" style="stop-color:#F8C62E"/>
			<stop  offset="0.7" style="stop-color:#FBCB2E"/>
			<stop  offset="0.7072" style="stop-color:#FBCC33"/>
			<stop  offset="0.7506" style="stop-color:#F9D54A"/>
			<stop  offset="0.796" style="stop-color:#F8DA5C"/>
			<stop  offset="0.8442" style="stop-color:#F7DE66"/>
			<stop  offset="0.9" style="stop-color:#F7DF6A"/>
		</linearGradient>
		<path class="st13" d="M70.3,153.9c-0.3,0-0.8,0-1.3-0.1c-0.7-0.2-1.5-0.7-2.6-3.2c-1.1-2.5-3-7.2-4.7-11.4
			c-1.4-3.4-2.6-6.4-2.9-7.2c-0.3-0.7-0.5-1.1-0.9-1.1c-0.4,0-0.7,0.5-1,1.3l-7.7,18.9c-0.7,1.6-1.2,2.5-2.5,2.6
			c-0.2,0-0.7,0.1-0.9,0.1c-0.4,0-0.5,0.1-0.5,0.4c0,0.5,0.5,0.5,0.8,0.5c1.1,0,2.2,0,3-0.1c0.3,0,0.6,0,0.7,0c0.5,0,1,0,1.6,0
			c0.6,0,1.2,0,1.7,0c0.2,0,0.7,0,0.7-0.5c0-0.4-0.4-0.4-0.6-0.4h-0.5c-0.9,0-1.1-0.4-1.1-0.8c0-0.3,0.1-1,0.5-1.8l5.3-13.7
			c0,0,0,0,0,0l6,15.8c0,0.1,0.1,0.2,0,0.3c0,0.1-0.1,0.1-0.1,0.2c-0.2,0-0.6,0.1-0.6,0.4c0,0.4,0.4,0.4,1,0.4l0.1,0
			c2.5,0.1,4.7,0.1,5.8,0.1c1,0,1.6,0,1.6-0.5C70.8,153.9,70.4,153.9,70.3,153.9z"/>
	</g>
	<linearGradient id="SVGID_15_" gradientUnits="userSpaceOnUse" x1="60.6911" y1="95.8686" x2="144.1275" y2="12.4323">
		<stop  offset="0" style="stop-color:#F8C330"/>
		<stop  offset="4.043353e-002" style="stop-color:#F8C533"/>
		<stop  offset="7.842258e-002" style="stop-color:#F7CA3E"/>
		<stop  offset="0.1153" style="stop-color:#F7D350"/>
		<stop  offset="0.15" style="stop-color:#F7DF6A"/>
		<stop  offset="0.5" style="stop-color:#D28A2A"/>
		<stop  offset="0.5356" style="stop-color:#DF9F2B"/>
		<stop  offset="0.5888" style="stop-color:#EEB72D"/>
		<stop  offset="0.6431" style="stop-color:#F8C62E"/>
		<stop  offset="0.7" style="stop-color:#FBCB2E"/>
		<stop  offset="0.7072" style="stop-color:#FBCC33"/>
		<stop  offset="0.7506" style="stop-color:#F9D54A"/>
		<stop  offset="0.796" style="stop-color:#F8DA5C"/>
		<stop  offset="0.8442" style="stop-color:#F7DE66"/>
		<stop  offset="0.9" style="stop-color:#F7DF6A"/>
	</linearGradient>
	<path class="st14" d="M160.8,70.2c-0.2-0.2-0.4-0.3-0.7-0.2c-0.6,0-7.2,0.3-17,0.7V51.3c0-0.2,0.2-3.7,4.3-4.9
		c1.8-0.6,2.6-1.7,2.8-2.5c0.5-1.4,0-3-0.7-4c2.2-2.5,3.3-6,3.2-8.9c-0.2-5.7-4.1-9.3-6.4-11.4c-0.7-0.7-2-1.1-3.2-0.6
		c-0.8,0.4-1.8,1.3-1.8,3.8V35c-2-1-3.5-2.3-3.8-4.9c-0.8-6.5,5.4-17.7,5.5-17.8c0.2-0.4,0.1-0.9-0.3-1.2c-0.4-0.3-0.9-0.2-1.2,0.1
		c-0.2,0.2-4,4.6-6.9,10.3c-3.8,7.7-3.8,13.9,0.3,17.8c2.3,2.3,4.5,3.3,6.4,3.7v27.7c-5.1,0.2-10.8,0.5-17,0.9V59.2
		c3.7-2.3,6.1-5.9,6.3-9.6c0.1-1.4-0.2-2.8-0.8-4c1-1.1,1.6-2.4,1.8-3.7c0.3-2.4-0.6-4.8-2.9-7.3c-1.3-1.4-2.6-2.5-3.7-3.5
		c-0.2-0.2-0.5-0.4-0.7-0.6V17.1l0-1.6c0-0.3-0.2-0.6-0.5-0.8c-0.3-0.1-0.6-0.1-0.9,0.1c-0.3,0.2-7.6,5.5-7.5,13.3
		c0,4.5,2.4,8.9,7.2,13v7.8c-1.5,1.2-2.6,2.6-2.9,4.2c-0.2,1.8,0.7,3.8,2.9,6v12.7c-5.4,0.3-11.1,0.7-16.7,1.1V51
		c3.3-2.3,4.8-4.3,4.4-6.3c-0.3-1.6-2.1-2.5-4.4-3.5v-4.9c0.1,0,0.1,0,0.1,0c4.1-1.1,7.7-8.4,8.4-14.5c0.2-1.4,0.3-3.4-0.8-4.8
		c-0.6-0.7-1.4-1.1-2.4-1.2c-1.4-0.2-2.7,0.3-3.7,1.2c-3.5,3.2-3.5,11.9-3.4,12.3v5.1c-0.5-0.2-1-0.7-1.5-1.4
		c-3.9-5.4-2.5-19.3,2.4-24.8c1.9-2.2,4.1-2.6,6.5-1.3c0.3,0.2,0.8,0.1,1-0.1c0.3-0.3,0.4-0.7,0.2-1c0,0-2.2-4.6-9.3-1.6
		C97.7,6.5,91,18.5,93.7,31.6c1.3,6.3,6.5,8.9,10.5,10.7V73c-7.1,0.5-13.3,1-18.7,1.5c0-0.1,0.1-0.2,0.1-0.3V51.1
		c2.6-0.9,4.4-5,4.7-8.5c0.2-2.4-0.6-4.2-2-4.9c-1-0.5-2.2-0.2-3.2,0.8c-1.4,1.4-1.3,4.3-1.3,4.6v6.2c-1-0.5-1.9-1.9-2.3-2.8
		c-0.8-1.6-1.1-3.6-1.1-5.9c2.6-1.5,6-5.5,10.1-12c2-3.2,1.6-5.8,0.2-7c-1.1-0.9-3.2-1.2-5.6,1c-3,2.7-6,10.2-6.4,16.8
		c-0.2,0.1-0.4,0-0.5,0c-0.5-0.1-0.7-0.8-0.8-1.3c-0.8-4.2,2.4-13.9,7.9-17.5c0.4-0.3,0.5-0.8,0.3-1.2c-0.3-0.4-0.8-0.5-1.2-0.3
		c-6.1,4-9.6,14.6-8.6,19.3c0.4,2.1,1.6,2.6,2.3,2.7c0.2,0,0.5,0.1,0.7,0c0,2.3,0.4,4.4,1.3,6.1c1.4,2.6,2.7,3.6,3.9,3.9v23
		c0,0.2,0.1,0.3,0.1,0.4c-6.4,0.6-11.7,1.3-16,1.9V58c0-4.7,2.5-8.8,4.2-11.6c0.6-1,1.1-1.8,1.3-2.5c0.5-1.4,0.2-2.4-0.1-3.1
		c-0.8-1.5-2.5-1.9-3-2c-0.8-0.2-1.6-0.5-2.4-0.9v-8.1c3.9-1.4,7.4-3.2,8.7-6.2c1.1-2.5,0.5-5.6-1.5-7.4c-1.1-1-4.3-3-9.9,0.1
		c-4.4,2.4-6.5,6.7-5.7,11.9c0.1,0.8,0.3,1.7,0.6,2.5c-1.6,0.8-2.6,2.1-2.9,3.7c-0.5,2.8,1.4,6.2,5,9c3.8,2.9,4,8.4,4,9.2v24.2
		c-17.3,2.6-17.3,4.9-17.3,6.1c0,3.5,6.3,5.8,39.5,8c0,0,0,0,0.1,0c0.5,0,0.9-0.4,0.9-0.8c0-0.5-0.3-0.9-0.8-0.9
		c-9.4-0.6-37.8-2.4-37.8-6.2c0-0.4,1.5-4.4,53.8-8.2c27.1-2,54.6-2.9,55.8-3c0.5,0,0.9-0.4,0.9-0.9C161.1,70.6,161,70.4,160.8,70.2
		z M143.2,22.9c0-1.2,0.3-2,0.8-2.2c0.4-0.2,1,0,1.3,0.3c2.1,1.9,5.7,5.1,5.9,10.1c0.1,2.4-0.9,5.3-2.6,7.5
		c-1.3-1.2-3.1-1.9-4.7-2.5c-0.2-0.1-0.4-0.2-0.6-0.2V22.9z M143.2,37.7c1.5,0.6,3,1.2,4,2.1c-0.5,0.4-1.1,0.8-1.8,1.1
		c-0.7,0.3-1.5,0.5-2.3,0.5V37.7z M143.2,43.2c1.2,0,2.2-0.3,3-0.7c0.8-0.3,1.5-0.8,2.2-1.4c0.3,0.6,0.5,1.4,0.3,2.2
		c-0.2,0.6-0.8,1.1-1.7,1.3c-1.7,0.5-2.9,1.4-3.8,2.4V43.2z M136.3,38.1c-4.8-4.7-2-12.3,1.3-18c-1.2,3.4-2.2,7.2-1.8,10.3
		c0.5,3.8,3,5.4,5.6,6.6v4.3C139.8,40.9,138,39.8,136.3,38.1z M128.9,49.6c-0.1,2.8-1.8,5.6-4.5,7.5v-7.4c0.6-0.4,1.3-0.9,2.2-1.4
		c0.7-0.4,1.4-0.9,1.9-1.4C128.9,47.9,129,48.8,128.9,49.6z M127.5,35.9c1.9,2,2.7,4,2.4,5.8c-0.1,0.8-0.5,1.6-1,2.3
		c-0.6-0.7-1.2-1.4-2.1-2c-0.9-0.6-1.7-1.2-2.4-1.8v-7.3C125.5,33.8,126.5,34.7,127.5,35.9z M122.7,18.1v10.8
		c-1.2-1.3-2-2.6-2.3-4.4C119.9,21.6,121.6,19.2,122.7,18.1z M117.3,28.1c0-1.9,0.5-3.7,1.3-5.3c0,0.6,0,1.2,0.1,1.9
		c0.5,3,2.1,4.8,4.1,6.6v7.3C119.1,35.2,117.3,31.7,117.3,28.1z M124.4,42.5c0.4,0.3,0.9,0.7,1.4,1c0.8,0.6,1.4,1.2,1.9,1.8
		c-0.6,0.5-1.2,1-2,1.4c-0.4,0.3-0.8,0.5-1.3,0.8V42.5z M121.6,53.3c0.1-0.7,0.4-1.3,1.1-2v5.1C121.8,55.2,121.5,54.2,121.6,53.3z
		 M86.3,24c0.9-0.8,1.8-1.2,2.4-1.2c0.3,0,0.6,0.1,0.8,0.3c0.8,0.6,0.8,2.4-0.6,4.7c-4.1,6.5-6.7,9.4-8.4,10.7
		C81.1,32.6,83.7,26.3,86.3,24z M86.3,39.8c0.2-0.2,0.6-0.5,1-0.5c0.1,0,0.2,0,0.2,0.1c0.6,0.3,1.1,1.4,0.9,3.1
		c-0.2,2.8-1.5,5.6-2.9,6.7v-6C85.5,42.1,85.7,40.4,86.3,39.8z M70,40.6c0.6,0.1,1.5,0.5,1.8,1.2c0.2,0.4,0.2,1,0,1.6
		c-0.2,0.5-0.6,1.2-1.2,2.1c-0.8,1.3-1.8,3-2.7,4.9V39.9C68.6,40.2,69.3,40.4,70,40.6z M66.2,36.7c-1.6-1.3-3-3.1-3.9-5.1l0.8-0.2
		c1-0.3,2.1-0.6,3.1-1V36.7z M70.9,16.4c1.2,0,2.2,0.4,3,1.1c1.4,1.3,1.9,3.6,1.1,5.4c-1,2.2-3.8,3.8-7.1,5V17
		C69,16.6,70,16.4,70.9,16.4z M66,17.9c0,0,0.1,0,0.1-0.1v10.8c-1.2,0.4-2.5,0.8-3.6,1.2L61.7,30c-0.2-0.7-0.4-1.4-0.5-2.1
		C60.6,23.6,62.4,19.9,66,17.9z M63.2,42c-3.1-2.4-4.7-5.1-4.3-7.3c0.2-1.1,0.9-1.9,1.8-2.4c1.2,2.7,3.2,5.1,5.5,6.6v6.5
		C65.5,44.2,64.5,43,63.2,42z M108.6,45.1c0.2,1-0.7,2.3-2.6,3.7v-5.6C107.3,43.8,108.4,44.4,108.6,45.1z M108.8,18.2
		c0.6-0.5,1.2-0.8,2-0.8c0.1,0,0.2,0,0.4,0c0.5,0.1,0.9,0.2,1.2,0.6c0.5,0.6,0.6,1.8,0.4,3.4c-0.7,5.8-3.9,11.8-6.8,12.9v-5.2
		C105.9,26.9,106.4,20.5,108.8,18.2z M95.4,31.2C92.9,19.2,99,7.9,104.2,5.7c0.7-0.3,1.3-0.5,1.9-0.7c-0.8,0.4-1.6,1.1-2.4,1.9
		c-5.4,6.1-6.8,21-2.5,27c1,1.4,2,2,3,2.2v4.1C100.5,38.6,96.4,36.3,95.4,31.2z"/>
</g>
</svg>
