<?xml version="1.0" encoding="utf-8"?>
<!-- Generator: Adobe Illustrator 19.1.0, SVG Export Plug-In . SVG Version: 6.00 Build 0)  -->
<svg version="1.1" id="Layer_1" xmlns="http://www.w3.org/2000/svg" xmlns:xlink="http://www.w3.org/1999/xlink" x="0px" y="0px"
	 viewBox="0 0 230 60" style="enable-background:new 0 0 230 60;" xml:space="preserve">
<style type="text/css">
	.st0{fill:#12787B;}
	.st1{fill:#F28721;}
</style>
<g>
	<g>
		<path class="st0" d="M84.2,25h-1.7c-0.2-0.8-0.4-1.4-0.7-1.8c-0.2-0.4-0.7-1-1.7-2c-1-0.9-2.3-1.4-4.1-1.4c-2.1,0-3.8,0.9-5,2.7
			c-1.3,1.8-1.9,4.2-1.9,7.3c0,3,0.6,5.4,1.9,7.2c1.2,1.8,2.9,2.7,5.1,2.7c1.9,0,3.3-0.4,4.1-1.3c0.8-0.9,1.3-1.5,1.6-2l0.8-2h1.8
			v5.6l-1.4,0.6c-1,0.4-2.2,0.7-3.6,0.9c-1.4,0.3-2.6,0.4-3.8,0.4c-3.3,0-5.9-1.1-7.9-3.2c-2-2.1-3-5-3-8.6c0-3.9,0.8-6.7,2.4-8.3
			c1.6-1.6,3-2.7,4.4-3.3c1.3-0.6,2.7-0.8,4.1-0.8c1.1,0,2.3,0.1,3.7,0.4l2.2,0.4h0.6h0.4c0.1,0,0.3,0,0.6-0.1l0.7-0.1l0.7-0.1V25z"
			/>
		<path class="st0" d="M86.3,18.2h13.2h2.6c0.5,0,1.5-0.1,3-0.3v7h-1.7c-0.2-0.8-0.4-1.4-0.6-1.9c-0.2-0.5-0.5-0.9-0.9-1.3
			c-0.4-0.4-0.8-0.7-1.4-0.9c-0.6-0.2-1.5-0.3-2.7-0.3h-4.4v7.5h2c2,0,3.3-0.1,3.8-0.5c0.5-0.3,0.9-1.2,1.1-2.6h1.6v8.6h-1.6
			l-0.3-1.4c0-0.2-0.1-0.5-0.3-0.9c-0.2-0.4-0.5-0.7-1-1c-0.3-0.2-0.6-0.3-1-0.3h-2h-2.3v5.2c0,1.4,0.3,2.4,0.8,3
			c0.5,0.5,1.6,0.7,3.2,0.7c1.7,0,2.9-0.2,3.7-0.5c0.8-0.3,1.4-0.7,1.9-1.1c0.5-0.4,0.9-1.5,1.3-3.1h1.6v7.1l-2.8-0.3h-3.3H86.3
			v-1.7c0.7,0,1.2-0.1,1.5-0.2c0.3-0.1,0.6-0.3,0.8-0.5s0.4-0.5,0.5-0.6c0.1-0.2,0.1-0.4,0.2-0.8v-1.9V24c0-1.7-0.2-2.7-0.5-3.2
			c-0.3-0.5-1.1-0.8-2.4-0.9V18.2z"/>
		<path class="st0" d="M107.7,39.4c1.1,0,1.9-0.3,2.4-0.9c0.4-0.6,0.6-1.7,0.6-3.3V24.1V22c0-0.3,0-0.5-0.1-0.7
			c-0.1-0.2-0.2-0.4-0.4-0.7c-0.2-0.3-0.4-0.4-0.8-0.6c-0.3-0.1-0.8-0.2-1.5-0.2v-1.7h7.8l0.3,1.2l0.3,0.7l1.6,2.4l5.4,8.2l0.5,0.9
			l0.5,1.1L125,34l0.5,1.8l0.4,0l-0.2-1.6c-0.1-1.2-0.2-2.5-0.2-4V24c0-1.7-0.2-2.8-0.6-3.3c-0.4-0.5-1.3-0.8-2.6-0.8v-1.7h9.1v1.7
			c-1.2,0-2,0.3-2.5,0.9c-0.4,0.6-0.7,1.7-0.7,3.4v11.7v3.2l0.2,1.9l-3.5,0.7c-0.5-1.2-1-2.2-1.4-3c-0.4-0.8-0.9-1.6-1.4-2.4
			l-6.8-10.4l-0.8-1.4l-0.5-1.2l-0.4-1.4h-0.3l0.1,1.3l0.1,1.4v1.9v8.7c0,1.1,0,1.9,0.1,2.4c0.1,0.4,0.2,0.8,0.5,1
			c0.3,0.3,0.6,0.5,0.9,0.6c0.2,0,0.4,0.1,0.8,0.1c0.4,0,0.6,0.1,0.8,0.1V41h-9V39.4z"/>
		<path class="st1" d="M134.3,39.4c0.7,0,1.2,0,1.6-0.1c0.3-0.1,0.6-0.3,0.9-0.5c0.3-0.2,0.5-0.6,0.6-1.1c0.1-0.5,0.2-1.3,0.2-2.5
			v-11v-0.4v-1.1c-0.1-0.4-0.1-0.7-0.2-1c0-0.3-0.2-0.6-0.5-0.9c-0.2-0.3-0.5-0.5-0.9-0.6c-0.3-0.1-0.8-0.2-1.5-0.2v-1.7h10.8v1.7
			c-0.8,0-1.3,0.1-1.7,0.2c-0.1,0-0.3,0.1-0.5,0.2c-0.2,0.1-0.4,0.2-0.7,0.4c-0.3,0.2-0.5,0.5-0.6,1c-0.1,0.5-0.2,1.3-0.2,2.4v11.1
			c0,0.9,0,1.5,0.1,1.8c0.1,0.3,0.3,0.7,0.7,1.2c0.4,0.4,1.3,0.7,2.8,0.7c1.1,0,2-0.2,2.7-0.5c0.7-0.3,1.2-0.7,1.5-1.1
			c0.4-0.4,0.6-0.8,0.8-1.3c0.2-0.4,0.3-1,0.5-1.8h1.7v7.1l-3.3-0.3L147,41h-12.7V39.4z"/>
		<path class="st1" d="M153.8,39.4c0.5,0,0.9-0.1,1.2-0.2c0.3-0.1,0.6-0.4,0.9-0.7c0.4-0.4,0.6-0.8,0.8-1.3l0.8-1.9l4.4-11.2
			l0.6-1.7c0.1-0.4,0.2-0.8,0.2-1.1c0-0.4-0.1-0.8-0.4-1c-0.3-0.2-0.8-0.3-1.5-0.3v-1.7h7.6v1c0,0.1,0,0.2,0,0.3
			c0,0.1,0,0.3,0.1,0.4l0.3,1.1l0.7,1.7l4.7,12.1c0.2,0.5,0.4,1,0.5,1.3c0.1,0.3,0.3,0.6,0.4,0.8l0.8,1.3c0.3,0.3,0.6,0.6,0.9,0.8
			c0.3,0.1,0.7,0.2,1.3,0.3V41h-10.6v-1.7c1.1,0,1.8-0.1,2.2-0.4c0.4-0.3,0.6-0.7,0.6-1.4v-0.2c0-0.3-0.1-0.7-0.2-1l-0.4-1.3
			l-0.9-2.5h-7.3l-1,2.6l-0.4,1.5c-0.1,0.5-0.2,0.9-0.2,1.1c0,0.6,0.2,1,0.6,1.2c0.4,0.2,1,0.3,2,0.3V41h-8.8V39.4z M162.4,30.4h5.7
			l-2-5.8l-0.4-1.3c-0.1-0.4-0.2-1.1-0.2-2H165v0.4c0,0.6,0,1-0.1,1.4c-0.1,0.3-0.3,0.9-0.6,1.7L162.4,30.4z"/>
		<path class="st1" d="M180.1,39.4c1.1,0,1.9-0.3,2.4-0.9c0.4-0.6,0.6-1.7,0.6-3.3V24.1V22c0-0.3,0-0.5-0.1-0.7
			c-0.1-0.2-0.2-0.4-0.4-0.7c-0.2-0.3-0.4-0.4-0.8-0.6c-0.3-0.1-0.8-0.2-1.5-0.2v-1.7h7.8l0.3,1.2l0.3,0.7l1.6,2.4l5.4,8.2l0.5,0.9
			l0.5,1.1l0.5,1.2l0.5,1.8l0.4,0l-0.2-1.6c-0.1-1.2-0.2-2.5-0.2-4V24c0-1.7-0.2-2.8-0.6-3.3c-0.4-0.5-1.3-0.8-2.6-0.8v-1.7h9.1v1.7
			c-1.2,0-2.1,0.3-2.5,0.9c-0.4,0.6-0.6,1.7-0.6,3.4v11.7v3.2l0.2,1.9l-3.5,0.7c-0.5-1.2-1-2.2-1.4-3c-0.4-0.8-0.9-1.6-1.4-2.4
			l-6.8-10.4l-0.8-1.4l-0.5-1.2l-0.4-1.4h-0.3l0.1,1.3l0.1,1.4v1.9v8.7c0,1.1,0,1.9,0.1,2.4c0.1,0.4,0.2,0.8,0.5,1
			c0.3,0.3,0.6,0.5,0.9,0.6c0.2,0,0.4,0.1,0.8,0.1c0.4,0,0.7,0.1,0.8,0.1V41h-9V39.4z"/>
		<path class="st1" d="M206.3,18.2h10.2c1.9,0,3.4,0.2,4.6,0.5c0.6,0.1,1.2,0.4,1.8,0.7c0.6,0.3,1.3,0.7,1.9,1.2
			c1.3,0.9,2.3,2.1,3.1,3.8c0.8,1.6,1.2,3.4,1.2,5.2c0,1.8-0.4,3.6-1.2,5.3c-0.8,1.7-1.8,3-3.1,3.9c-1.2,0.9-2.4,1.6-3.5,1.9
			c-1.1,0.3-2.6,0.5-4.4,0.5h-10.4v-1.7c1.2,0,2-0.3,2.4-0.8c0.4-0.5,0.6-1.6,0.6-3.3V24.1c0-1.6-0.2-2.7-0.6-3.3
			c-0.4-0.6-1.2-0.8-2.4-0.8V18.2z M213.5,20.4v14.8c0,0.9,0,1.5,0.1,1.9c0.1,0.4,0.2,0.7,0.4,1c0.2,0.3,0.6,0.5,1.1,0.6
			c0.5,0.1,1.1,0.2,1.7,0.2c2.3,0,4.2-0.8,5.6-2.5c1.4-1.7,2.1-3.9,2.1-6.7c0-2.2-0.5-4-1.4-5.5c-0.9-1.5-2-2.5-3.2-2.9
			c-0.6-0.2-1.2-0.4-1.9-0.5c-0.3-0.1-0.6-0.1-0.8-0.2l-2.4-0.1H213.5z"/>
		<polygon class="st1" points="16.6,13.1 28.4,1.5 40.1,13.1 28.4,24.7 		"/>
		<polygon class="st1" points="32.3,28.6 44.1,17 55.8,28.6 44.1,40.2 		"/>
		<polygon class="st1" points="16.6,44.1 28.4,32.5 40.1,44.1 28.4,55.7 		"/>
		<polygon class="st0" points="1,28.6 12.7,17 24.5,28.6 12.7,40.2 		"/>
	</g>
	<g>
		<path class="st0" d="M68.3,47.4v2.4h2.2V51h-2.2v4.5c0,1,0.3,1.6,1.1,1.6c0.4,0,0.7,0,0.9-0.1l0.1,1.1c-0.3,0.1-0.8,0.2-1.4,0.2
			c-0.7,0-1.3-0.2-1.7-0.6c-0.4-0.4-0.6-1.2-0.6-2.2V51h-1.3v-1.2h1.3v-2L68.3,47.4z"/>
		<path class="st0" d="M72.2,45.9h1.5v5.3h0c0.2-0.4,0.6-0.8,1.1-1.1c0.5-0.3,1-0.4,1.6-0.4c1.1,0,2.9,0.7,2.9,3.6v5h-1.5v-4.8
			c0-1.4-0.5-2.5-2-2.5c-1,0-1.8,0.7-2.1,1.5c-0.1,0.2-0.1,0.4-0.1,0.7v5.1h-1.5V45.9z"/>
		<path class="st0" d="M82.7,54.3c0,2.1,1.4,2.9,2.9,2.9c1.1,0,1.8-0.2,2.3-0.4l0.3,1.1c-0.5,0.2-1.5,0.5-2.8,0.5
			c-2.6,0-4.1-1.7-4.1-4.2c0-2.5,1.5-4.5,4-4.5c2.7,0,3.5,2.4,3.5,4c0,0.3,0,0.6-0.1,0.7H82.7z M87.2,53.2c0-1-0.4-2.5-2.1-2.5
			c-1.5,0-2.2,1.4-2.3,2.5H87.2z"/>
		<path class="st0" d="M94.2,52.5c0-1,0-1.8-0.1-2.6h1.3l0.1,1.7h0.1c0.4-1.1,1.3-1.8,2.3-1.8c0.2,0,0.3,0,0.4,0.1v1.4
			c-0.2,0-0.3-0.1-0.5-0.1c-1.1,0-1.8,0.8-2,2c0,0.2-0.1,0.4-0.1,0.7v4.5h-1.5V52.5z"/>
		<path class="st0" d="M100.6,54.3c0,2.1,1.4,2.9,2.9,2.9c1.1,0,1.8-0.2,2.3-0.4l0.3,1.1c-0.5,0.2-1.5,0.5-2.8,0.5
			c-2.6,0-4.1-1.7-4.1-4.2c0-2.5,1.5-4.5,4-4.5c2.7,0,3.5,2.4,3.5,4c0,0.3,0,0.6-0.1,0.7H100.6z M105.1,53.2c0-1-0.4-2.5-2.1-2.5
			c-1.5,0-2.2,1.4-2.3,2.5H105.1z"/>
		<path class="st0" d="M113.1,58.3l-0.1-1.1H113c-0.5,0.7-1.4,1.3-2.6,1.3c-1.7,0-2.6-1.2-2.6-2.4c0-2,1.8-3.1,5.1-3.1v-0.2
			c0-0.7-0.2-1.9-1.9-1.9c-0.8,0-1.6,0.2-2.2,0.6l-0.3-1c0.7-0.5,1.7-0.7,2.8-0.7c2.6,0,3.2,1.8,3.2,3.4v3.1c0,0.7,0,1.4,0.1,2
			H113.1z M112.9,54c-1.7,0-3.6,0.3-3.6,1.9c0,1,0.7,1.5,1.4,1.5c1.1,0,1.8-0.7,2-1.4c0.1-0.2,0.1-0.3,0.1-0.5V54z"/>
		<path class="st0" d="M116.9,45.9h1.5v12.4h-1.5V45.9z"/>
		<path class="st0" d="M124.5,56.7c0.4,0.3,1.3,0.6,2,0.6c1.1,0,1.6-0.6,1.6-1.3c0-0.7-0.4-1.1-1.6-1.5c-1.5-0.5-2.2-1.4-2.2-2.4
			c0-1.4,1.1-2.5,2.9-2.5c0.9,0,1.6,0.2,2.1,0.5l-0.4,1.1c-0.3-0.2-0.9-0.5-1.7-0.5c-0.9,0-1.4,0.5-1.4,1.2c0,0.7,0.5,1,1.6,1.4
			c1.5,0.6,2.2,1.3,2.2,2.5c0,1.5-1.1,2.5-3.1,2.5c-0.9,0-1.8-0.2-2.4-0.6L124.5,56.7z"/>
		<path class="st0" d="M132.4,54.3c0,2.1,1.4,2.9,2.9,2.9c1.1,0,1.8-0.2,2.3-0.4l0.3,1.1c-0.5,0.2-1.5,0.5-2.8,0.5
			c-2.6,0-4.1-1.7-4.1-4.2c0-2.5,1.5-4.5,3.9-4.5c2.8,0,3.5,2.4,3.5,4c0,0.3,0,0.6,0,0.7H132.4z M136.9,53.2c0-1-0.4-2.5-2.1-2.5
			c-1.5,0-2.2,1.4-2.3,2.5H136.9z"/>
		<path class="st0" d="M140.3,52.5c0-1,0-1.8-0.1-2.6h1.3l0.1,1.7h0.1c0.4-1.1,1.3-1.8,2.3-1.8c0.2,0,0.3,0,0.4,0.1v1.4
			c-0.2,0-0.3-0.1-0.5-0.1c-1.1,0-1.8,0.8-2.1,2c0,0.2-0.1,0.4-0.1,0.7v4.5h-1.5V52.5z"/>
		<path class="st0" d="M147,49.8l1.7,4.7c0.3,0.8,0.5,1.5,0.7,2.2h0c0.2-0.7,0.4-1.4,0.7-2.2l1.6-4.7h1.6l-3.3,8.4h-1.5l-3.2-8.4
			H147z"/>
		<path class="st0" d="M156.5,47.5c0,0.5-0.4,0.9-1,0.9c-0.5,0-0.9-0.4-0.9-0.9c0-0.5,0.4-1,1-1C156.1,46.5,156.5,46.9,156.5,47.5z
			 M154.8,58.3v-8.4h1.5v8.4H154.8z"/>
		<path class="st0" d="M164.8,58c-0.4,0.2-1.3,0.5-2.4,0.5c-2.5,0-4.2-1.7-4.2-4.3c0-2.6,1.8-4.5,4.5-4.5c0.9,0,1.7,0.2,2.1,0.4
			l-0.4,1.2c-0.4-0.2-0.9-0.4-1.8-0.4c-1.9,0-3,1.4-3,3.2c0,2,1.3,3.1,2.9,3.1c0.9,0,1.4-0.2,1.9-0.4L164.8,58z"/>
		<path class="st0" d="M167.4,54.3c0,2.1,1.4,2.9,2.9,2.9c1.1,0,1.8-0.2,2.3-0.4l0.3,1.1c-0.5,0.2-1.5,0.5-2.8,0.5
			c-2.6,0-4.1-1.7-4.1-4.2c0-2.5,1.5-4.5,3.9-4.5c2.7,0,3.5,2.4,3.5,4c0,0.3,0,0.6-0.1,0.7H167.4z M171.9,53.2c0-1-0.4-2.5-2.1-2.5
			c-1.6,0-2.2,1.4-2.3,2.5H171.9z"/>
		<path class="st0" d="M175,56.7c0.4,0.3,1.3,0.6,2,0.6c1.1,0,1.6-0.6,1.6-1.3c0-0.7-0.4-1.1-1.6-1.5c-1.5-0.5-2.2-1.4-2.2-2.4
			c0-1.4,1.1-2.5,2.9-2.5c0.9,0,1.6,0.2,2.1,0.5l-0.4,1.1c-0.3-0.2-0.9-0.5-1.7-0.5c-0.9,0-1.4,0.5-1.4,1.2c0,0.7,0.5,1,1.6,1.4
			c1.5,0.6,2.2,1.3,2.2,2.5c0,1.5-1.1,2.5-3.1,2.5c-0.9,0-1.8-0.2-2.4-0.6L175,56.7z"/>
	</g>
</g>
</svg>
