<?xml version="1.0" encoding="utf-8"?>
<!-- Generator: Adobe Illustrator 19.1.0, SVG Export Plug-In . SVG Version: 6.00 Build 0)  -->
<svg version="1.1" id="Layer_1" xmlns="http://www.w3.org/2000/svg" xmlns:xlink="http://www.w3.org/1999/xlink" x="0px" y="0px"
	 viewBox="0 0 90 68" style="enable-background:new 0 0 90 68;" xml:space="preserve">
<style type="text/css">
	.st0{fill:#158748;}
	.st1{fill:url(#SVGID_1_);}
	.st2{fill:url(#SVGID_2_);}
	.st3{fill:url(#SVGID_3_);}
	.st4{fill:url(#SVGID_4_);}
	.st5{fill:url(#SVGID_5_);}
	.st6{fill:url(#SVGID_6_);}
	.st7{fill:url(#SVGID_7_);}
</style>
<g>
	<g>
		<path class="st0" d="M7.6,50.4c-0.2,0-0.2,0.1-0.2,0.3c-0.1,0.5-0.2,0.8-0.5,0.9c-0.3,0.2-0.9,0.2-1.2,0.2c-1.3,0-1.5-0.2-1.5-1
			c0-0.3,0-0.9,0-1.5c0-0.2,0-0.4,0-0.5v-1c0-0.1,0-0.1,0-0.1c0.4,0,1.6,0,1.9,0c0.5,0.1,0.6,0.3,0.7,0.5c0,0.1,0,0.2,0,0.3
			c0,0,0,0.1,0,0.1c0,0.1,0.1,0.2,0.2,0.2c0.2,0,0.2-0.2,0.2-0.3c0,0,0-0.2,0-0.4c0-0.2,0-0.3,0-0.4c0-0.4,0.1-0.7,0.1-0.8
			c0-0.1,0-0.1,0-0.1c0-0.1-0.1-0.2-0.2-0.2c-0.1,0-0.2,0.1-0.2,0.2l0,0c-0.1,0.1-0.3,0.1-0.6,0.2c-0.2,0-0.9,0-2.1,0c0,0,0,0,0,0
			c0,0,0,0,0-0.1v-3.3c0,0,0-0.1,0-0.1c0.2,0,1.6,0,1.9,0.1c0.6,0.1,0.7,0.2,0.8,0.4c0.1,0.1,0.1,0.3,0.1,0.4c0,0.2,0.1,0.3,0.2,0.3
			c0.1,0,0.2-0.1,0.2-0.2c0-0.1,0-0.4,0-0.6c0-0.1,0-0.2,0-0.3c0-0.4,0.1-0.6,0.1-0.7c0-0.1,0-0.1,0-0.1c0-0.2-0.1-0.2-0.2-0.2
			c-0.1,0-0.1,0-0.2,0c0,0,0,0-0.1,0c-0.1,0-0.4,0.1-0.6,0.1c-0.2,0-2.4,0-3.3,0c-0.2,0-0.4,0-0.7,0l-0.2,0c-0.2,0-0.3,0-0.5,0
			c-0.2,0-0.4,0-0.6,0c-0.1,0-0.4,0-0.4,0.2c0,0.2,0.2,0.2,0.3,0.2c0.2,0,0.4,0,0.5,0c0.4,0.1,0.5,0.2,0.5,0.7c0,0.4,0,0.8,0,2.8
			v2.3c0,1.2,0,2.2-0.1,2.8c-0.1,0.4-0.1,0.6-0.3,0.7c-0.2,0-0.5,0.1-0.7,0.1c-0.2,0-0.3,0.1-0.3,0.2c0,0.1,0.1,0.2,0.3,0.2
			c0.1,0,0.3,0,0.4,0c0.2,0,0.3,0,0.5,0c0.3,0,0.8,0,0.9,0c0.4,0,0.8,0,1.4,0l0.4,0c0.5,0,1.1,0,1.9,0c0.5,0,0.7,0,0.8-0.4
			c0.1-0.3,0.2-1.2,0.2-1.5C7.8,50.6,7.8,50.4,7.6,50.4z"/>
		<path class="st0" d="M67.9,50.4c-0.2,0-0.2,0.1-0.2,0.3c-0.1,0.5-0.2,0.8-0.5,0.9c-0.3,0.2-0.9,0.2-1.2,0.2c-1.3,0-1.5-0.2-1.5-1
			c0-0.3,0-0.9,0-1.5c0-0.2,0-0.4,0-0.5v-1c0-0.1,0-0.1,0-0.1c0.4,0,1.6,0,1.9,0c0.5,0.1,0.6,0.3,0.7,0.5c0,0.1,0,0.2,0,0.3
			c0,0,0,0.1,0,0.1c0,0.1,0.1,0.2,0.2,0.2c0.2,0,0.2-0.2,0.2-0.3c0,0,0-0.2,0-0.4c0-0.2,0-0.3,0-0.4c0-0.4,0.1-0.7,0.1-0.8
			c0-0.1,0-0.1,0-0.1c0-0.1-0.1-0.2-0.2-0.2c-0.1,0-0.2,0.1-0.2,0.2l0,0c-0.1,0.1-0.3,0.1-0.6,0.2c-0.2,0-0.9,0-2.1,0c0,0,0,0,0,0
			c0,0,0,0,0-0.1v-3.3c0,0,0-0.1,0-0.1c0.2,0,1.6,0,1.9,0.1c0.6,0.1,0.7,0.2,0.8,0.4c0.1,0.1,0.1,0.3,0.1,0.4c0,0.2,0.1,0.3,0.2,0.3
			c0.1,0,0.2-0.1,0.2-0.2c0-0.1,0-0.4,0-0.6c0-0.1,0-0.2,0-0.3c0-0.4,0.1-0.6,0.1-0.7c0-0.1,0-0.1,0-0.1c0-0.2-0.1-0.2-0.2-0.2
			c-0.1,0-0.1,0-0.2,0c0,0,0,0-0.1,0c-0.1,0-0.4,0.1-0.6,0.1c-0.2,0-2.4,0-3.3,0c-0.2,0-0.4,0-0.7,0l-0.2,0c-0.2,0-0.3,0-0.5,0
			c-0.2,0-0.4,0-0.6,0c-0.1,0-0.4,0-0.4,0.2c0,0.2,0.2,0.2,0.3,0.2c0.2,0,0.4,0,0.5,0c0.4,0.1,0.5,0.2,0.5,0.7c0,0.4,0,0.8,0,2.8
			v2.3c0,1.2,0,2.2-0.1,2.8c-0.1,0.4-0.1,0.6-0.3,0.7c-0.2,0-0.5,0.1-0.7,0.1c-0.2,0-0.3,0.1-0.3,0.2c0,0.1,0.1,0.2,0.3,0.2
			c0.1,0,0.3,0,0.4,0c0.2,0,0.3,0,0.5,0c0.3,0,0.8,0,0.9,0c0.4,0,0.8,0,1.4,0l0.4,0c0.5,0,1.1,0,1.9,0c0.5,0,0.7,0,0.8-0.4
			c0.1-0.3,0.2-1.2,0.2-1.5C68.1,50.6,68.1,50.4,67.9,50.4z"/>
		<path class="st0" d="M76.8,50.4c-0.2,0-0.2,0.1-0.2,0.3c-0.1,0.5-0.2,0.8-0.5,0.9c-0.3,0.2-0.9,0.2-1.2,0.2c-1.3,0-1.5-0.2-1.5-1
			c0-0.3,0-0.9,0-1.5c0-0.2,0-0.4,0-0.5v-1c0-0.1,0-0.1,0-0.1c0.4,0,1.6,0,1.9,0c0.5,0.1,0.6,0.3,0.7,0.5c0,0.1,0,0.2,0,0.3
			c0,0,0,0.1,0,0.1c0,0.1,0.1,0.2,0.2,0.2c0.2,0,0.2-0.2,0.2-0.3c0,0,0-0.2,0-0.4c0-0.2,0-0.3,0-0.4c0-0.4,0.1-0.7,0.1-0.8
			c0-0.1,0-0.1,0-0.1c0-0.1-0.1-0.2-0.2-0.2c-0.1,0-0.2,0.1-0.2,0.2l0,0c-0.1,0.1-0.3,0.1-0.6,0.2c-0.2,0-0.9,0-2.1,0c0,0,0,0,0,0
			c0,0,0,0,0-0.1v-3.3c0,0,0-0.1,0-0.1c0.2,0,1.6,0,1.9,0.1c0.6,0.1,0.7,0.2,0.8,0.4c0.1,0.1,0.1,0.3,0.1,0.4c0,0.2,0.1,0.3,0.2,0.3
			c0.1,0,0.2-0.1,0.2-0.2c0-0.1,0-0.4,0-0.6c0-0.1,0-0.2,0-0.3c0-0.4,0.1-0.6,0.1-0.7c0-0.1,0-0.1,0-0.1c0-0.2-0.1-0.2-0.2-0.2
			c-0.1,0-0.1,0-0.2,0c0,0,0,0-0.1,0c-0.1,0-0.4,0.1-0.6,0.1c-0.2,0-2.4,0-3.3,0c-0.2,0-0.4,0-0.7,0l-0.2,0c-0.2,0-0.3,0-0.5,0
			c-0.2,0-0.4,0-0.6,0c-0.1,0-0.4,0-0.4,0.2c0,0.2,0.2,0.2,0.3,0.2c0.2,0,0.4,0,0.5,0c0.4,0.1,0.5,0.2,0.5,0.7c0,0.4,0,0.8,0,2.8
			v2.3c0,1.2,0,2.2-0.1,2.8c-0.1,0.4-0.1,0.6-0.3,0.7c-0.2,0-0.5,0.1-0.7,0.1c-0.2,0-0.3,0.1-0.3,0.2c0,0.1,0.1,0.2,0.3,0.2
			c0.1,0,0.3,0,0.4,0c0.2,0,0.3,0,0.5,0c0.3,0,0.8,0,0.9,0c0.4,0,0.8,0,1.4,0l0.4,0c0.5,0,1.1,0,1.9,0c0.5,0,0.7,0,0.8-0.4
			c0.1-0.3,0.2-1.2,0.2-1.5C76.9,50.6,76.9,50.4,76.8,50.4z"/>
		<path class="st0" d="M18.7,49.9c-0.2,0-0.2,0.1-0.2,0.3c-0.1,0.2-0.2,0.6-0.4,0.8c-0.5,0.6-1.2,0.7-2.3,0.7c-2.7,0-4-2.7-4-4.5
			c0-1.5,0.4-2.5,1.2-3.2c0.6-0.5,1.4-0.8,2.4-0.8c1.1,0,2.1,0.3,2.6,0.8c0.3,0.3,0.5,0.7,0.5,1.1c0,0.1,0,0.4,0.2,0.4
			c0.2,0,0.2-0.2,0.2-0.4c0-0.1,0-0.4,0-0.7c0-0.3,0-0.5,0-0.7c0-0.3,0-0.4,0-0.5c0-0.1,0-0.1,0-0.2c0-0.1,0-0.2-0.3-0.2
			c-0.2,0-0.4-0.1-0.6-0.1c-0.2,0-0.4-0.1-0.7-0.1c-0.6-0.1-1.1-0.1-1.9-0.1c-1.8,0-3.1,0.4-4.2,1.4c-1.4,1.3-1.5,3-1.5,3.5
			c0,1.6,0.6,2.9,1.6,3.8c1.1,1,2.6,1.4,4.5,1.4c0.8,0,1.8-0.1,2.4-0.3c0.2-0.1,0.3-0.2,0.4-0.4c0.1-0.4,0.3-1.5,0.3-1.7
			C18.9,49.9,18.8,49.9,18.7,49.9z"/>
		<path class="st0" d="M26.1,42.4c-3.7,0-5.4,2.6-5.4,5.1c0,2.4,1.7,5.1,5.3,5.1c3.2,0,5.5-2.2,5.5-5.3
			C31.4,44.3,29.4,42.4,26.1,42.4z M26.5,51.8c-2.3,0-3.9-1.9-3.9-4.7c0-3.4,2-3.9,3.1-3.9c2.2,0,3.7,1.9,3.7,4.6
			C29.5,51.4,27.4,51.8,26.5,51.8z"/>
		<path class="st0" d="M48.5,47.5c-0.2,0-0.5,0-0.8,0c-0.3,0-0.5,0-0.7,0c-0.2,0-0.4,0-0.7,0c-0.4,0-0.8,0-1.2,0
			c-0.1,0-0.3,0-0.3,0.2c0,0.1,0,0.2,0.3,0.2c0.2,0,0.4,0,0.5,0c0.4,0.1,0.5,0.2,0.5,0.7c0,0.4,0,0.9,0,1.5v1.2
			c0,0.2-0.1,0.3-0.2,0.4c-0.3,0.1-0.7,0.1-1.1,0.1c-2.6,0-4.5-1.9-4.5-4.7c0-1.4,0.4-2.4,1.2-3.1c0.8-0.7,1.7-0.8,2.5-0.8
			c1.5,0,2.5,0.6,2.8,1c0.3,0.4,0.4,0.8,0.4,1c0,0.1,0,0.2,0.2,0.2c0.2,0,0.2-0.2,0.2-0.3c0-1.2,0.1-1.7,0.1-1.9c0-0.1,0-0.1,0-0.2
			c0-0.1-0.1-0.2-0.3-0.2c-0.3,0-0.8-0.1-1-0.1c-0.3-0.1-1.4-0.2-2.3-0.2c-1,0-2.2,0.1-3.5,0.8c-1.4,0.9-2.3,2.4-2.3,4.2
			c0,3.7,3.1,5.1,6.1,5.1c0.6,0,2.1-0.1,3.2-0.6c0.2-0.1,0.2-0.2,0.2-0.5v-1.4c0-0.6,0-1.1,0-1.5c0-0.4,0.1-0.6,0.4-0.7
			c0.2,0,0.2,0,0.3,0c0.2,0,0.2-0.1,0.2-0.2C48.8,47.5,48.6,47.5,48.5,47.5z"/>
		<path class="st0" d="M60.8,52.2c-0.1,0-0.2,0-0.4,0c-0.2,0-0.7-0.1-1.4-0.9c-0.7-0.7-1.4-1.7-2.4-2.9l-0.4-0.5
			c1.2-1,1.7-1.9,1.7-3c0-1-0.6-1.6-0.9-1.9c-0.7-0.5-1.7-0.6-2.5-0.6c-0.2,0-0.5,0-0.9,0c-0.4,0-0.7,0-1,0c-0.1,0-0.3,0-0.5,0
			c-0.4,0-0.9,0-1.3,0c-0.1,0-0.4,0-0.4,0.2c0,0.2,0.2,0.2,0.3,0.2c0.2,0,0.4,0,0.5,0c0.4,0.1,0.5,0.2,0.5,0.7c0,0.4,0,0.8,0,2.8
			v2.3c0,1.2,0,2.2-0.1,2.8c-0.1,0.4-0.1,0.6-0.3,0.7c-0.2,0-0.3,0.1-0.5,0.1c-0.2,0-0.3,0.1-0.3,0.2c0,0.1,0.1,0.2,0.3,0.2
			c0.3,0,0.7,0,1.1,0c0.2,0,0.4,0,0.5,0c0.1,0,0.2,0,0.4,0c0.4,0,1,0,1.5,0c0.2,0,0.3-0.1,0.3-0.2c0-0.1-0.1-0.2-0.2-0.2
			c-0.2,0-0.4,0-0.6-0.1c-0.3,0-0.4-0.3-0.5-0.7c-0.1-0.5-0.1-1.6-0.1-2.8v-0.2c0,0,0,0,0,0c0,0,0,0,0,0l1.2,0c0.1,0,0.1,0,0.2,0.1
			c0.1,0.1,0.3,0.5,0.6,0.9c0.2,0.3,0.5,0.6,0.7,0.9c0.8,1.1,1.3,1.7,1.8,2c0.4,0.2,0.7,0.3,1.5,0.3h1.3c0.1,0,0.3,0,0.3-0.2
			C61,52.3,61,52.2,60.8,52.2z M56.2,45.6c0,1.2-0.5,1.7-0.7,1.9c-0.2,0.2-0.4,0.2-0.9,0.2c-0.4,0-0.7,0-1-0.1c-0.1,0-0.1,0-0.1-0.2
			v-4c0-0.1,0-0.1,0.1-0.1c0.1,0,0.3,0,0.7,0C55,43.3,56.2,43.8,56.2,45.6z"/>
		<path class="st0" d="M88.6,42.4c-0.4,0-0.8,0-1,0c-0.1,0-0.2,0-0.2,0c-0.1,0-0.3,0-0.5,0c-0.3,0-0.7,0-1.1,0c-0.2,0-0.4,0-0.4,0.2
			c0,0.2,0.2,0.2,0.3,0.2c0.2,0,0.5,0,0.7,0.1c0.3,0.1,0.4,0.3,0.4,1.1l0.1,5.8c-0.1-0.1-0.5-0.5-0.9-0.9c-0.6-0.6-1.4-1.5-1.9-2
			c-1.9-1.9-3.9-3.9-4-4.1c0,0-0.1-0.1-0.1-0.1c-0.2-0.2-0.3-0.3-0.4-0.3c-0.2,0-0.2,0.4-0.2,0.5l-0.1,7.7c0,1.1-0.1,1.4-0.4,1.5
			c-0.2,0.1-0.4,0.1-0.6,0.1c-0.2,0-0.3,0.1-0.3,0.2c0,0.2,0.2,0.2,0.4,0.2c0.5,0,0.9,0,1.2,0c0.1,0,0.2,0,0.2,0c0.1,0,0.2,0,0.4,0
			c0.3,0,0.7,0,1.3,0c0.1,0,0.4,0,0.4-0.2c0-0.2-0.2-0.2-0.3-0.2c-0.2,0-0.4,0-0.7-0.1c-0.2-0.1-0.4-0.3-0.4-1.3l-0.1-5.4
			c0,0,0.1,0.1,0.1,0.1c0.5,0.5,1.7,1.8,2.9,2.9c0.6,0.5,1.2,1.1,1.7,1.7c0.8,0.8,1.6,1.6,2.1,2c0.2,0.2,0.3,0.3,0.5,0.3
			c0.2,0,0.2-0.3,0.2-0.5l0.1-8.2c0-0.7,0.1-0.9,0.4-1c0.1,0,0.2,0,0.4,0c0.3,0,0.3-0.1,0.3-0.2C89,42.4,88.8,42.4,88.6,42.4z"/>
	</g>
	<g>
		<linearGradient id="SVGID_1_" gradientUnits="userSpaceOnUse" x1="14.6076" y1="119.7707" x2="78.0985" y2="56.2798">
			<stop  offset="0" style="stop-color:#F8C330"/>
			<stop  offset="4.043353e-002" style="stop-color:#F8C533"/>
			<stop  offset="7.842258e-002" style="stop-color:#F7CA3E"/>
			<stop  offset="0.1153" style="stop-color:#F7D350"/>
			<stop  offset="0.15" style="stop-color:#F7DF6A"/>
			<stop  offset="0.5" style="stop-color:#D28A2A"/>
			<stop  offset="0.5356" style="stop-color:#DF9F2B"/>
			<stop  offset="0.5888" style="stop-color:#EEB72D"/>
			<stop  offset="0.6431" style="stop-color:#F8C62E"/>
			<stop  offset="0.7" style="stop-color:#FBCB2E"/>
			<stop  offset="0.7072" style="stop-color:#FBCC33"/>
			<stop  offset="0.7506" style="stop-color:#F9D54A"/>
			<stop  offset="0.796" style="stop-color:#F8DA5C"/>
			<stop  offset="0.8442" style="stop-color:#F7DE66"/>
			<stop  offset="0.9" style="stop-color:#F7DF6A"/>
		</linearGradient>
		<path class="st1" d="M78.5,56c-0.4,0-0.8,0-1,0c-0.1,0-0.2,0-0.2,0c-0.1,0-0.3,0-0.5,0c-0.3,0-0.7,0-1.1,0c-0.2,0-0.4,0-0.4,0.2
			c0,0.2,0.2,0.2,0.3,0.2c0.2,0,0.5,0,0.7,0.1c0.3,0.1,0.4,0.3,0.4,1.1l0.1,5.8c-0.1-0.1-0.5-0.5-0.9-0.9c-0.6-0.6-1.4-1.5-1.9-2
			c-1.9-1.9-3.9-3.9-4-4.1c0,0-0.1-0.1-0.1-0.1c-0.2-0.2-0.3-0.3-0.4-0.3c-0.2,0-0.2,0.4-0.2,0.5L69,64.2c0,1.1-0.1,1.4-0.4,1.5
			c-0.2,0.1-0.4,0.1-0.6,0.1c-0.2,0-0.3,0.1-0.3,0.2c0,0.2,0.2,0.2,0.4,0.2c0.5,0,0.9,0,1.2,0c0.1,0,0.2,0,0.2,0c0.1,0,0.2,0,0.4,0
			c0.3,0,0.7,0,1.3,0c0.1,0,0.4,0,0.4-0.2c0-0.2-0.2-0.2-0.3-0.2c-0.2,0-0.4,0-0.7-0.1c-0.2-0.1-0.4-0.3-0.4-1.3L70,59
			c0,0,0.1,0.1,0.1,0.1c0.5,0.5,1.7,1.8,2.9,2.9c0.6,0.5,1.2,1.1,1.7,1.7c0.8,0.8,1.6,1.6,2.1,2.1c0.2,0.2,0.3,0.3,0.5,0.3
			c0.2,0,0.2-0.3,0.2-0.5l0.1-8.2c0-0.7,0.1-0.9,0.4-1c0.1,0,0.2,0,0.4,0c0.3,0,0.3-0.1,0.3-0.2C78.9,56,78.6,56,78.5,56z"/>
		<linearGradient id="SVGID_2_" gradientUnits="userSpaceOnUse" x1="10.8532" y1="64.7823" x2="88.7231" y2="-13.0876">
			<stop  offset="0" style="stop-color:#F8C330"/>
			<stop  offset="4.043353e-002" style="stop-color:#F8C533"/>
			<stop  offset="7.842258e-002" style="stop-color:#F7CA3E"/>
			<stop  offset="0.1153" style="stop-color:#F7D350"/>
			<stop  offset="0.15" style="stop-color:#F7DF6A"/>
			<stop  offset="0.5" style="stop-color:#D28A2A"/>
			<stop  offset="0.5356" style="stop-color:#DF9F2B"/>
			<stop  offset="0.5888" style="stop-color:#EEB72D"/>
			<stop  offset="0.6431" style="stop-color:#F8C62E"/>
			<stop  offset="0.7" style="stop-color:#FBCB2E"/>
			<stop  offset="0.7072" style="stop-color:#FBCC33"/>
			<stop  offset="0.7506" style="stop-color:#F9D54A"/>
			<stop  offset="0.796" style="stop-color:#F8DA5C"/>
			<stop  offset="0.8442" style="stop-color:#F7DE66"/>
			<stop  offset="0.9" style="stop-color:#F7DF6A"/>
		</linearGradient>
		<path class="st2" d="M15.3,60l-0.4-0.3c-1.2-0.8-1.6-1.2-1.6-1.8c0-0.8,0.7-1.2,1.8-1.2c0.9,0,1.4,0.3,1.6,0.6
			c0.3,0.3,0.4,0.7,0.4,0.8c0,0.2,0.1,0.3,0.2,0.3c0.3,0,0.3-0.3,0.3-0.5c0-0.7,0-1.1,0-1.3c0-0.1,0-0.2,0-0.2
			c0-0.2-0.2-0.2-0.3-0.2c-0.5-0.1-1.1-0.2-2.1-0.2c-2.2,0-3.7,1-3.7,2.5c0,1.1,0.7,2,2.4,3.1l0.7,0.5c1.3,0.8,1.5,1.3,1.5,2
			c0,0.7-0.7,1.4-2,1.4c-0.6,0-1.8-0.2-2.2-1.2c-0.1-0.2-0.1-0.5-0.1-0.6c0-0.2-0.1-0.3-0.2-0.3c-0.2,0-0.3,0.3-0.3,0.4l0,0
			c0,0.2-0.1,1-0.1,1.6c0,0.3,0.1,0.4,0.4,0.5c0.7,0.2,1.4,0.3,2.3,0.3c1,0,1.8-0.2,2.5-0.5c1.3-0.7,1.5-1.7,1.5-2.3
			C17.9,62.1,17.2,61.2,15.3,60z"/>
		<linearGradient id="SVGID_3_" gradientUnits="userSpaceOnUse" x1="-3.0657" y1="99.1575" x2="104.4866" y2="-8.3947">
			<stop  offset="0" style="stop-color:#F8C330"/>
			<stop  offset="4.043353e-002" style="stop-color:#F8C533"/>
			<stop  offset="7.842258e-002" style="stop-color:#F7CA3E"/>
			<stop  offset="0.1153" style="stop-color:#F7D350"/>
			<stop  offset="0.15" style="stop-color:#F7DF6A"/>
			<stop  offset="0.5" style="stop-color:#D28A2A"/>
			<stop  offset="0.5356" style="stop-color:#DF9F2B"/>
			<stop  offset="0.5888" style="stop-color:#EEB72D"/>
			<stop  offset="0.6431" style="stop-color:#F8C62E"/>
			<stop  offset="0.7" style="stop-color:#FBCB2E"/>
			<stop  offset="0.7072" style="stop-color:#FBCC33"/>
			<stop  offset="0.7506" style="stop-color:#F9D54A"/>
			<stop  offset="0.796" style="stop-color:#F8DA5C"/>
			<stop  offset="0.8442" style="stop-color:#F7DE66"/>
			<stop  offset="0.9" style="stop-color:#F7DF6A"/>
		</linearGradient>
		<path class="st3" d="M36.9,65.8c-0.2,0-0.5,0-0.7-0.1c-0.3,0-0.4-0.2-0.5-0.6c-0.1-0.6-0.1-1.6-0.1-2.9v-2.3c0-2,0-2.4,0-2.8
			c0-0.5,0.1-0.6,0.4-0.7c0.2,0,0.3,0,0.4,0c0.1,0,0.3,0,0.3-0.2c0-0.2-0.3-0.2-0.3-0.2c-0.3,0-0.6,0-1,0c-0.3,0-0.5,0-0.6,0
			c-0.2,0-0.4,0-0.7,0c-0.3,0-0.7,0-1,0c-0.1,0-0.4,0-0.4,0.2c0,0.2,0.2,0.2,0.3,0.2c0.2,0,0.3,0,0.5,0.1c0.2,0.1,0.4,0.3,0.4,0.7
			c0,0.4,0,0.8,0,2.8v2.3c0,1.3,0,2.3-0.1,2.9c0,0.4-0.1,0.6-0.3,0.6c-0.2,0-0.3,0.1-0.5,0.1c-0.2,0-0.3,0.1-0.3,0.2
			c0,0.1,0.1,0.2,0.3,0.2c0.3,0,0.7,0,1,0c0.3,0,0.5,0,0.6,0c0.1,0,0.3,0,0.6,0c0.4,0,0.9,0,1.4,0c0.3,0,0.3-0.1,0.3-0.2
			C37.2,65.9,37.2,65.8,36.9,65.8z"/>
		<linearGradient id="SVGID_4_" gradientUnits="userSpaceOnUse" x1="20.2106" y1="88.3218" x2="71.7316" y2="36.8007">
			<stop  offset="0" style="stop-color:#F8C330"/>
			<stop  offset="4.043353e-002" style="stop-color:#F8C533"/>
			<stop  offset="7.842258e-002" style="stop-color:#F7CA3E"/>
			<stop  offset="0.1153" style="stop-color:#F7D350"/>
			<stop  offset="0.15" style="stop-color:#F7DF6A"/>
			<stop  offset="0.5" style="stop-color:#D28A2A"/>
			<stop  offset="0.5356" style="stop-color:#DF9F2B"/>
			<stop  offset="0.5888" style="stop-color:#EEB72D"/>
			<stop  offset="0.6431" style="stop-color:#F8C62E"/>
			<stop  offset="0.7" style="stop-color:#FBCB2E"/>
			<stop  offset="0.7072" style="stop-color:#FBCC33"/>
			<stop  offset="0.7506" style="stop-color:#F9D54A"/>
			<stop  offset="0.796" style="stop-color:#F8DA5C"/>
			<stop  offset="0.8442" style="stop-color:#F7DE66"/>
			<stop  offset="0.9" style="stop-color:#F7DF6A"/>
		</linearGradient>
		<path class="st4" d="M51.8,61c-0.2,0-0.5,0-0.8,0c-0.3,0-0.5,0-0.7,0c-0.2,0-0.4,0-0.7,0c-0.4,0-0.8,0-1.2,0c-0.1,0-0.3,0-0.3,0.2
			c0,0.1,0,0.2,0.3,0.2c0.2,0,0.4,0,0.5,0c0.4,0.1,0.5,0.2,0.5,0.7c0,0.4,0,0.9,0,1.5v1.2c0,0.2-0.1,0.3-0.2,0.4
			c-0.3,0.1-0.7,0.1-1.1,0.1c-2.6,0-4.5-1.9-4.5-4.7c0-1.4,0.4-2.4,1.2-3.1c0.8-0.7,1.7-0.8,2.5-0.8c1.5,0,2.5,0.6,2.8,1
			c0.3,0.4,0.4,0.8,0.4,1c0,0.1,0,0.2,0.2,0.2c0.2,0,0.2-0.2,0.2-0.3c0-1.2,0.1-1.7,0.1-1.9c0-0.1,0-0.1,0-0.2
			c0-0.1-0.1-0.2-0.3-0.2c-0.3,0-0.8-0.1-1-0.1c-0.3-0.1-1.4-0.2-2.3-0.2c-1,0-2.2,0.1-3.5,0.8c-1.4,0.9-2.3,2.4-2.3,4.2
			c0,3.7,3.1,5.1,6.1,5.1c0.6,0,2.1-0.1,3.2-0.6c0.2-0.1,0.2-0.2,0.2-0.5v-1.4c0-0.6,0-1.1,0-1.5c0-0.4,0.1-0.6,0.4-0.7
			c0.2,0,0.2,0,0.3,0c0.2,0,0.2-0.1,0.2-0.2C52.1,61,51.9,61,51.8,61z"/>
		<linearGradient id="SVGID_5_" gradientUnits="userSpaceOnUse" x1="25.4924" y1="95.4858" x2="73.0375" y2="47.9407">
			<stop  offset="0" style="stop-color:#F8C330"/>
			<stop  offset="4.043353e-002" style="stop-color:#F8C533"/>
			<stop  offset="7.842258e-002" style="stop-color:#F7CA3E"/>
			<stop  offset="0.1153" style="stop-color:#F7D350"/>
			<stop  offset="0.15" style="stop-color:#F7DF6A"/>
			<stop  offset="0.5" style="stop-color:#D28A2A"/>
			<stop  offset="0.5356" style="stop-color:#DF9F2B"/>
			<stop  offset="0.5888" style="stop-color:#EEB72D"/>
			<stop  offset="0.6431" style="stop-color:#F8C62E"/>
			<stop  offset="0.7" style="stop-color:#FBCB2E"/>
			<stop  offset="0.7072" style="stop-color:#FBCC33"/>
			<stop  offset="0.7506" style="stop-color:#F9D54A"/>
			<stop  offset="0.796" style="stop-color:#F8DA5C"/>
			<stop  offset="0.8442" style="stop-color:#F7DE66"/>
			<stop  offset="0.9" style="stop-color:#F7DF6A"/>
		</linearGradient>
		<path class="st5" d="M60,56c-3.7,0-5.4,2.6-5.4,5.1c0,2.4,1.7,5.1,5.3,5.1c3.2,0,5.5-2.2,5.5-5.3C65.3,57.8,63.3,56,60,56z
			 M60.4,65.3c-2.3,0-3.9-1.9-3.9-4.7c0-3.4,2-3.9,3.1-3.9c2.2,0,3.7,1.9,3.7,4.6C63.4,65,61.3,65.3,60.4,65.3z"/>
		<linearGradient id="SVGID_6_" gradientUnits="userSpaceOnUse" x1="15.2805" y1="73.4309" x2="62.9757" y2="25.7357">
			<stop  offset="0" style="stop-color:#F8C330"/>
			<stop  offset="4.043353e-002" style="stop-color:#F8C533"/>
			<stop  offset="7.842258e-002" style="stop-color:#F7CA3E"/>
			<stop  offset="0.1153" style="stop-color:#F7D350"/>
			<stop  offset="0.15" style="stop-color:#F7DF6A"/>
			<stop  offset="0.5" style="stop-color:#D28A2A"/>
			<stop  offset="0.5356" style="stop-color:#DF9F2B"/>
			<stop  offset="0.5888" style="stop-color:#EEB72D"/>
			<stop  offset="0.6431" style="stop-color:#F8C62E"/>
			<stop  offset="0.7" style="stop-color:#FBCB2E"/>
			<stop  offset="0.7072" style="stop-color:#FBCC33"/>
			<stop  offset="0.7506" style="stop-color:#F9D54A"/>
			<stop  offset="0.796" style="stop-color:#F8DA5C"/>
			<stop  offset="0.8442" style="stop-color:#F7DE66"/>
			<stop  offset="0.9" style="stop-color:#F7DF6A"/>
		</linearGradient>
		<path class="st6" d="M30.3,65.7c-0.1,0-0.3,0-0.5,0c-0.3-0.1-0.6-0.3-1.1-1.4c-0.5-1.1-1.3-3.1-2-4.8c-0.6-1.5-1.1-2.7-1.2-3
			C25.3,56.1,25.2,56,25,56c-0.2,0-0.3,0.2-0.4,0.6l-3.3,8c-0.3,0.7-0.5,1-1,1.1c-0.1,0-0.3,0-0.4,0c-0.2,0-0.2,0.1-0.2,0.2
			c0,0.2,0.2,0.2,0.3,0.2c0.5,0,0.9,0,1.3,0c0.1,0,0.2,0,0.3,0c0.2,0,0.4,0,0.7,0c0.2,0,0.5,0,0.7,0c0.1,0,0.3,0,0.3-0.2
			c0-0.2-0.2-0.2-0.3-0.2h-0.2c-0.4,0-0.4-0.2-0.4-0.3c0-0.1,0.1-0.4,0.2-0.8l2.2-5.8c0,0,0,0,0,0l2.5,6.7c0,0,0,0.1,0,0.1
			c0,0,0,0.1-0.1,0.1c-0.1,0-0.2,0-0.2,0.2c0,0.2,0.2,0.2,0.4,0.2l0.1,0c1,0,2,0,2.5,0c0.4,0,0.7,0,0.7-0.2
			C30.5,65.7,30.4,65.7,30.3,65.7z"/>
	</g>
	<linearGradient id="SVGID_7_" gradientUnits="userSpaceOnUse" x1="26.2369" y1="41.1431" x2="61.5685" y2="5.8115">
		<stop  offset="0" style="stop-color:#F8C330"/>
		<stop  offset="4.043353e-002" style="stop-color:#F8C533"/>
		<stop  offset="7.842258e-002" style="stop-color:#F7CA3E"/>
		<stop  offset="0.1153" style="stop-color:#F7D350"/>
		<stop  offset="0.15" style="stop-color:#F7DF6A"/>
		<stop  offset="0.5" style="stop-color:#D28A2A"/>
		<stop  offset="0.5356" style="stop-color:#DF9F2B"/>
		<stop  offset="0.5888" style="stop-color:#EEB72D"/>
		<stop  offset="0.6431" style="stop-color:#F8C62E"/>
		<stop  offset="0.7" style="stop-color:#FBCB2E"/>
		<stop  offset="0.7072" style="stop-color:#FBCC33"/>
		<stop  offset="0.7506" style="stop-color:#F9D54A"/>
		<stop  offset="0.796" style="stop-color:#F8DA5C"/>
		<stop  offset="0.8442" style="stop-color:#F7DE66"/>
		<stop  offset="0.9" style="stop-color:#F7DF6A"/>
	</linearGradient>
	<path class="st7" d="M68.6,30.3c-0.1-0.1-0.2-0.1-0.3-0.1c-0.2,0-3.1,0.1-7.2,0.3v-8.2c0-0.1,0.1-1.5,1.8-2.1
		c0.8-0.2,1.1-0.7,1.2-1.1c0.2-0.6,0-1.3-0.3-1.7c0.9-1.1,1.4-2.5,1.4-3.8c-0.1-2.4-1.7-3.9-2.7-4.8c-0.3-0.3-0.9-0.5-1.4-0.3
		c-0.4,0.2-0.8,0.6-0.8,1.6v5.1c-0.8-0.4-1.5-1-1.6-2.1c-0.3-2.8,2.3-7.5,2.3-7.6c0.1-0.2,0-0.4-0.1-0.5c-0.2-0.1-0.4-0.1-0.5,0.1
		c-0.1,0.1-1.7,2-2.9,4.3c-1.6,3.3-1.6,5.9,0.1,7.5c1,1,1.9,1.4,2.7,1.6v11.7c-2.1,0.1-4.6,0.2-7.2,0.4v-5.3c1.6-1,2.6-2.5,2.6-4.1
		c0-0.6-0.1-1.2-0.3-1.7c0.4-0.5,0.7-1,0.8-1.6c0.1-1-0.3-2-1.2-3.1c-0.5-0.6-1.1-1.1-1.6-1.5c-0.1-0.1-0.2-0.2-0.3-0.3V7.8l0-0.7
		c0-0.1-0.1-0.3-0.2-0.3c-0.1-0.1-0.3-0.1-0.4,0c-0.1,0.1-3.2,2.3-3.2,5.6c0,1.9,1,3.8,3,5.5v3.3c-0.6,0.5-1.1,1.1-1.2,1.8
		c-0.1,0.8,0.3,1.6,1.2,2.6v5.4c-2.3,0.1-4.7,0.3-7.1,0.5v-9.3c1.4-1,2-1.8,1.8-2.7c-0.1-0.7-0.9-1-1.8-1.5v-2.1c0,0,0,0,0.1,0
		c1.7-0.5,3.3-3.5,3.6-6.1c0.1-0.6,0.1-1.5-0.3-2c-0.2-0.3-0.6-0.5-1-0.5c-0.6-0.1-1.1,0.1-1.6,0.5c-1.5,1.4-1.5,5.1-1.5,5.2v2.2
		c-0.2-0.1-0.4-0.3-0.6-0.6c-1.6-2.3-1.1-8.2,1-10.5c0.8-0.9,1.7-1.1,2.7-0.6c0.1,0.1,0.3,0.1,0.4-0.1c0.1-0.1,0.2-0.3,0.1-0.4
		c0,0-0.9-2-3.9-0.7c-2.5,1-5.3,6.1-4.2,11.7c0.5,2.7,2.8,3.8,4.5,4.5v13c-3,0.2-5.6,0.4-7.9,0.7c0,0,0-0.1,0-0.1v-9.8
		c1.1-0.4,1.9-2.1,2-3.6c0.1-1-0.2-1.8-0.8-2.1c-0.4-0.2-0.9-0.1-1.4,0.3c-0.6,0.6-0.6,1.8-0.5,2v2.6c-0.4-0.2-0.8-0.8-1-1.2
		c-0.3-0.7-0.5-1.5-0.5-2.5c1.1-0.6,2.5-2.3,4.3-5.1c0.9-1.4,0.7-2.5,0.1-2.9c-0.5-0.4-1.4-0.5-2.4,0.4c-1.3,1.2-2.5,4.3-2.7,7.1
		c-0.1,0-0.2,0-0.2,0c-0.2,0-0.3-0.3-0.4-0.6c-0.4-1.8,1-5.9,3.3-7.4c0.2-0.1,0.2-0.3,0.1-0.5c-0.1-0.2-0.3-0.2-0.5-0.1
		c-2.6,1.7-4.1,6.2-3.7,8.2c0.2,0.9,0.7,1.1,1,1.1c0.1,0,0.2,0,0.3,0c0,1,0.2,1.9,0.5,2.6c0.6,1.1,1.2,1.5,1.7,1.7V32
		c0,0.1,0,0.1,0.1,0.2c-2.7,0.3-5,0.5-6.8,0.8v-7.9c0-2,1.1-3.7,1.8-4.9c0.3-0.4,0.5-0.8,0.6-1c0.2-0.6,0.1-1-0.1-1.3
		c-0.3-0.6-1-0.8-1.3-0.9c-0.4-0.1-0.7-0.2-1-0.4v-3.4c1.6-0.6,3.1-1.4,3.7-2.6c0.5-1.1,0.2-2.4-0.6-3.1c-0.5-0.4-1.8-1.3-4.2,0.1
		c-1.8,1-2.7,2.8-2.4,5c0.1,0.4,0.1,0.7,0.2,1c-0.7,0.4-1.1,0.9-1.2,1.6c-0.2,1.2,0.6,2.6,2.1,3.8c1.6,1.2,1.7,3.5,1.7,3.9v10.3
		c-7.3,1.1-7.3,2.1-7.3,2.6c0,1.5,2.7,2.5,16.7,3.4c0,0,0,0,0,0c0.2,0,0.4-0.2,0.4-0.4c0-0.2-0.1-0.4-0.4-0.4c-4-0.3-16-1-16-2.6
		c0-0.2,0.6-1.9,22.8-3.5c11.5-0.8,23.1-1.2,23.6-1.3c0.2,0,0.4-0.2,0.4-0.4C68.8,30.5,68.7,30.4,68.6,30.3z M61.2,10.2
		c0-0.5,0.1-0.8,0.3-0.9c0.2-0.1,0.4,0,0.5,0.1c0.9,0.8,2.4,2.2,2.5,4.3c0,1-0.4,2.2-1.1,3.2c-0.6-0.5-1.3-0.8-2-1.1
		c-0.1,0-0.2-0.1-0.2-0.1V10.2z M61.2,16.5c0.6,0.3,1.3,0.5,1.7,0.9c-0.2,0.2-0.5,0.3-0.7,0.5c-0.3,0.1-0.6,0.2-1,0.2V16.5z
		 M61.2,18.9c0.5,0,1-0.1,1.3-0.3c0.3-0.1,0.6-0.3,0.9-0.6c0.1,0.3,0.2,0.6,0.1,0.9c-0.1,0.3-0.3,0.5-0.7,0.6
		c-0.7,0.2-1.2,0.6-1.6,1V18.9z M58.3,16.7c-2-2-0.8-5.2,0.6-7.6c-0.5,1.4-0.9,3.1-0.8,4.4c0.2,1.6,1.3,2.3,2.4,2.8V18
		C59.7,17.9,59,17.4,58.3,16.7z M55.1,21.5c-0.1,1.2-0.8,2.4-1.9,3.2v-3.1c0.3-0.2,0.6-0.4,0.9-0.6c0.3-0.2,0.6-0.4,0.8-0.6
		C55.1,20.8,55.1,21.2,55.1,21.5z M54.5,15.7c0.8,0.9,1.1,1.7,1,2.5c-0.1,0.3-0.2,0.7-0.4,1c-0.2-0.3-0.5-0.6-0.9-0.8
		c-0.4-0.3-0.7-0.5-1-0.8v-3.1C53.7,14.9,54.1,15.3,54.5,15.7z M52.5,8.2v4.6c-0.5-0.5-0.9-1.1-1-1.9C51.3,9.7,52,8.7,52.5,8.2z
		 M50.2,12.4c0-0.8,0.2-1.6,0.5-2.2c0,0.3,0,0.5,0,0.8c0.2,1.2,0.9,2,1.7,2.8v3.1C51,15.5,50.2,14,50.2,12.4z M53.2,18.5
		c0.2,0.1,0.4,0.3,0.6,0.4c0.3,0.2,0.6,0.5,0.8,0.8c-0.2,0.2-0.5,0.4-0.8,0.6c-0.2,0.1-0.4,0.2-0.5,0.3V18.5z M52,23.1
		c0-0.3,0.2-0.6,0.5-0.9v2.2C52.1,23.9,52,23.5,52,23.1z M37.1,10.7c0.4-0.3,0.7-0.5,1-0.5c0.1,0,0.3,0,0.3,0.1c0.3,0.3,0.3,1-0.3,2
		c-1.7,2.7-2.9,4-3.6,4.5C34.9,14.4,36,11.7,37.1,10.7z M37.1,17.4c0.1-0.1,0.2-0.2,0.4-0.2c0,0,0.1,0,0.1,0
		c0.2,0.1,0.4,0.6,0.4,1.3c-0.1,1.2-0.6,2.4-1.2,2.8v-2.6C36.8,18.4,36.8,17.6,37.1,17.4z M30.2,17.7c0.3,0.1,0.6,0.2,0.8,0.5
		c0.1,0.2,0.1,0.4,0,0.7c-0.1,0.2-0.3,0.5-0.5,0.9c-0.3,0.5-0.8,1.3-1.1,2.1v-4.5C29.6,17.6,29.9,17.7,30.2,17.7z M28.6,16.1
		c-0.7-0.6-1.3-1.3-1.6-2.2l0.3-0.1c0.4-0.1,0.9-0.3,1.3-0.4V16.1z M30.5,7.5c0.5,0,0.9,0.2,1.3,0.5c0.6,0.5,0.8,1.5,0.5,2.3
		c-0.4,0.9-1.6,1.6-3,2.1V7.7C29.8,7.6,30.2,7.5,30.5,7.5z M28.5,8.1C28.5,8.1,28.5,8.1,28.5,8.1l0.1,4.5c-0.5,0.2-1,0.3-1.5,0.5
		l-0.4,0.1c-0.1-0.3-0.2-0.6-0.2-0.9C26.2,10.5,26.9,9,28.5,8.1z M27.3,18.3c-1.3-1-2-2.2-1.8-3.1c0.1-0.5,0.4-0.8,0.7-1
		c0.5,1.2,1.3,2.1,2.3,2.8v2.8C28.3,19.3,27.9,18.7,27.3,18.3z M46.5,19.6c0.1,0.4-0.3,1-1.1,1.6v-2.4C46,19.1,46.5,19.4,46.5,19.6z
		 M46.6,8.3c0.2-0.2,0.5-0.3,0.8-0.3c0,0,0.1,0,0.2,0c0.2,0,0.4,0.1,0.5,0.2c0.2,0.3,0.3,0.7,0.2,1.5c-0.3,2.5-1.6,5-2.9,5.5v-2.2
		C45.4,11.9,45.6,9.2,46.6,8.3z M40.9,13.8C39.9,8.7,42.5,3.9,44.7,3c0.3-0.1,0.6-0.2,0.8-0.3c-0.4,0.2-0.7,0.5-1,0.8
		c-2.3,2.6-2.9,8.9-1.1,11.5c0.4,0.6,0.9,0.8,1.3,0.9v1.7C43.1,16.9,41.4,15.9,40.9,13.8z"/>
</g>
</svg>
