<?xml version="1.0" encoding="utf-8"?>
<!-- Generator: Adobe Illustrator 19.1.0, SVG Export Plug-In . SVG Version: 6.00 Build 0)  -->
<svg version="1.1" id="Layer_1" xmlns="http://www.w3.org/2000/svg" xmlns:xlink="http://www.w3.org/1999/xlink" x="0px" y="0px"
	 viewBox="0 0 40 40" style="enable-background:new 0 0 40 40;" xml:space="preserve">
<style type="text/css">
	.st0{opacity:0.88;fill:#144632;}
	.st1{fill:url(#SVGID_5_);}
	.st2{fill:url(#SVGID_6_);}
	.st3{fill:url(#SVGID_7_);}
	.st4{fill:url(#SVGID_8_);}
	.st5{fill:url(#SVGID_9_);}
	.st6{fill:url(#SVGID_10_);}
	.st7{fill:url(#SVGID_11_);}
	.st8{fill:url(#SVGID_12_);}
	.st9{fill:url(#SVGID_13_);}
	.st10{fill:url(#SVGID_14_);}
	.st11{fill:url(#SVGID_19_);}
	.st12{fill:url(#SVGID_20_);}
	.st13{fill:url(#SVGID_21_);}
	.st14{fill:url(#SVGID_22_);}
	.st15{fill:url(#SVGID_23_);}
	.st16{fill:url(#SVGID_24_);}
	.st17{fill:url(#SVGID_25_);}
	.st18{fill:url(#SVGID_26_);}
	.st19{fill:url(#SVGID_27_);}
	.st20{fill:url(#SVGID_28_);}
	.st21{fill:url(#SVGID_33_);}
	.st22{fill:url(#SVGID_34_);}
	.st23{fill:url(#SVGID_35_);}
	.st24{fill:url(#SVGID_36_);}
	.st25{fill:url(#SVGID_37_);}
	.st26{fill:url(#SVGID_38_);}
	.st27{fill:url(#SVGID_39_);}
	.st28{fill:url(#SVGID_40_);}
	.st29{fill:url(#SVGID_41_);}
	.st30{fill:url(#SVGID_42_);}
	.st31{fill:url(#SVGID_43_);}
	.st32{fill:url(#SVGID_48_);}
	.st33{fill:url(#SVGID_49_);}
	.st34{fill:url(#SVGID_50_);}
	.st35{fill:url(#SVGID_51_);}
	.st36{fill:url(#SVGID_52_);}
	.st37{fill:url(#SVGID_53_);}
	.st38{fill:url(#SVGID_54_);}
	.st39{fill:url(#SVGID_55_);}
	.st40{fill:url(#SVGID_56_);}
	.st41{fill:url(#SVGID_57_);}
	.st42{fill:url(#SVGID_58_);}
	.st43{fill:url(#SVGID_59_);}
	.st44{fill:url(#SVGID_60_);}
	.st45{fill:url(#SVGID_61_);}
	.st46{fill:url(#SVGID_62_);}
	.st47{fill:url(#SVGID_63_);}
	.st48{fill:url(#SVGID_64_);}
	.st49{fill:url(#SVGID_65_);}
	.st50{fill:url(#SVGID_66_);}
	.st51{fill:url(#SVGID_67_);}
	.st52{fill:url(#SVGID_68_);}
	.st53{fill:url(#SVGID_69_);}
	.st54{fill:url(#SVGID_70_);}
	.st55{fill:url(#SVGID_71_);}
	.st56{fill:url(#SVGID_72_);}
	.st57{fill:url(#SVGID_73_);}
	.st58{fill:url(#SVGID_74_);}
	.st59{fill:url(#SVGID_79_);}
	.st60{fill:url(#SVGID_80_);}
	.st61{fill:url(#SVGID_81_);}
	.st62{fill:url(#SVGID_82_);}
	.st63{fill:url(#SVGID_83_);}
	.st64{fill:url(#SVGID_84_);}
	.st65{fill:url(#SVGID_85_);}
	.st66{fill:url(#SVGID_86_);}
	.st67{fill:url(#SVGID_87_);}
	.st68{fill:url(#SVGID_88_);}
	.st69{fill:url(#SVGID_89_);}
	.st70{fill:url(#SVGID_90_);}
	.st71{fill:url(#SVGID_91_);}
	.st72{fill:url(#SVGID_92_);}
	.st73{fill:url(#SVGID_93_);}
	.st74{fill:url(#SVGID_94_);}
	.st75{fill:url(#SVGID_95_);}
	.st76{fill:url(#SVGID_96_);}
	.st77{fill:url(#SVGID_97_);}
	.st78{fill:url(#SVGID_98_);}
	.st79{fill:url(#SVGID_99_);}
	.st80{fill:url(#SVGID_104_);}
	.st81{fill:url(#SVGID_105_);}
	.st82{fill:url(#SVGID_106_);}
	.st83{fill:url(#SVGID_107_);}
	.st84{fill:url(#SVGID_108_);}
	.st85{fill:url(#SVGID_109_);}
	.st86{fill:url(#SVGID_110_);}
	.st87{fill:url(#SVGID_111_);}
	.st88{fill:url(#SVGID_112_);}
	.st89{fill:url(#SVGID_113_);}
	.st90{fill:url(#SVGID_114_);}
	.st91{fill:url(#SVGID_115_);}
	.st92{fill:url(#SVGID_116_);}
	.st93{fill:url(#SVGID_117_);}
	.st94{fill:url(#SVGID_118_);}
	.st95{fill:url(#SVGID_119_);}
	.st96{fill:url(#SVGID_120_);}
	.st97{fill:url(#SVGID_121_);}
	.st98{fill:url(#SVGID_122_);}
	.st99{fill:url(#SVGID_123_);}
	.st100{fill:#232222;}
	.st101{fill:#144632;}
	.st102{fill:#3D3D3D;}
	.st103{fill:none;stroke:#144632;stroke-width:2;stroke-miterlimit:10;}
	.st104{fill:none;stroke:#144632;stroke-miterlimit:10;}
	.st105{fill:#008848;}
	.st106{fill:url(#SVGID_132_);}
	.st107{fill:url(#SVGID_133_);}
	.st108{fill:url(#SVGID_134_);}
	.st109{fill:url(#SVGID_135_);}
	.st110{fill:url(#SVGID_136_);}
	.st111{fill:url(#SVGID_137_);}
	.st112{fill:url(#SVGID_138_);}
	.st113{fill:#07777B;}
	.st114{fill:#F58720;}
	.st115{fill:none;stroke:#232222;stroke-miterlimit:10;}
	.st116{fill:#FCFCFC;}
	.st117{fill:url(#SVGID_139_);}
	.st118{fill:url(#SVGID_140_);}
	.st119{fill:url(#SVGID_141_);}
	.st120{fill:url(#SVGID_142_);}
	.st121{fill:url(#SVGID_143_);}
	.st122{fill:url(#SVGID_144_);}
	.st123{fill:url(#SVGID_145_);}
	.st124{fill:url(#SVGID_146_);}
	.st125{fill:url(#SVGID_147_);}
	.st126{fill:url(#SVGID_148_);}
	.st127{fill:url(#SVGID_149_);}
	.st128{fill:url(#SVGID_150_);}
	.st129{fill:url(#SVGID_151_);}
	.st130{fill:url(#SVGID_152_);}
	.st131{fill:url(#SVGID_153_);}
	.st132{fill:url(#SVGID_154_);}
	.st133{filter:url(#Adobe_OpacityMaskFilter);}
	.st134{fill:url(#SVGID_156_);}
	.st135{mask:url(#SVGID_155_);}
	.st136{fill:url(#SVGID_157_);}
	.st137{clip-path:url(#SVGID_159_);}
	.st138{fill:#8EBA7E;}
	.st139{fill:url(#SVGID_160_);}
	.st140{fill:url(#SVGID_161_);}
	.st141{opacity:0.8;}
	.st142{fill:url(#SVGID_162_);}
	.st143{clip-path:url(#SVGID_164_);}
	.st144{fill:#6A8C60;}
	.st145{clip-path:url(#SVGID_164_);fill:#6A8C60;}
	.st146{clip-path:url(#SVGID_164_);fill:url(#SVGID_165_);}
	.st147{opacity:0.8;clip-path:url(#SVGID_164_);}
	.st148{fill:url(#SVGID_166_);}
	.st149{fill:url(#SVGID_167_);}
	.st150{clip-path:url(#SVGID_169_);}
	.st151{fill:url(#SVGID_170_);}
	.st152{fill:url(#SVGID_171_);}
	.st153{clip-path:url(#SVGID_173_);}
	.st154{fill:url(#SVGID_174_);}
	.st155{clip-path:url(#SVGID_176_);}
	.st156{fill:url(#SVGID_177_);}
	.st157{fill:url(#SVGID_178_);}
	.st158{fill:url(#SVGID_179_);}
	.st159{fill:url(#SVGID_180_);}
	.st160{fill:url(#SVGID_181_);}
	.st161{fill:url(#SVGID_182_);}
	.st162{fill:url(#SVGID_183_);}
	.st163{fill:url(#SVGID_184_);}
	.st164{fill:url(#SVGID_185_);}
	.st165{fill:url(#SVGID_186_);}
	.st166{fill:url(#SVGID_187_);}
	.st167{fill:url(#SVGID_188_);}
	.st168{fill:url(#SVGID_189_);}
	.st169{fill:url(#SVGID_190_);}
	.st170{fill:url(#SVGID_191_);}
	.st171{fill:url(#SVGID_192_);}
	.st172{fill:url(#SVGID_193_);}
	.st173{fill:url(#SVGID_194_);}
	.st174{fill:url(#SVGID_195_);}
	.st175{fill:url(#SVGID_196_);}
	.st176{fill:url(#SVGID_197_);}
	.st177{fill:url(#SVGID_198_);}
	.st178{fill:url(#SVGID_199_);}
	.st179{fill:url(#SVGID_200_);}
	.st180{fill:url(#SVGID_201_);}
	.st181{fill:url(#SVGID_202_);}
	.st182{fill:url(#SVGID_203_);}
	.st183{fill:#FFFFFF;}
	.st184{fill:#231F20;}
	.st185{fill:url(#SVGID_224_);}
	.st186{fill:url(#SVGID_225_);}
	.st187{fill:url(#SVGID_226_);}
	.st188{fill:url(#SVGID_227_);}
	.st189{fill:url(#SVGID_228_);}
	.st190{fill:url(#SVGID_229_);}
	.st191{fill:url(#SVGID_230_);}
	.st192{fill:url(#SVGID_231_);}
	.st193{fill:url(#SVGID_232_);}
	.st194{fill:url(#SVGID_233_);}
	.st195{fill:url(#SVGID_234_);}
	.st196{fill:url(#SVGID_235_);}
	.st197{fill:url(#SVGID_236_);}
	.st198{fill:url(#SVGID_237_);}
	.st199{fill:url(#SVGID_238_);}
	.st200{fill:url(#SVGID_239_);}
	.st201{fill:url(#SVGID_240_);}
	.st202{fill:url(#SVGID_241_);}
	.st203{fill:url(#SVGID_242_);}
	.st204{fill:url(#SVGID_243_);}
	.st205{fill:url(#SVGID_244_);}
	.st206{fill:url(#SVGID_245_);}
	.st207{fill:url(#SVGID_246_);}
	.st208{fill:url(#SVGID_247_);}
	.st209{fill:url(#SVGID_248_);}
	.st210{fill:url(#SVGID_249_);}
	.st211{fill:url(#SVGID_250_);}
	.st212{fill-rule:evenodd;clip-rule:evenodd;fill:#144632;}
</style>
<g>
	<g>
		<g>
			<g>
				<path class="st101" d="M20,38.8c-10.5,0-18.9-8.4-18.9-18.9C1.2,9.6,9.6,1.2,20,1.2c10.4,0,18.8,8.2,18.9,18.7
					C38.9,30.4,30.6,38.8,20,38.8z M3.7,19.8c0,9.1,7.1,16.4,16.1,16.5c9,0.1,16.7-7.5,16.6-16.4c-0.1-9-7.4-16.1-16.5-16.1
					C11,3.7,3.8,10.9,3.7,19.8z"/>
			</g>
		</g>
	</g>
	<g>
		<g>
			<g>
				<g>
					<path class="st101" d="M25.9,20c-0.3,2.4-1.1,4.1-3.1,5c-1.1,0.5-1.7,1-1.5,2.3c0.1,0.5,0.5,1.4-0.7,1.4c-1,0-0.9-0.8-0.8-1.4
						c0.1-1.2-0.2-1.9-1.4-2.4c-2.2-0.9-3.3-2.9-3-5.4c0.4-3.1,1.3-6.1,2.8-8.8c1.4-2.4,3.3-2.4,4.7,0C24.5,13.7,25.2,16.9,25.9,20z
						"/>
				</g>
				<g>
					<path class="st101" d="M24,25.6c3.3-2.6,3.1-5.7,2.2-9.1c-0.2-0.7-0.5-1.4-0.7-2c-0.2-0.6-0.3-1.1,0.3-1.5
						c0.6-0.4,1.2-0.3,1.8,0.1c0.7,0.5,1.1,1.1,1.4,1.9c0.6,1.5,1.1,3.1,1.6,4.7c1,3.4,0.4,5-2.6,6.6c-0.9,0.5-0.7,1.1-0.7,1.7
						c-0.1,0.4,0.1,0.9-0.5,1c-0.5,0-0.8-0.3-0.7-0.8C26.2,26.6,25.4,26,24,25.6z"/>
				</g>
				<g>
					<path class="st101" d="M16.9,25.5c-1.3,0.5-2.2,1-1.9,2.5c0.1,0.5-0.1,0.8-0.7,0.8c-0.4,0-0.6-0.3-0.6-0.7
						c0.3-1.5-0.6-1.9-1.6-2.5c-1.7-1.1-2.5-2.8-1.9-5c0.5-1.9,1-3.7,1.8-5.5c0.3-0.8,0.8-1.5,1.5-2c0.7-0.5,1.3-0.4,1.9,0
						c0.7,0.5,0.2,1,0,1.5c-0.1,0.5-0.3,1-0.4,1.4C13.8,19.5,13.6,22.8,16.9,25.5z"/>
				</g>
			</g>
		</g>
	</g>
</g>
</svg>
