<?xml version="1.0" encoding="utf-8"?>
<!-- Generator: Adobe Illustrator 17.0.0, SVG Export Plug-In . SVG Version: 6.00 Build 0)  -->
<!DOCTYPE svg PUBLIC "-//W3C//DTD SVG 1.1//EN" "http://www.w3.org/Graphics/SVG/1.1/DTD/svg11.dtd">
<svg version="1.1" id="Layer_1" xmlns="http://www.w3.org/2000/svg" xmlns:xlink="http://www.w3.org/1999/xlink" x="0px" y="0px"
	 width="90px" height="60px" viewBox="0 0 90 60" enable-background="new 0 0 90 60" xml:space="preserve">
<g id="XMLID_307_">
	<path id="XMLID_340_" fill="#FFFFFF" d="M38.713,14.855c2.563-2.058,5.34-3.691,8.52-4.533c0.856-0.226,1.666-0.392,2.477-0.507
		c2.088-0.296,4.201-0.282,6.283,0.043c2.592,0.406,5.068,1.287,7.358,2.617c2.015,1.17,3.815,2.651,5.348,4.402
		c1.389,1.587,2.529,3.366,3.389,5.287c0.816,1.822,1.372,3.743,1.651,5.711c0.144,1.015,0.214,2.038,0.21,3.063
		c0.243-1.058,0.401-2.136,0.474-3.225c0.149-2.253-0.069-4.503-0.649-6.687c-0.658-2.481-1.752-4.782-3.253-6.84
		c-1.201-1.647-2.64-3.107-4.277-4.338c-0.63-0.474-1.319-0.928-2.048-1.351c-2.756-1.602-5.766-2.522-8.946-2.733
		c-1.429-0.095-2.872-0.041-4.29,0.16c-1.912,0.271-3.728,0.916-5.53,1.593c-9.134,3.433-11.605,12.179-12.048,14.133
		C33.709,21.213,36.374,16.734,38.713,14.855z"/>
	<path id="XMLID_339_" fill="#FFFFFF" d="M73.9,9.959c2.135,2.439,3.702,5.385,4.532,8.519c0.228,0.862,0.394,1.672,0.508,2.477
		c0.296,2.09,0.282,4.204-0.044,6.283c-0.406,2.593-1.287,5.069-2.617,7.359c-1.17,2.017-2.651,3.816-4.402,5.348
		c-1.586,1.389-3.365,2.529-5.287,3.389c-1.82,0.817-3.741,1.372-5.71,1.652c-1.015,0.144-2.039,0.214-3.064,0.21
		c1.058,0.243,2.137,0.402,3.227,0.475c1.422,0.095,2.861,0.041,4.275-0.16c0.809-0.115,1.621-0.279,2.411-0.49
		c2.483-0.659,4.784-1.753,6.84-3.252c1.646-1.201,3.106-2.64,4.338-4.278c0.477-0.635,0.919-1.305,1.351-2.048
		c1.602-2.757,2.522-5.768,2.733-8.947c0.224-3.358-0.382-6.754-1.753-9.82c-1.418-3.169-3.639-5.95-6.424-8.044
		c-0.253-0.19-0.51-0.37-0.772-0.549c-2.504-1.749-5.269-3.041-8.167-3.842C68.944,5.489,71.712,7.46,73.9,9.959z"/>
	<path id="XMLID_338_" fill="#FFFFFF" d="M55.292,5.12c3.235,0.216,6.427,1.191,9.229,2.819c0.755,0.439,1.465,0.907,2.111,1.393
		c1.688,1.268,3.172,2.774,4.411,4.473c1.546,2.12,2.675,4.493,3.354,7.053c0.598,2.251,0.824,4.57,0.669,6.894
		c-0.139,2.103-0.591,4.167-1.341,6.135c-0.71,1.864-1.676,3.616-2.871,5.206c-0.615,0.819-1.289,1.591-2.016,2.313
		c0.919-0.576,1.793-1.226,2.614-1.944c1.698-1.486,3.134-3.231,4.269-5.186c1.29-2.221,2.144-4.622,2.538-7.136
		c0.315-2.013,0.33-4.063,0.043-6.093c-0.112-0.788-0.273-1.574-0.494-2.403c-0.815-3.082-2.294-5.86-4.394-8.258
		c-2.217-2.534-5.047-4.506-8.184-5.704C61.989,3.442,58.451,3.046,55,3.535c-0.314,0.044-0.624,0.099-0.934,0.157
		c-3.007,0.535-5.875,1.576-8.49,3.059c1.691-0.714,3.471-1.207,5.296-1.465C52.333,5.078,53.82,5.022,55.292,5.12z"/>
	<path id="XMLID_337_" fill="#FFFFFF" d="M49.643,12.557c7.884-1.118,15.402,1.831,20.445,7.249
		c-0.558-0.878-1.183-1.716-1.872-2.505c-1.487-1.698-3.232-3.134-5.186-4.269c-2.22-1.288-4.62-2.142-7.136-2.537
		c-2.012-0.315-4.062-0.329-6.093-0.041l-0.016,0.002c-0.774,0.11-1.577,0.275-2.387,0.49c-3.081,0.815-5.86,2.294-8.26,4.394
		c-1.464,1.28-3.509,4.106-4.661,5.996C38.077,16.725,43.394,13.444,49.643,12.557z"/>
	<path id="XMLID_336_" fill="#FFFFFF" d="M54.494,46.966c2.22,1.289,4.621,2.143,7.137,2.538c2.015,0.315,4.065,0.329,6.092,0.042
		c0.788-0.112,1.575-0.273,2.404-0.492c3.082-0.816,5.861-2.295,8.259-4.395c2.534-2.218,4.507-5.048,5.704-8.183
		c1.238-3.244,1.634-6.782,1.144-10.232c-0.044-0.313-0.098-0.622-0.157-0.934c-0.534-3.008-1.576-5.876-3.059-8.493
		c1.289,3.053,1.853,6.404,1.632,9.72c-0.218,3.281-1.167,6.386-2.819,9.228c-0.436,0.751-0.905,1.461-1.393,2.111
		c-1.267,1.687-2.772,3.171-4.473,4.411c-2.119,1.546-4.492,2.674-7.053,3.354c-0.815,0.216-1.65,0.386-2.484,0.504
		c-1.459,0.207-2.943,0.262-4.41,0.164c-2.103-0.139-4.167-0.59-6.135-1.341c-1.093-0.417-2.146-0.923-3.151-1.509l-1.738-0.021
		C51.323,44.816,52.832,46.001,54.494,46.966z"/>
	<path id="XMLID_335_" fill="#FFFFFF" d="M44.094,49.616c2.217,2.534,5.047,4.506,8.184,5.703c3.243,1.239,6.781,1.635,10.231,1.146
		c0.313-0.044,0.622-0.098,0.933-0.156c3.01-0.535,5.879-1.577,8.495-3.061c-1.692,0.715-3.473,1.208-5.299,1.467
		c-1.462,0.207-2.95,0.263-4.422,0.165c-3.235-0.215-6.426-1.189-9.229-2.819c-0.765-0.445-1.455-0.901-2.111-1.393
		c-1.688-1.269-3.173-2.773-4.411-4.473c-0.654-0.896-1.228-1.839-1.728-2.821l-4.395-0.054
		C41.208,45.619,42.477,47.769,44.094,49.616z"/>
	<path id="XMLID_334_" fill="#FFFFFF" d="M33.461,44.184c2.126,3.282,8.878,8.592,18.175,11.575
		c-3.071-1.248-5.839-3.218-8.027-5.719c-1.75-1.999-3.072-4.259-3.962-6.729l-6.709-0.082C33.1,43.551,33.329,43.98,33.461,44.184z
		"/>
	<path id="XMLID_333_" fill="#FFFFFF" d="M78.795,45.145c-2.439,2.135-5.385,3.702-8.519,4.533
		c-0.853,0.226-1.663,0.391-2.478,0.507c-2.091,0.297-4.205,0.282-6.282-0.043c-2.592-0.406-5.068-1.286-7.36-2.616
		c-1.896-1.101-3.598-2.481-5.07-4.098l-3.614-0.044c0.447,0.842,0.948,1.656,1.514,2.432c1.199,1.646,2.638,3.105,4.278,4.338
		c0.632,0.476,1.302,0.918,2.047,1.352c2.755,1.602,5.765,2.521,8.947,2.733c1.428,0.095,2.871,0.041,4.289-0.16
		c1.913-0.271,3.774-0.807,5.531-1.594c3.168-1.417,5.95-3.639,8.045-6.425c0.19-0.252,0.37-0.509,0.549-0.771
		c1.75-2.506,3.042-5.273,3.843-8.173C83.268,40.186,81.297,42.955,78.795,45.145z"/>
	<g id="XMLID_321_">
		<path id="XMLID_331_" fill="#FFFFFF" d="M4.612,26.461h1.99v13.534h-1.99V26.461z"/>
		<path id="XMLID_329_" fill="#FFFFFF" d="M18.312,35.618v-1.611v-7.573h1.989v13.808l-9.708-9.42v1.038v8.173h-1.99V26.325
			L18.312,35.618z"/>
		<path id="XMLID_327_" fill="#FFFFFF" d="M28.297,26.461h3.34v1.793h-3.34h-0.63v0.564v11.177h-1.989V28.818v-0.564h-0.631h-3.339
			v-1.793h3.339H28.297z"/>
		<path id="XMLID_325_" fill="#FFFFFF" d="M41.501,26.434v1.802h-5.849h-0.62V28.8v2.958v0.573h0.62h4.229v1.802h-4.229h-0.62v0.564
			v2.958v0.573h0.62h5.849v1.802h-5.849h-2.61V26.434H41.501z"/>
		<path id="XMLID_323_" fill="#FFFFFF" d="M44.895,26.461v11.177v0.573h0.62h5.849v1.784h-8.459V26.461H44.895z"/>
		<path id="XMLID_322_" fill="#FFFFFF" d="M58.558,26.334l-6.389,13.662h2.13l1.1-2.23c0,0,2.763-6.089,3.169-6.945
			c0.4,0.855,4.249,9.174,4.249,9.174h2.13L58.558,26.334z"/>
	</g>
	<g id="XMLID_308_">
		<path id="XMLID_319_" fill="#FFFFFF" d="M6.55,22.286c0.112-0.045,0.212-0.103,0.302-0.175c0.09-0.072,0.162-0.161,0.217-0.267
			c0.055-0.106,0.082-0.219,0.082-0.339c0.002-0.101-0.019-0.195-0.063-0.283c-0.044-0.088-0.101-0.162-0.169-0.224
			c-0.069-0.062-0.154-0.119-0.256-0.172c-0.101-0.054-0.198-0.097-0.29-0.13C6.282,20.663,6.18,20.631,6.07,20.6
			c-0.249-0.069-0.47-0.158-0.663-0.266c-0.193-0.109-0.363-0.251-0.509-0.427c-0.1-0.12-0.177-0.255-0.231-0.405
			c-0.054-0.15-0.082-0.307-0.082-0.47c0-0.221,0.042-0.43,0.125-0.627s0.199-0.37,0.348-0.518c0.15-0.15,0.324-0.267,0.522-0.35
			c0.198-0.083,0.407-0.125,0.628-0.125c0.201,0,0.392,0.035,0.573,0.104c0.182,0.069,0.346,0.167,0.491,0.293
			c0.244,0.211,0.41,0.473,0.497,0.784L7.02,18.751c-0.041-0.116-0.108-0.222-0.203-0.319c-0.17-0.168-0.371-0.253-0.601-0.253
			c-0.115,0-0.224,0.022-0.328,0.067c-0.104,0.045-0.196,0.106-0.275,0.185c-0.08,0.08-0.142,0.172-0.187,0.276
			c-0.045,0.104-0.067,0.213-0.067,0.327c0,0.082,0.012,0.16,0.037,0.232c0.025,0.072,0.056,0.134,0.095,0.186
			c0.039,0.053,0.088,0.103,0.15,0.15c0.061,0.047,0.121,0.087,0.178,0.118c0.057,0.031,0.126,0.063,0.205,0.094
			c0.08,0.032,0.148,0.057,0.206,0.075c0.058,0.018,0.127,0.04,0.206,0.065c0.079,0.025,0.14,0.045,0.181,0.059
			c0.137,0.049,0.267,0.106,0.391,0.172c0.123,0.066,0.242,0.145,0.355,0.237c0.113,0.092,0.211,0.191,0.293,0.298
			c0.082,0.107,0.148,0.228,0.196,0.364c0.049,0.136,0.073,0.278,0.073,0.426c0,0.222-0.048,0.434-0.144,0.636
			c-0.096,0.202-0.223,0.375-0.38,0.518c-0.157,0.143-0.34,0.257-0.549,0.341c-0.208,0.084-0.422,0.127-0.641,0.127
			c-0.241,0-0.474-0.049-0.7-0.147c-0.225-0.098-0.422-0.238-0.59-0.419c-0.169-0.181-0.289-0.386-0.36-0.616l0.754-0.16
			c0.07,0.169,0.19,0.307,0.36,0.414c0.169,0.107,0.347,0.161,0.532,0.161C6.324,22.358,6.438,22.331,6.55,22.286z"/>
		<path id="XMLID_317_" fill="#FFFFFF" d="M13.586,17.456h0.751v5.614h-0.751V17.456z"/>
		<path id="XMLID_315_" fill="#FFFFFF" d="M17.546,17.418h0.17c0.199,0,0.389,0.019,0.57,0.057c0.191,0.04,0.369,0.096,0.533,0.166
			c0.169,0.073,0.332,0.162,0.491,0.268c0.07,0.048,0.153,0.109,0.249,0.185l-0.536,0.54c-0.153-0.123-0.321-0.224-0.502-0.302
			c-0.244-0.103-0.51-0.155-0.797-0.155c-0.294,0-0.561,0.052-0.8,0.155c-0.244,0.101-0.469,0.254-0.676,0.461
			c-0.204,0.209-0.356,0.434-0.457,0.676c-0.103,0.254-0.155,0.521-0.155,0.801c0,0.282,0.052,0.549,0.155,0.8
			c0.101,0.244,0.253,0.469,0.457,0.676c0.204,0.206,0.429,0.36,0.676,0.461c0.252,0.103,0.518,0.155,0.8,0.155
			c0.222,0,0.437-0.034,0.646-0.102c0.196-0.06,0.386-0.157,0.57-0.291c0.149-0.111,0.277-0.233,0.385-0.366
			c0.113-0.136,0.208-0.283,0.283-0.442l0.159-0.336h-0.374h-1.499v-0.698h0.064h2.598c0.01,0.398-0.044,0.766-0.162,1.106
			c-0.136,0.4-0.358,0.751-0.665,1.053c-0.284,0.279-0.593,0.488-0.925,0.627c-0.33,0.138-0.694,0.208-1.091,0.208
			c-0.4,0-0.764-0.069-1.091-0.208c-0.337-0.138-0.644-0.347-0.921-0.627c-0.287-0.285-0.496-0.592-0.627-0.921
			c-0.138-0.332-0.208-0.697-0.208-1.095c0-0.395,0.069-0.76,0.208-1.095c0.131-0.327,0.34-0.636,0.627-0.925
			c0.274-0.279,0.582-0.49,0.921-0.631c0.277-0.118,0.584-0.188,0.921-0.208L17.546,17.418z"/>
		<path id="XMLID_312_" fill="#FFFFFF" d="M24.803,17.619c0.33,0.138,0.638,0.35,0.925,0.634c0.282,0.282,0.492,0.589,0.631,0.921
			c0.141,0.34,0.211,0.705,0.211,1.095c0,0.393-0.07,0.758-0.211,1.095c-0.139,0.335-0.349,0.642-0.631,0.921
			c-0.277,0.277-0.585,0.486-0.925,0.627c-0.34,0.138-0.704,0.208-1.091,0.208c-0.393,0-0.758-0.069-1.095-0.208
			c-0.337-0.138-0.644-0.347-0.921-0.627c-0.284-0.282-0.493-0.59-0.627-0.925c-0.139-0.327-0.208-0.691-0.208-1.091
			c0-0.398,0.069-0.761,0.208-1.091c0.133-0.33,0.342-0.639,0.627-0.929c0.282-0.282,0.589-0.492,0.921-0.631
			c0.327-0.138,0.692-0.208,1.095-0.208C24.11,17.411,24.474,17.48,24.803,17.619z M22.908,18.325
			c-0.254,0.111-0.478,0.264-0.672,0.461c-0.206,0.206-0.36,0.432-0.461,0.676c-0.101,0.247-0.151,0.514-0.151,0.8
			c0,0.292,0.05,0.559,0.151,0.8c0.098,0.244,0.252,0.469,0.461,0.676c0.194,0.201,0.418,0.354,0.672,0.457
			c0.252,0.103,0.52,0.155,0.804,0.155c0.282,0,0.547-0.052,0.797-0.155c0.249-0.103,0.474-0.255,0.676-0.457
			c0.206-0.206,0.36-0.432,0.461-0.676c0.105-0.244,0.159-0.511,0.159-0.8c0-0.284-0.053-0.551-0.159-0.8
			c-0.103-0.242-0.255-0.467-0.457-0.676c-0.201-0.199-0.428-0.352-0.679-0.461c-0.249-0.103-0.515-0.155-0.797-0.155
			C23.428,18.17,23.16,18.221,22.908,18.325z"/>
		<path id="XMLID_310_" fill="#FFFFFF" d="M30.768,21.254v-0.668v-3.141h0.751v5.728l-3.666-3.908v0.43v3.39h-0.751V17.4
			L30.768,21.254z"/>
		<path id="XMLID_309_" fill="#FFFFFF" d="M10.642,17.403l-2.413,5.667h0.804l0.415-0.925c0,0,1.043-2.526,1.197-2.881
			c0.151,0.355,1.605,3.806,1.605,3.806h0.804L10.642,17.403z"/>
	</g>
</g>
</svg>
