<?xml version="1.0" encoding="utf-8"?>
<!-- Generator: Adobe Illustrator 17.0.0, SVG Export Plug-In . SVG Version: 6.00 Build 0)  -->
<!DOCTYPE svg PUBLIC "-//W3C//DTD SVG 1.1//EN" "http://www.w3.org/Graphics/SVG/1.1/DTD/svg11.dtd">
<svg version="1.1" id="Layer_1" xmlns="http://www.w3.org/2000/svg" xmlns:xlink="http://www.w3.org/1999/xlink" x="0px" y="0px"
	 width="90px" height="60px" viewBox="0 0 90 60" enable-background="new 0 0 90 60" xml:space="preserve">
<g id="XMLID_550_">
	<path id="XMLID_608_" fill="#EB7112" d="M38.644,14.688c2.592-2.081,5.399-3.731,8.613-4.583c0.865-0.229,1.684-0.396,2.505-0.513
		c2.111-0.299,4.248-0.285,6.352,0.044c2.621,0.411,5.124,1.301,7.439,2.645c2.038,1.183,3.857,2.68,5.407,4.45
		c1.404,1.605,2.557,3.403,3.427,5.345c0.825,1.842,1.387,3.784,1.669,5.774c0.146,1.026,0.216,2.06,0.212,3.096
		c0.245-1.07,0.406-2.16,0.479-3.261c0.151-2.278-0.07-4.552-0.656-6.76c-0.665-2.509-1.772-4.835-3.289-6.915
		c-1.214-1.665-2.669-3.141-4.325-4.386c-0.637-0.479-1.334-0.939-2.071-1.366c-2.787-1.62-5.83-2.549-9.045-2.763
		C53.919,5.4,52.46,5.455,51.026,5.658c-1.933,0.274-3.769,0.926-5.591,1.611C36.2,10.74,33.702,19.582,33.255,21.557
		C33.584,21.117,36.279,16.587,38.644,14.688z"/>
	<path id="XMLID_607_" fill="#E7511F" d="M74.218,9.738c2.158,2.466,3.743,5.444,4.582,8.613c0.23,0.871,0.399,1.691,0.514,2.505
		c0.3,2.113,0.285,4.25-0.045,6.352c-0.411,2.621-1.301,5.125-2.646,7.44c-1.183,2.039-2.68,3.858-4.45,5.407
		c-1.604,1.405-3.402,2.557-5.345,3.426c-1.84,0.825-3.782,1.387-5.773,1.67c-1.026,0.146-2.062,0.216-3.098,0.212
		c1.07,0.245,2.16,0.406,3.262,0.48c1.438,0.096,2.892,0.041,4.322-0.162c0.818-0.116,1.638-0.282,2.437-0.495
		c2.51-0.666,4.837-1.772,6.916-3.287c1.664-1.214,3.14-2.669,4.385-4.325c0.483-0.642,0.93-1.319,1.366-2.071
		c1.62-2.788,2.55-5.831,2.763-9.046c0.226-3.396-0.386-6.829-1.773-9.929c-1.433-3.204-3.679-6.016-6.495-8.133
		c-0.256-0.192-0.515-0.375-0.78-0.555c-2.532-1.768-5.327-3.074-8.257-3.884C69.208,5.219,72.006,7.211,74.218,9.738z"/>
	<path id="XMLID_606_" fill="#EB7112" d="M55.406,4.846c3.271,0.218,6.497,1.204,9.331,2.85c0.763,0.444,1.481,0.917,2.134,1.408
		c1.706,1.282,3.207,2.804,4.459,4.523c1.563,2.144,2.704,4.543,3.391,7.131c0.605,2.276,0.833,4.62,0.677,6.97
		c-0.141,2.127-0.597,4.213-1.356,6.202c-0.718,1.885-1.695,3.656-2.902,5.263c-0.622,0.828-1.303,1.609-2.038,2.338
		c0.929-0.583,1.813-1.239,2.643-1.966c1.717-1.503,3.169-3.267,4.316-5.243c1.304-2.245,2.167-4.672,2.566-7.215
		c0.319-2.035,0.333-4.107,0.043-6.16c-0.113-0.797-0.276-1.591-0.5-2.43c-0.824-3.116-2.319-5.925-4.442-8.349
		c-2.241-2.562-5.102-4.556-8.274-5.767c-3.278-1.252-6.855-1.652-10.343-1.158c-0.318,0.045-0.63,0.1-0.945,0.159
		c-3.04,0.54-5.94,1.594-8.583,3.093c1.71-0.722,3.509-1.22,5.354-1.482C52.414,4.803,53.918,4.747,55.406,4.846z"/>
	<path id="XMLID_605_" fill="#EB7112" d="M49.695,12.365c7.97-1.131,15.572,1.851,20.671,7.328
		c-0.565-0.888-1.196-1.735-1.893-2.532c-1.503-1.717-3.267-3.169-5.243-4.316c-2.244-1.303-4.671-2.166-7.215-2.565
		c-2.035-0.319-4.107-0.333-6.16-0.041l-0.017,0.002c-0.782,0.111-1.594,0.278-2.413,0.495c-3.115,0.824-5.925,2.319-8.351,4.442
		c-1.48,1.294-3.548,4.151-4.712,6.062C38.001,16.578,43.376,13.261,49.695,12.365z"/>
	<path id="XMLID_604_" fill="#E5332A" d="M54.598,47.153c2.244,1.303,4.672,2.166,7.215,2.565c2.037,0.319,4.11,0.333,6.159,0.042
		c0.797-0.113,1.592-0.276,2.43-0.497c3.116-0.825,5.925-2.32,8.35-4.443c2.562-2.242,4.557-5.103,5.767-8.273
		c1.252-3.279,1.652-6.856,1.157-10.344c-0.045-0.316-0.099-0.629-0.159-0.944c-0.54-3.042-1.593-5.941-3.093-8.586
		c1.303,3.087,1.873,6.474,1.65,9.827c-0.221,3.317-1.18,6.456-2.85,9.33c-0.441,0.759-0.915,1.477-1.409,2.135
		c-1.281,1.705-2.803,3.206-4.522,4.46c-2.143,1.563-4.542,2.704-7.131,3.391c-0.824,0.219-1.668,0.39-2.512,0.51
		c-1.476,0.209-2.975,0.265-4.458,0.166c-2.126-0.14-4.213-0.596-6.203-1.356c-1.105-0.421-2.169-0.933-3.185-1.526l-1.757-0.021
		C51.392,44.979,52.918,46.177,54.598,47.153z"/>
	<path id="XMLID_603_" fill="#B3132B" d="M44.084,49.832c2.241,2.561,5.102,4.555,8.274,5.766c3.279,1.253,6.856,1.653,10.344,1.158
		c0.316-0.045,0.629-0.099,0.943-0.158c3.043-0.541,5.944-1.595,8.589-3.095c-1.711,0.723-3.511,1.222-5.358,1.484
		c-1.478,0.21-2.982,0.266-4.471,0.167c-3.271-0.217-6.497-1.203-9.33-2.85c-0.773-0.45-1.471-0.911-2.134-1.409
		c-1.707-1.283-3.208-2.804-4.46-4.522c-0.661-0.906-1.241-1.859-1.747-2.852l-4.444-0.054
		C41.166,45.791,42.45,47.965,44.084,49.832z"/>
	<path id="XMLID_602_" fill="#B3132B" d="M33.334,44.341c2.15,3.318,8.976,8.687,18.375,11.703
		c-3.105-1.261-5.903-3.254-8.115-5.782c-1.769-2.021-3.106-4.306-4.006-6.803l-6.783-0.083C32.969,43.7,33.2,44.134,33.334,44.341z
		"/>
	
		<linearGradient id="XMLID_2_" gradientUnits="userSpaceOnUse" x1="1304.8506" y1="-605.4841" x2="1334.0569" y2="-615.9149" gradientTransform="matrix(-0.9901 0.1405 -0.1405 -0.9901 1280.6722 -742.4909)">
		<stop  offset="0" style="stop-color:#E01516"/>
		<stop  offset="0.4312" style="stop-color:#E01515"/>
		<stop  offset="0.5768" style="stop-color:#E01516"/>
		<stop  offset="1" style="stop-color:#B71318"/>
	</linearGradient>
	<path id="XMLID_601_" fill="url(#XMLID_2_)" d="M79.168,45.312c-2.466,2.159-5.444,3.743-8.613,4.583
		c-0.863,0.228-1.682,0.396-2.505,0.513c-2.114,0.3-4.251,0.285-6.351-0.044c-2.62-0.41-5.124-1.3-7.441-2.645
		c-1.917-1.113-3.638-2.508-5.126-4.143l-3.654-0.045c0.452,0.852,0.958,1.674,1.53,2.459c1.212,1.664,2.667,3.139,4.326,4.385
		c0.639,0.481,1.316,0.928,2.07,1.367c2.785,1.619,5.829,2.549,9.046,2.763c1.444,0.096,2.903,0.041,4.336-0.162
		c1.934-0.274,3.815-0.816,5.592-1.611c3.203-1.433,6.016-3.679,8.133-6.496c0.192-0.255,0.375-0.515,0.555-0.78
		c1.77-2.534,3.076-5.331,3.886-8.263C83.69,40.298,81.697,43.098,79.168,45.312z"/>
	<g id="XMLID_564_">
		<linearGradient id="XMLID_3_" gradientUnits="userSpaceOnUse" x1="7.2869" y1="59.8967" x2="2.9743" y2="5.5583">
			<stop  offset="0" style="stop-color:#E01516"/>
			<stop  offset="0.4312" style="stop-color:#E01515"/>
			<stop  offset="0.5768" style="stop-color:#E01516"/>
			<stop  offset="1" style="stop-color:#B71318"/>
		</linearGradient>
		<path id="XMLID_599_" fill="url(#XMLID_3_)" d="M4.167,26.422h2.012v13.684H4.167V26.422z"/>
		<linearGradient id="XMLID_4_" gradientUnits="userSpaceOnUse" x1="16.1876" y1="59.3732" x2="11.8551" y2="4.7848">
			<stop  offset="0" style="stop-color:#E01516"/>
			<stop  offset="0.4312" style="stop-color:#E01515"/>
			<stop  offset="0.5768" style="stop-color:#E01516"/>
			<stop  offset="1" style="stop-color:#B71318"/>
		</linearGradient>
		<path id="XMLID_597_" fill="url(#XMLID_4_)" d="M18.018,35.679v-1.629v-7.656h2.011v13.96l-9.815-9.524v1.049v8.264H8.202V26.284
			L18.018,35.679z"/>
		<linearGradient id="XMLID_5_" gradientUnits="userSpaceOnUse" x1="28.9341" y1="58.3652" x2="24.6129" y2="3.9182">
			<stop  offset="0" style="stop-color:#E01516"/>
			<stop  offset="0.4312" style="stop-color:#E01515"/>
			<stop  offset="0.5768" style="stop-color:#E01516"/>
			<stop  offset="1" style="stop-color:#B71318"/>
		</linearGradient>
		<path id="XMLID_595_" fill="url(#XMLID_5_)" d="M28.113,26.422h3.377v1.813h-3.377h-0.637v0.571v11.3h-2.011v-11.3v-0.571h-0.638
			h-3.376v-1.813h3.376H28.113z"/>
		<linearGradient id="XMLID_6_" gradientUnits="userSpaceOnUse" x1="39.1235" y1="57.6736" x2="34.7971" y2="3.1615">
			<stop  offset="0" style="stop-color:#E01516"/>
			<stop  offset="0.4312" style="stop-color:#E01515"/>
			<stop  offset="0.5768" style="stop-color:#E01516"/>
			<stop  offset="1" style="stop-color:#B71318"/>
		</linearGradient>
		<path id="XMLID_593_" fill="url(#XMLID_6_)" d="M41.463,26.394v1.822h-5.914h-0.627v0.571v2.991v0.58h0.627h4.276v1.822h-4.276
			h-0.627v0.571v2.991v0.58h0.627h5.914v1.822h-5.914h-2.638V26.394H41.463z"/>
		<linearGradient id="XMLID_7_" gradientUnits="userSpaceOnUse" x1="48.5704" y1="56.9923" x2="44.2439" y2="2.4791">
			<stop  offset="0" style="stop-color:#E01516"/>
			<stop  offset="0.4312" style="stop-color:#E01515"/>
			<stop  offset="0.5768" style="stop-color:#E01516"/>
			<stop  offset="1" style="stop-color:#B71318"/>
		</linearGradient>
		<path id="XMLID_566_" fill="url(#XMLID_7_)" d="M44.894,26.422v11.3v0.58h0.627h5.914v1.804h-8.552V26.422H44.894z"/>
		<linearGradient id="XMLID_8_" gradientUnits="userSpaceOnUse" x1="59.9819" y1="56.1638" x2="55.6599" y2="1.7067">
			<stop  offset="0" style="stop-color:#E01516"/>
			<stop  offset="0.4312" style="stop-color:#E01515"/>
			<stop  offset="0.5768" style="stop-color:#E01516"/>
			<stop  offset="1" style="stop-color:#B71318"/>
		</linearGradient>
		<path id="XMLID_565_" fill="url(#XMLID_8_)" d="M58.707,26.293l-6.459,13.812h2.153l1.112-2.255c0,0,2.793-6.157,3.204-7.021
			c0.404,0.865,4.296,9.276,4.296,9.276h2.153L58.707,26.293z"/>
	</g>
	<g id="XMLID_551_">
		<path id="XMLID_562_" fill="#148936" d="M6.126,22.201c0.113-0.045,0.215-0.104,0.306-0.177c0.091-0.073,0.164-0.163,0.219-0.27
			c0.056-0.107,0.083-0.221,0.083-0.343c0.002-0.102-0.019-0.197-0.064-0.286c-0.045-0.089-0.102-0.164-0.171-0.226
			c-0.07-0.062-0.156-0.12-0.258-0.174c-0.103-0.054-0.201-0.098-0.294-0.131c-0.093-0.033-0.196-0.065-0.308-0.096
			c-0.251-0.07-0.475-0.159-0.671-0.269s-0.367-0.254-0.515-0.432c-0.101-0.121-0.179-0.258-0.234-0.41
			c-0.055-0.152-0.083-0.311-0.083-0.476c0-0.223,0.042-0.434,0.126-0.634c0.084-0.199,0.201-0.374,0.352-0.523
			c0.152-0.152,0.328-0.27,0.528-0.354c0.2-0.084,0.412-0.126,0.635-0.126c0.203,0,0.396,0.035,0.58,0.105
			c0.184,0.07,0.349,0.169,0.496,0.296c0.247,0.214,0.415,0.478,0.503,0.792l-0.758,0.16c-0.041-0.117-0.109-0.225-0.205-0.322
			c-0.172-0.17-0.375-0.255-0.608-0.255c-0.116,0-0.227,0.023-0.332,0.068c-0.105,0.045-0.198,0.108-0.278,0.188
			c-0.081,0.081-0.144,0.174-0.189,0.279c-0.045,0.105-0.068,0.216-0.068,0.331c0,0.083,0.013,0.161,0.038,0.234
			c0.025,0.073,0.057,0.135,0.096,0.189c0.039,0.053,0.089,0.104,0.151,0.152c0.062,0.048,0.122,0.088,0.18,0.119
			c0.058,0.031,0.127,0.063,0.208,0.095c0.08,0.032,0.15,0.058,0.208,0.076c0.059,0.019,0.128,0.041,0.208,0.066
			c0.08,0.025,0.141,0.045,0.183,0.06c0.139,0.049,0.27,0.107,0.395,0.174c0.125,0.067,0.244,0.147,0.359,0.24
			c0.115,0.093,0.214,0.194,0.297,0.302c0.083,0.108,0.149,0.231,0.199,0.368c0.049,0.137,0.074,0.281,0.074,0.431
			c0,0.224-0.048,0.438-0.145,0.643c-0.097,0.204-0.225,0.379-0.384,0.523c-0.159,0.144-0.344,0.259-0.555,0.345
			s-0.427,0.128-0.648,0.128c-0.244,0-0.48-0.05-0.707-0.149c-0.227-0.099-0.427-0.24-0.597-0.423
			c-0.17-0.183-0.292-0.391-0.364-0.623L4.879,21.7c0.071,0.171,0.192,0.31,0.364,0.419c0.171,0.108,0.351,0.163,0.538,0.163
			C5.898,22.273,6.013,22.246,6.126,22.201z"/>
		<path id="XMLID_560_" fill="#148936" d="M13.24,17.318h0.76v5.676h-0.76V17.318z"/>
		<path id="XMLID_558_" fill="#148936" d="M17.244,17.28h0.172c0.201,0,0.393,0.019,0.576,0.057
			c0.193,0.041,0.373,0.097,0.538,0.168c0.17,0.074,0.336,0.164,0.496,0.271c0.071,0.048,0.155,0.111,0.252,0.187l-0.542,0.546
			c-0.155-0.125-0.324-0.227-0.508-0.305c-0.247-0.104-0.515-0.157-0.805-0.157c-0.298,0-0.567,0.052-0.809,0.157
			c-0.247,0.102-0.475,0.257-0.683,0.466c-0.206,0.211-0.36,0.439-0.462,0.683c-0.104,0.257-0.156,0.527-0.156,0.809
			c0,0.285,0.052,0.555,0.156,0.809c0.102,0.247,0.256,0.475,0.462,0.683c0.206,0.209,0.434,0.364,0.683,0.466
			c0.254,0.104,0.524,0.156,0.809,0.156c0.224,0,0.442-0.034,0.653-0.103c0.199-0.061,0.391-0.159,0.576-0.294
			c0.15-0.112,0.28-0.235,0.389-0.37c0.115-0.137,0.21-0.286,0.286-0.447l0.16-0.34H19.11h-1.516v-0.706h0.065h2.626
			c0.01,0.402-0.045,0.775-0.164,1.118c-0.137,0.405-0.361,0.76-0.672,1.065c-0.288,0.282-0.599,0.494-0.935,0.634
			c-0.333,0.14-0.701,0.21-1.103,0.21c-0.405,0-0.772-0.07-1.103-0.21c-0.341-0.14-0.651-0.351-0.932-0.634
			c-0.29-0.288-0.501-0.598-0.634-0.931c-0.14-0.336-0.21-0.705-0.21-1.107c0-0.4,0.07-0.769,0.21-1.107
			c0.132-0.331,0.344-0.643,0.634-0.935c0.277-0.282,0.588-0.495,0.932-0.637c0.28-0.12,0.59-0.19,0.932-0.21L17.244,17.28z"/>
		<path id="XMLID_555_" fill="#148936" d="M24.581,17.482c0.333,0.14,0.645,0.354,0.935,0.641c0.285,0.285,0.497,0.596,0.637,0.931
			c0.143,0.344,0.214,0.713,0.214,1.107c0,0.397-0.071,0.766-0.214,1.107c-0.14,0.338-0.352,0.649-0.637,0.931
			c-0.28,0.28-0.592,0.491-0.935,0.634c-0.344,0.14-0.711,0.21-1.103,0.21c-0.397,0-0.766-0.07-1.107-0.21
			c-0.341-0.14-0.651-0.351-0.931-0.634c-0.288-0.285-0.499-0.597-0.634-0.935c-0.14-0.331-0.21-0.699-0.21-1.103
			c0-0.402,0.07-0.77,0.21-1.103c0.135-0.333,0.346-0.646,0.634-0.939c0.285-0.285,0.595-0.497,0.931-0.637
			c0.331-0.14,0.7-0.21,1.107-0.21C23.88,17.272,24.248,17.342,24.581,17.482z M22.665,18.196c-0.257,0.112-0.484,0.267-0.68,0.466
			c-0.209,0.209-0.364,0.436-0.466,0.683c-0.102,0.249-0.153,0.519-0.153,0.809c0,0.295,0.051,0.565,0.153,0.809
			c0.099,0.247,0.254,0.475,0.466,0.683c0.196,0.204,0.422,0.358,0.68,0.462c0.254,0.104,0.526,0.156,0.813,0.156
			c0.285,0,0.553-0.052,0.805-0.156c0.252-0.104,0.48-0.258,0.683-0.462c0.209-0.209,0.364-0.436,0.466-0.683
			c0.107-0.247,0.16-0.517,0.16-0.809c0-0.288-0.054-0.557-0.16-0.809c-0.105-0.244-0.258-0.472-0.462-0.683
			c-0.204-0.201-0.433-0.356-0.687-0.466c-0.252-0.104-0.52-0.157-0.805-0.157C23.19,18.039,22.919,18.092,22.665,18.196z"/>
		<path id="XMLID_553_" fill="#148936" d="M30.612,21.158v-0.676v-3.176h0.759v5.791l-3.706-3.951v0.435v3.428h-0.76v-5.749
			L30.612,21.158z"/>
		<path id="XMLID_552_" fill="#148936" d="M10.263,17.265l-2.439,5.73h0.813l0.42-0.935c0,0,1.055-2.554,1.21-2.912
			c0.153,0.359,1.622,3.848,1.622,3.848h0.813L10.263,17.265z"/>
	</g>
</g>
</svg>
